<?xml version="1.0" encoding="UTF-8"?>
<svg id="Layer_2" data-name="Layer 2" xmlns="http://www.w3.org/2000/svg" viewBox="0 0 245.2 256.48">
  <defs>
    <style>
      .cls-1 {
        opacity: .4;
      }

      .cls-2 {
        fill: #6b7c6d;
      }
    </style>
  </defs>
  <g id="Layer_1-2" data-name="Layer 1">
    <g class="cls-1">
      <g>
        <path class="cls-2" d="m90.61,232.35c-6.77-1.81-12.92-3.15-17.51-2.04-1.29-1.9-4.1-.98-4.17,1.2-.09,3.04,4.51,3.19,4.6.14.01-.46,1.49-.54,1.95-.57,3.79-.36,8.92.96,14.71,2.64,5.73,1.86,10.72,3.66,13.65,6.08.36.29,1.54,1.18,1.29,1.57-1.63,2.57,2.25,5.04,3.89,2.47,1.17-1.84-.64-4.18-2.78-3.33-3.18-3.5-9.01-5.84-15.64-8.15Z"/>
        <path class="cls-2" d="m35.52,193.66c-4.41-5.45-8.6-10.14-12.97-11.94.07-2.3-2.74-3.21-4.08-1.48-1.86,2.41,1.77,5.23,3.64,2.82.28-.37,1.52.44,1.92.68,3.28,1.94,6.66,6.02,10.35,10.78,3.54,4.87,6.52,9.26,7.47,12.94.12.45.55,1.86.12,2.03-2.83,1.12-1.14,5.4,1.69,4.28,2.03-.8,1.94-3.76-.29-4.33-.51-4.7-3.86-10.02-7.86-15.78Z"/>
        <path class="cls-2" d="m13.7,129.99c-.37-7-.99-13.26-3.47-17.29,1.41-1.81-.33-4.21-2.43-3.6-2.92.85-1.64,5.27,1.29,4.42.44-.13.97,1.25,1.15,1.68,1.51,3.5,1.85,8.78,2.04,14.81,0,6.02-.17,11.32-1.56,14.86-.16.44-.65,1.83-1.09,1.72-2.95-.76-4.09,3.7-1.14,4.46,2.11.54,3.78-1.9,2.31-3.67,2.35-4.1,2.77-10.38,2.92-17.39Z"/>
        <path class="cls-2" d="m33.47,65.64c3.82-5.88,6.99-11.31,7.35-16.02,2.21-.64,2.2-3.6.15-4.34-2.87-1.03-4.42,3.3-1.56,4.33.44.16.05,1.58-.06,2.04-.83,3.72-3.67,8.19-7.05,13.18-3.54,4.87-6.79,9.06-10,11.11-.39.26-1.6,1.1-1.89.75-1.94-2.35-5.49.59-3.55,2.93,1.39,1.68,4.18.68,4.03-1.61,4.31-1.94,8.34-6.77,12.58-12.35Z"/>
        <path class="cls-2" d="m87.29,25.21c6.55-2.51,12.3-5.04,15.37-8.64,2.16.78,3.9-1.62,2.67-3.42-1.71-2.52-5.52.07-3.8,2.59.26.38-.89,1.31-1.24,1.61-2.86,2.52-7.78,4.47-13.45,6.51-5.73,1.86-10.82,3.34-14.62,3.11-.46-.02-1.94-.05-1.97-.51-.19-3.04-4.78-2.75-4.59.29.14,2.18,2.98,3,4.21,1.06,4.63.97,10.73-.57,17.44-2.6Z"/>
        <path class="cls-2" d="m154.59,24.13c6.77,1.81,12.92,3.15,17.51,2.04,1.29,1.9,4.1.98,4.17-1.2.09-3.04-4.51-3.19-4.6-.14-.01.46-1.49.54-1.95.57-3.79.36-8.92-.96-14.71-2.64-5.73-1.86-10.72-3.66-13.65-6.08-.36-.29-1.54-1.18-1.29-1.57,1.63-2.57-2.25-5.04-3.89-2.47-1.17,1.84.64,4.18,2.78,3.33,3.18,3.5,9.01,5.84,15.64,8.15Z"/>
        <path class="cls-2" d="m209.68,62.82c4.41,5.45,8.6,10.14,12.97,11.94-.07,2.3,2.74,3.21,4.08,1.48,1.86-2.41-1.77-5.23-3.64-2.82-.28.37-1.52-.44-1.92-.68-3.28-1.94-6.66-6.02-10.35-10.78-3.54-4.87-6.52-9.26-7.47-12.94-.12-.45-.55-1.86-.12-2.03,2.83-1.12,1.14-5.4-1.69-4.28-2.03.8-1.94,3.76.29,4.33.51,4.7,3.86,10.02,7.86,15.78Z"/>
        <path class="cls-2" d="m231.5,126.49c.37,7,.99,13.26,3.47,17.29-1.41,1.81.33,4.21,2.43,3.6,2.92-.85,1.64-5.27-1.29-4.42-.44.13-.97-1.25-1.15-1.68-1.51-3.5-1.85-8.78-2.04-14.81,0-6.02.17-11.32,1.56-14.86.16-.44.65-1.83,1.09-1.72,2.95.76,4.09-3.7,1.14-4.46-2.11-.54-3.78,1.9-2.31,3.67-2.35,4.1-2.77,10.38-2.92,17.39Z"/>
        <path class="cls-2" d="m211.73,190.84c-3.82,5.88-6.99,11.31-7.35,16.02-2.21.64-2.2,3.6-.15,4.34,2.87,1.03,4.42-3.3,1.56-4.33-.44-.16-.05-1.58.06-2.04.83-3.72,3.67-8.19,7.05-13.18,3.54-4.87,6.79-9.06,10-11.11.39-.26,1.6-1.1,1.89-.75,1.94,2.35,5.49-.59,3.55-2.93-1.39-1.68-4.18-.68-4.03,1.61-4.31,1.94-8.34,6.77-12.58,12.35Z"/>
        <path class="cls-2" d="m157.91,231.27c-6.55,2.51-12.3,5.04-15.37,8.64-2.16-.78-3.9,1.62-2.67,3.42,1.71,2.52,5.52-.07,3.8-2.59-.26-.38.89-1.31,1.24-1.61,2.86-2.52,7.78-4.47,13.45-6.51,5.73-1.86,10.82-3.34,14.62-3.11.46.02,1.94.05,1.97.51.19,3.04,4.78,2.75,4.59-.29-.14-2.18-2.98-3-4.21-1.06-4.63-.97-10.73.57-17.44,2.6Z"/>
        <path class="cls-2" d="m48.88,233.2c3.99.22,6.12-3.56,5.82-6.36,1.64.28,2.29-1.15-.01-1.59-.06-.01-.13-.03-.19-.04-.03-.06-.07-.11-.1-.17-1.2-2.02-2.31-.92-1.5.53-2.74.66-5.57,3.95-4.01,7.63Z"/>
        <path class="cls-2" d="m1.27,169.82c3.1,2.52,7.04.72,8.44-1.73,1.17,1.19,2.53.42.92-1.29-.04-.05-.09-.1-.13-.15,0-.06,0-.13.02-.2.22-2.34-1.33-2.11-1.52-.45-2.61-1.08-6.83-.08-7.73,3.82Z"/>
        <path class="cls-2" d="m0,90.57c1.03,3.86,5.27,4.73,7.85,3.57.25,1.65,1.8,1.82,1.51-.5,0-.06-.01-.13-.02-.19.04-.05.08-.1.13-.15,1.55-1.76.16-2.49-.96-1.26-1.48-2.4-5.48-4.07-8.49-1.46Z"/>
        <path class="cls-2" d="m45.56,25.7c-1.44,3.73,1.49,6.92,4.25,7.5-.77,1.48.38,2.53,1.52.48.03-.06.06-.11.1-.17.06-.02.13-.03.19-.05,2.29-.52,1.59-1.92-.04-1.59.22-2.81-2.04-6.52-6.02-6.17Z"/>
        <path class="cls-2" d="m120.54,0c-3.36,2.17-2.86,6.48-.97,8.56-1.49.74-1.18,2.28.94,1.28.06-.03.12-.05.18-.08.06.02.12.05.18.07,2.15.93,2.42-.61.9-1.31,1.83-2.15,2.18-6.47-1.24-8.53Z"/>
        <path class="cls-2" d="m196.31,23.28c-3.99-.22-6.12,3.56-5.82,6.36-1.64-.28-2.29,1.15.01,1.59.06.01.13.03.19.04.03.06.07.11.1.17,1.2,2.02,2.31.92,1.5-.53,2.74-.66,5.57-3.95,4.01-7.63Z"/>
        <path class="cls-2" d="m243.93,86.66c-3.1-2.52-7.04-.72-8.44,1.73-1.17-1.19-2.53-.42-.92,1.29.04.05.09.1.13.15,0,.06,0,.13-.01.2-.22,2.34,1.33,2.11,1.52.45,2.61,1.08,6.83.08,7.73-3.82Z"/>
        <path class="cls-2" d="m245.2,165.91c-1.03-3.86-5.27-4.73-7.85-3.57-.25-1.65-1.8-1.82-1.51.5,0,.06.01.13.02.19-.04.05-.08.1-.13.15-1.55,1.76-.16,2.49.96,1.26,1.48,2.4,5.48,4.07,8.49,1.46Z"/>
        <path class="cls-2" d="m199.64,230.78c1.44-3.73-1.49-6.92-4.25-7.5.77-1.48-.38-2.53-1.52-.48-.03.06-.06.11-.1.17-.06.02-.13.03-.19.05-2.29.51-1.59,1.92.04,1.59-.22,2.81,2.04,6.52,6.02,6.17Z"/>
        <path class="cls-2" d="m124.66,256.48c3.36-2.17,2.86-6.48.97-8.56,1.49-.74,1.18-2.28-.94-1.28-.06.03-.12.05-.18.08-.06-.02-.12-.05-.18-.07-2.15-.93-2.42.61-.9,1.31-1.83,2.15-2.18,6.47,1.24,8.53Z"/>
        <path class="cls-2" d="m41.95,188.83c-.09-.5-.16-1.09-.21-1.77-.38-5.46.83-7.51-4.13-10.12-2.65-1.4-4.85.31-4.85.31,0,0-1.51-6.38-10.95-7.27-9.34-.88-11.46,5.36-10.99,5.16.51.51,1.23-.65,5.24-.99,8.94-.56,15.37,7.44,22.84,16.98,7.09,9.83,12.98,18.23,9.95,26.67-1.45,3.75-2.77,4.12-2.41,4.76-.32.4,6.26.09,8.02-9.12,1.77-9.32-3.94-12.54-3.94-12.54,0,0,2.25-1.64,1.64-4.57-1.13-5.49-3.43-4.9-8.57-6.79-.64-.24-1.19-.47-1.64-.69Z"/>
        <path class="cls-2" d="m21.74,129.86c.22-.46.51-.97.87-1.56,2.9-4.64,5.08-5.59,2.6-10.62-1.33-2.69-4.1-2.6-4.1-2.6,0,0,2.53-6.05-4.58-12.32-7.04-6.2-12.43-2.4-11.93-2.29.11.72,1.37.2,4.82,2.28,7.56,4.81,8.06,15.05,8.5,27.17-.04,12.12-.22,22.38-7.62,27.42-3.38,2.18-4.66,1.71-4.75,2.43-.5.13,5.01,3.76,11.85-2.67,6.91-6.49,4.19-12.46,4.19-12.46,0,0,2.78,0,4.02-2.73,2.32-5.1.1-5.98-2.94-10.53-.38-.57-.69-1.08-.92-1.53Z"/>
        <path class="cls-2" d="m40.05,70.26c.45-.24.98-.49,1.62-.75,5.07-2.05,7.4-1.54,8.35-7.06.51-2.95-1.79-4.52-1.79-4.52,0,0,5.61-3.41,3.53-12.66-2.05-9.15-8.64-9.25-8.3-8.86-.33.64.99.97,2.56,4.68,3.29,8.33-2.32,16.92-9.09,26.97-7.16,9.78-13.33,17.98-22.29,17.71-4.02-.22-4.78-1.36-5.27-.83-.48-.19,1.85,5.98,11.15,4.8,9.41-1.19,10.71-7.62,10.71-7.62,0,0,2.25,1.63,4.86.15,4.87-2.77,3.6-4.78,3.81-10.25.03-.69.08-1.27.15-1.78Z"/>
        <path class="cls-2" d="m89.89,32.82c.5.07,1.08.18,1.75.35,5.31,1.32,6.89,3.11,10.9-.8,2.15-2.09,1.21-4.71,1.21-4.71,0,0,6.54.54,10.3-8.17,3.72-8.61-1.56-12.56-1.51-12.05-.65.33.23,1.37-.67,5.29-2.23,8.68-11.82,12.32-23.21,16.48-11.54,3.7-21.35,6.71-28.44,1.23-3.12-2.54-3.07-3.9-3.78-3.77-.28-.43-2.02,5.93,6.2,10.44,8.31,4.57,13.14.13,13.14.13,0,0,.86,2.64,3.84,2.98,5.57.63,5.72-1.75,9.1-6.05.42-.54.81-.98,1.17-1.35Z"/>
        <path class="cls-2" d="m152.23,31.82c.37.35.77.78,1.21,1.31,3.52,4.19,3.75,6.56,9.29,5.76,2.97-.43,3.74-3.1,3.74-3.1,0,0,4.97,4.28,13.13-.55,8.07-4.78,6.12-11.08,5.86-10.64-.72-.12-.62,1.25-3.66,3.88-6.91,5.71-16.81,3.02-28.46-.31-11.52-3.79-21.21-7.12-23.73-15.72-1.03-3.89-.19-4.96-.84-5.27.03-.51-5.12,3.6-1.12,12.09,4.04,8.58,10.56,7.83,10.56,7.83,0,0-.86,2.64,1.36,4.67,4.14,3.78,5.66,1.95,10.92.45.66-.19,1.24-.32,1.74-.41Z"/>
        <path class="cls-2" d="m203.24,67.65c.09.5.16,1.09.21,1.77.38,5.46-.83,7.51,4.13,10.12,2.65,1.4,4.85-.31,4.85-.31,0,0,1.51,6.38,10.95,7.27,9.34.88,11.46-5.36,10.99-5.16-.51-.51-1.23.65-5.24.99-8.94.56-15.37-7.44-22.84-16.98-7.09-9.83-12.98-18.23-9.95-26.67,1.45-3.75,2.77-4.12,2.41-4.76.32-.4-6.26-.09-8.02,9.12-1.77,9.32,3.94,12.54,3.94,12.54,0,0-2.25,1.64-1.64,4.57,1.13,5.49,3.43,4.9,8.57,6.79.65.24,1.19.47,1.64.69Z"/>
        <path class="cls-2" d="m223.46,126.62c-.22.46-.51.97-.87,1.56-2.9,4.64-5.08,5.59-2.6,10.62,1.33,2.69,4.1,2.6,4.1,2.6,0,0-2.53,6.05,4.58,12.32,7.04,6.2,12.43,2.4,11.93,2.29-.11-.72-1.37-.2-4.82-2.28-7.56-4.81-8.06-15.05-8.5-27.17.04-12.12.22-22.38,7.62-27.42,3.38-2.18,4.66-1.71,4.75-2.43.5-.13-5.01-3.76-11.85,2.67-6.91,6.49-4.19,12.46-4.19,12.46,0,0-2.78,0-4.02,2.73-2.32,5.1-.1,5.98,2.94,10.53.38.57.69,1.08.92,1.53Z"/>
        <path class="cls-2" d="m205.15,186.21c-.45.24-.98.49-1.62.75-5.07,2.05-7.4,1.54-8.35,7.06-.51,2.95,1.79,4.52,1.79,4.52,0,0-5.61,3.41-3.53,12.66,2.05,9.15,8.64,9.25,8.3,8.86.33-.64-.99-.97-2.56-4.68-3.29-8.33,2.32-16.92,9.09-26.97,7.16-9.78,13.33-17.98,22.29-17.71,4.02.22,4.78,1.36,5.27.83.48.19-1.85-5.98-11.15-4.8-9.41,1.19-10.71,7.62-10.71,7.62,0,0-2.25-1.63-4.86-.15-4.87,2.77-3.6,4.78-3.81,10.25-.03.69-.08,1.27-.15,1.78Z"/>
        <path class="cls-2" d="m155.3,223.66c-.5-.07-1.08-.18-1.75-.35-5.31-1.32-6.89-3.11-10.9.8-2.15,2.09-1.21,4.71-1.21,4.71,0,0-6.54-.54-10.3,8.17-3.72,8.61,1.56,12.56,1.51,12.05.65-.33-.23-1.37.67-5.29,2.23-8.68,11.82-12.32,23.21-16.48,11.54-3.7,21.35-6.71,28.44-1.23,3.12,2.54,3.07,3.9,3.78,3.77.28.43,2.02-5.93-6.2-10.44-8.31-4.57-13.14-.13-13.14-.13,0,0-.86-2.64-3.84-2.98-5.57-.63-5.72,1.75-9.1,6.05-.42.54-.81.98-1.17,1.35Z"/>
        <path class="cls-2" d="m92.97,224.66c-.37-.35-.77-.78-1.21-1.31-3.52-4.19-3.75-6.56-9.29-5.76-2.97.43-3.74,3.1-3.74,3.1,0,0-4.97-4.28-13.13.55-8.07,4.78-6.12,11.08-5.86,10.64.71.12.62-1.25,3.66-3.88,6.91-5.71,16.81-3.02,28.46.31,11.52,3.79,21.22,7.12,23.73,15.72,1.03,3.89.19,4.96.84,5.27-.03.51,5.12-3.6,1.12-12.09-4.04-8.58-10.56-7.83-10.56-7.83,0,0,.86-2.64-1.36-4.67-4.14-3.78-5.66-1.95-10.92-.45-.66.19-1.24.32-1.74.41Z"/>
        <path class="cls-2" d="m98.17,207.75c-8.33-.57-25.85-2.8-31.22-.27.56-5.91-7.48-21.64-10.85-29.28-6.4-5.36-19.26-17.46-25.1-18.57,3.93-4.45,6.67-21.9,8.44-30.06-2.03-8.1-5.32-25.45-9.39-29.78,5.8-1.29,18.27-13.8,24.49-19.36,3.12-7.75,10.65-23.72,9.9-29.61,5.45,2.36,22.89-.43,31.2-1.27,7.08-4.43,22.56-12.93,25.42-18.14,3.02,5.12,18.77,13.11,25.98,17.31,8.33.57,25.85,2.8,31.22.27-.56,5.91,7.48,21.64,10.85,29.28,6.4,5.36,19.26,17.46,25.1,18.57-3.93,4.45-6.67,21.9-8.44,30.06,2.03,8.1,5.32,25.45,9.39,29.78-5.8,1.29-18.27,13.8-24.49,19.36-3.12,7.75-10.65,23.72-9.9,29.61-5.45-2.36-22.89.43-31.2,1.27-7.08,4.43-22.56,12.93-25.42,18.14-3.02-5.12-18.77-13.11-25.98-17.31Zm-32.81,2c.23,2.67,4.41,2.69,4.5-.18.02-.78-.77-.85,1.98-1.41-2.68,3.15,4.39,5.77,6.09-.44,1.19.01,1.82.04,2.9.1-3.12,2.77,3.51,6.29,6.03.46,1.61.15,1.21.11,2.03.19-2.57,2.58,3.44,5.98,6.2.65.72.07,1.44.15,2.17.23-.79.81-.78,1.67-.3,2.33.76-.28,1.26-.99,1.06-2.1.65.35,1.29.69,1.93,1.03-.71,5.96,6.17,6.52,5.49,2.94.73.39.37.2,1.79.98-1.19,6.25,6.27,7.06,5.25,3.01.93.56,1.47.89,2.46,1.55-2.08,6.09,5.24,7.89,4.79,3.78,1.96,2.01,1.27,1.62.85,2.28-1.54,2.43,1.93,4.76,3.62,2.68,1.75,2.02,5.15-.42,3.53-2.8-.44-.65-1.12-.23.78-2.3-.31,4.13,6.94,2.09,4.67-3.93.97-.69,1.5-1.03,2.41-1.63-.9,4.08,6.54,3.03,5.15-3.17,1.39-.83,1.04-.63,1.76-1.04-.56,3.6,6.3,2.81,5.4-3.12.62-.36,1.25-.72,1.89-1.09-.17,1.12.35,1.81,1.13,2.07.45-.68.44-1.54-.38-2.32.73-.1,1.45-.2,2.16-.3,2.93,5.24,8.82,1.65,6.17-.85.82-.11.42-.06,2.03-.26,2.71,5.75,9.22,2.02,6.01-.65,1.08-.09,1.71-.14,2.9-.19,1.9,6.15,8.88,3.31,6.1.24,2.77.47,1.98.56,2.03,1.34.18,2.87,4.36,2.71,4.51.04,2.61.6,3.92-3.37,1.22-4.34-.74-.26-1.04.47-.73-2.32,2.17,3.52,6.84-2.39,1.47-5.93.38-1.12.6-1.72.99-2.73,1.67,3.83,7.07-1.39,2.3-5.59.64-1.49.48-1.12.81-1.87,1.66,3.24,6.75-1.43,2.53-5.69.29-.66.59-1.32.89-2,.53,1,1.35,1.26,2.13,1.01-.03-.81-.55-1.5-1.67-1.66.53-.51,1.06-1.01,1.58-1.51,5.45,2.52,8.11-3.85,4.5-4.31.6-.57.3-.29,1.49-1.4,5.57,3.06,8.65-3.78,4.48-4.06.82-.71,1.3-1.12,2.23-1.86,5.15,3.86,9.13-2.54,5.08-3.39,2.52-1.25,1.93-.71,2.43-.1,1.83,2.22,5.12-.37,3.67-2.62,2.46-1.04,1.19-5.03-1.57-4.23-.75.22-.57,1-1.95-1.45,3.83,1.57,4.13-5.95-2.3-5.66-.35-1.13-.52-1.74-.8-2.79,3.6,2.11,4.9-5.28-1.43-5.88-.36-1.58-.27-1.19-.45-1.99,3.25,1.65,4.62-5.12-1.3-6.1-.15-.71-.3-1.41-.46-2.14,1.01.5,1.83.22,2.31-.43-.5-.64-1.33-.89-2.33-.36.13-.73.26-1.44.39-2.15,5.89-1.16,4.29-7.88,1.1-6.13.15-.81.07-.41.38-2.01,6.31-.8,4.77-8.15,1.24-5.92.25-1.06.39-1.67.71-2.81,6.43.09,5.89-7.42,2.11-5.73,1.31-2.49,1.15-1.71,1.9-1.51,2.79.72,3.93-3.31,1.43-4.27,1.38-2.29-1.99-4.77-3.75-2.5-.48.62.13,1.14-2.43-.03,4.02-.98-.16-7.25-5.18-3.23-.95-.71-1.44-1.1-2.29-1.79,4.16-.41.86-7.15-4.61-3.91-1.22-1.07-.92-.8-1.53-1.35,3.59-.58.73-6.86-4.63-4.17-.54-.48-1.07-.97-1.62-1.46,1.12-.19,1.61-.9,1.62-1.71-.78-.22-1.6.06-2.09,1.08-.32-.67-.64-1.32-.95-1.97,4.08-4.4-1.16-8.9-2.71-5.61-.36-.74-.18-.38-.87-1.85,4.64-4.35-.93-9.4-2.48-5.52-.42-1-.66-1.58-1.08-2.7,5.26-3.71.4-9.46-1.66-5.88-.41-2.78-.07-2.05.65-2.34,2.67-1.06,1.23-4.98-1.35-4.3-.23-2.67-4.41-2.69-4.5.18-.02.78.77.85-1.98,1.41,2.68-3.15-4.39-5.77-6.09.44-1.19-.01-1.82-.04-2.9-.1,3.12-2.77-3.51-6.29-6.03-.46-1.61-.15-1.21-.11-2.03-.19,2.57-2.58-3.44-5.98-6.2-.65-.72-.07-1.44-.15-2.17-.23.79-.81.78-1.67.3-2.33-.76.28-1.26.99-1.06,2.1-.65-.35-1.29-.69-1.93-1.03.71-5.96-6.17-6.52-5.49-2.94-.73-.39-.37-.2-1.79-.98,1.19-6.25-6.27-7.06-5.25-3.01-.93-.56-1.47-.89-2.46-1.55,2.08-6.09-5.24-7.89-4.79-3.78-1.96-2.01-1.27-1.62-.85-2.28,1.54-2.43-1.93-4.76-3.62-2.68-1.75-2.02-5.15.42-3.53,2.8.44.65,1.12.23-.78,2.3.31-4.13-6.94-2.09-4.67,3.93-.97.69-1.5,1.03-2.41,1.63.9-4.08-6.54-3.03-5.15,3.17-1.39.83-1.04.63-1.76,1.04.56-3.6-6.3-2.81-5.4,3.12-.62.36-1.25.72-1.89,1.09.17-1.12-.35-1.81-1.13-2.07-.45.68-.44,1.54.38,2.32-.73.1-1.45.2-2.16.3-2.93-5.24-8.82-1.65-6.17.85-.82.11-.42.06-2.03.26-2.71-5.75-9.22-2.02-6.01.65-1.08.09-1.71.14-2.9.19-1.9-6.15-8.88-3.31-6.1-.24-2.77-.47-1.98-.56-2.03-1.34-.18-2.87-4.36-2.71-4.51-.04-2.61-.6-3.92,3.37-1.22,4.34.74.26,1.04-.47.73,2.32-2.17-3.52-6.84,2.39-1.47,5.93-.38,1.12-.6,1.72-.99,2.73-1.67-3.83-7.07,1.39-2.3,5.59-.64,1.49-.48,1.12-.81,1.87-1.66-3.24-6.75,1.43-2.53,5.69-.29.66-.59,1.32-.89,2-.53-1-1.35-1.26-2.13-1.01.03.81.55,1.5,1.67,1.66-.53.51-1.06,1.01-1.58,1.51-5.45-2.52-8.11,3.85-4.5,4.31-.6.57-.3.29-1.49,1.4-5.57-3.06-8.65,3.78-4.48,4.06-.82.71-1.3,1.12-2.23,1.86-5.15-3.86-9.13,2.54-5.08,3.39-2.52,1.25-1.93.71-2.43.1-1.83-2.22-5.12.37-3.67,2.62-2.46,1.04-1.19,5.03,1.57,4.23.75-.22.57-1,1.95,1.45-3.83-1.57-4.13,5.95,2.3,5.66.35,1.13.52,1.74.8,2.79-3.6-2.11-4.9,5.28,1.43,5.88.36,1.58.27,1.19.45,1.99-3.25-1.65-4.62,5.12,1.3,6.1.15.71.3,1.41.46,2.14-1.01-.5-1.83-.22-2.31.43.5.64,1.33.89,2.33.36-.13.73-.26,1.44-.39,2.15-5.89,1.16-4.29,7.88-1.1,6.13-.15.81-.07.41-.38,2.01-6.31.8-4.77,8.15-1.24,5.92-.25,1.06-.39,1.67-.71,2.81-6.43-.09-5.89,7.42-2.11,5.73-1.31,2.49-1.15,1.71-1.9,1.51-2.79-.72-3.93,3.31-1.43,4.27-1.38,2.29,1.99,4.77,3.75,2.5.48-.62-.13-1.14,2.43.03-4.02.98.16,7.25,5.18,3.23.95.71,1.44,1.1,2.29,1.79-4.16.41-.86,7.15,4.61,3.91,1.22,1.07.92.8,1.53,1.35-3.59.58-.73,6.86,4.63,4.17.54.48,1.07.97,1.62,1.46-1.12.19-1.61.9-1.62,1.71.78.22,1.6-.06,2.09-1.08.32.67.64,1.32.95,1.97-4.08,4.4,1.16,8.9,2.71,5.61.36.74.18.38.87,1.85-4.64,4.35.93,9.4,2.48,5.52.42,1,.66,1.58,1.08,2.7-5.26,3.71-.4,9.46,1.66,5.88.41,2.78.07,2.05-.65,2.34-2.67,1.06-1.23,4.98,1.35,4.3Zm38.55-20.68c-1.75-8.03.97-16.28,5.6-18.23,2.74,4.21.35,12.57-5.6,18.23Zm39.32-.63c-6.13-5.47-8.78-13.75-6.18-18.04,4.69,1.8,7.67,9.96,6.18,18.04Zm31.44-23.62c-8.17-.82-15.19-5.96-15.61-10.96,4.85-1.3,12.06,3.55,15.61,10.96Zm11.55-37.59c-7.09,4.14-15.79,4.11-19.07.31,3.16-3.9,11.85-4.22,19.07-.31Zm-12.75-37.2c-3.31,7.52-10.36,12.6-15.25,11.46.26-5.01,7.1-10.37,15.25-11.46Zm-32.18-22.6c1.75,8.03-.97,16.28-5.6,18.23-2.74-4.21-.35-12.57,5.6-18.23Zm-39.32.63c6.13,5.47,8.78,13.75,6.18,18.04-4.69-1.8-7.67-9.96-6.18-18.04Zm-31.44,23.62c8.17.82,15.19,5.96,15.61,10.96-4.85,1.3-12.06-3.55-15.61-10.96Zm-11.55,37.59c7.1-4.14,15.79-4.11,19.07-.31-3.16,3.9-11.85,4.22-19.07.31Zm12.75,37.2c3.31-7.52,10.36-12.6,15.25-11.46-.26,5.01-7.11,10.37-15.25,11.46Zm37.81,4.29c-1.49.1-10.17.92-6.81,6.09-2.15.13-4.43,4.1-.19,6.12-4.9.57-5.14,6.03-.61,7.15-3.27,1.25-2.97,5.1-.34,6.51,2.97.31,5.38-2.7,3.38-5.57,4.37,1.62,7.25-3.04,3.51-6.26,4.64.71,4.99-3.85,3.28-5.17,5.68-2.39-1.04-7.94-2.22-8.87Zm27.49-.44c-1.15.96-7.69,6.72-1.93,8.93-1.67,1.37-1.17,5.92,3.44,5.06-3.63,3.34-.61,7.9,3.71,6.14-1.91,2.93.6,5.87,3.55,5.46,2.59-1.49,2.77-5.35-.54-6.49,4.49-1.26,4.08-6.72-.84-7.12,4.17-2.15,1.77-6.05-.38-6.11,3.19-5.28-5.51-5.82-7-5.87Zm21.98-16.51c-.37,1.45-2.27,9.96,3.69,8.36-.54,2.09,2.53,5.48,5.76,2.07-.98,4.84,4.15,6.75,6.61,2.79.17,3.5,3.93,4.4,6.08,2.33,1.22-2.73-.91-5.95-4.26-4.93,2.89-3.66-.65-7.83-4.87-5.27,2.11-4.19-2.12-5.94-3.9-4.72-.52-6.15-7.87-1.47-9.12-.63Zm8.07-26.28c.56,1.39,4.02,9.39,7.9,4.6.79,2.01,5.27,2.94,5.88-1.71,2.05,4.49,7.32,3.02,6.99-1.63,2.2,2.73,5.77,1.25,6.29-1.69-.62-2.92-4.23-4.28-6.34-1.49.19-4.66-5.13-5.96-7.04-1.4-.76-4.63-5.2-3.56-5.93-1.52-4.03-4.67-7.23,3.44-7.75,4.85Zm-8.91-26c1.27.8,8.77,5.24,9.09-.92,1.82,1.16,5.99-.71,3.75-4.84,4.3,2.42,7.7-1.86,4.7-5.42,3.38.91,5.4-2.38,4.1-5.07-2.22-2-5.94-.98-6.01,2.52-2.59-3.88-7.65-1.8-6.52,3-3.34-3.3-6.3.18-5.69,2.25-6-1.4-3.83,7.04-3.42,8.48Zm-22.49-15.8c1.49-.1,10.17-.92,6.81-6.09,2.15-.13,4.43-4.1.19-6.12,4.9-.57,5.14-6.03.61-7.15,3.27-1.25,2.97-5.1.34-6.51-2.97-.32-5.38,2.7-3.38,5.57-4.37-1.62-7.25,3.04-3.51,6.26-4.64-.71-4.99,3.85-3.28,5.17-5.68,2.39,1.04,7.94,2.22,8.87Zm-27.48.44c1.15-.96,7.69-6.72,1.93-8.93,1.67-1.37,1.17-5.92-3.44-5.06,3.63-3.34.61-7.9-3.71-6.14,1.91-2.93-.6-5.87-3.55-5.46-2.59,1.49-2.77,5.35.54,6.49-4.49,1.26-4.08,6.72.84,7.12-4.17,2.15-1.77,6.05.38,6.11-3.19,5.28,5.51,5.82,7,5.87Zm-21.98,16.51c.37-1.45,2.27-9.96-3.69-8.36.54-2.09-2.53-5.48-5.76-2.07.98-4.84-4.15-6.75-6.61-2.79-.17-3.5-3.93-4.4-6.08-2.33-1.22,2.73.91,5.95,4.26,4.93-2.89,3.66.65,7.83,4.87,5.27-2.11,4.19,2.12,5.94,3.9,4.72.52,6.15,7.87,1.47,9.12.63Zm-8.07,26.28c-.56-1.39-4.02-9.39-7.9-4.6-.79-2.01-5.27-2.94-5.88,1.71-2.05-4.49-7.32-3.02-6.99,1.63-2.2-2.73-5.77-1.25-6.29,1.69.62,2.92,4.23,4.28,6.34,1.49-.19,4.66,5.13,5.96,7.03,1.4.76,4.63,5.21,3.56,5.93,1.52,4.03,4.67,7.23-3.44,7.75-4.85Zm8.91,26c-1.27-.8-8.77-5.24-9.09.92-1.82-1.16-5.99.71-3.75,4.84-4.3-2.42-7.7,1.86-4.7,5.42-3.38-.91-5.4,2.38-4.1,5.07,2.22,2,5.94.98,6.01-2.52,2.59,3.88,7.65,1.8,6.52-3,3.34,3.3,6.3-.18,5.69-2.25,6,1.4,3.83-7.04,3.42-8.48Zm12.85,47.17c-5.16-6.58-10.44-17.85-2.36-31.52.38-.63-.44-2.88-2.69,1.72-.99-.8-1.99-.92-2.81-.59.03-.88-.41-1.78-1.5-2.44,3.57-3.69,1.17-3.69.71-3.12-10.12,12.24-22.5,11.1-30.45,8.48-.31-8.36,2.05-20.57,16.62-26.88.68-.29,1.34-2.59-3.19-.19-.33-1.23-1.07-1.91-1.93-2.12.54-.69.71-1.68.22-2.86,5.05-.89,3.12-2.29,2.41-2.11-15.38,3.96-24.73-4.24-29.62-11.04,4.66-6.94,13.75-15.44,29.25-11.98.72.16,2.61-1.31-2.47-2.03.46-1.19.26-2.18-.31-2.85.85-.24,1.57-.94,1.86-2.18,4.61,2.25,3.87-.02,3.18-.29-14.77-5.84-17.51-17.97-17.47-26.34,7.85-2.88,20.2-4.41,30.7,7.5.49.55,2.88.48-.81-3.09,1.07-.69,1.49-1.61,1.42-2.49.82.3,1.82.16,2.79-.68,2.4,4.53,3.14,2.26,2.75,1.64-8.52-13.4-3.61-24.83,1.34-31.58,8.05,2.29,18.93,8.3,20.43,24.11.07.73,2.05,2.08,1.17-2.98,1.27.07,2.15-.43,2.61-1.18.49.73,1.38,1.2,2.65,1.09-.72,5.08,1.22,3.67,1.26,2.94.99-15.85,11.68-22.21,19.65-24.76,5.16,6.58,10.44,17.85,2.36,31.52-.38.63.44,2.88,2.69-1.72.99.8,1.99.92,2.81.59-.03.88.41,1.78,1.5,2.44-3.57,3.69-1.17,3.69-.71,3.12,10.12-12.24,22.5-11.1,30.45-8.48.31,8.36-2.05,20.57-16.62,26.88-.68.29-1.34,2.59,3.19.19.33,1.23,1.07,1.91,1.93,2.12-.54.69-.71,1.68-.22,2.86-5.05.89-3.12,2.29-2.4,2.11,15.38-3.96,24.73,4.24,29.62,11.04-4.66,6.94-13.75,15.44-29.25,11.98-.72-.16-2.61,1.31,2.47,2.03-.46,1.19-.26,2.18.31,2.85-.84.24-1.57.94-1.86,2.18-4.61-2.25-3.87.02-3.18.29,14.77,5.84,17.51,17.97,17.47,26.34-7.85,2.88-20.2,4.41-30.7-7.5-.48-.55-2.88-.48.81,3.09-1.07.69-1.49,1.61-1.42,2.49-.82-.3-1.82-.16-2.79.68-2.4-4.53-3.14-2.26-2.75-1.64,8.52,13.4,3.61,24.83-1.34,31.58-8.05-2.29-18.93-8.3-20.43-24.11-.07-.73-2.05-2.08-1.17,2.98-1.27-.07-2.15.43-2.61,1.18-.49-.73-1.38-1.2-2.65-1.09.72-5.08-1.22-3.67-1.26-2.94-.99,15.85-11.68,22.21-19.65,24.76Zm-9.61-27.87c-.16,1.37.44,3.01,2.28,4.33-.12.49-.23.97-.32,1.45-4.13-1.65-5.9,4.79-.36,6.64.04.57.1,1.14.18,1.7-4.43-.4-4.28,6.41,1.77,6.49.15.37.3.73.46,1.09-4.72.48-2.53,6.88,3.25,5.62.2.29.4.56.61.83-2.7,1-2.13,3.83.14,4.92,2.5.37,4.55-1.65,2.88-3.99.32-.11.64-.23.97-.35,4.08,4.28,9.48.22,5.85-2.83.33-.2.66-.42.99-.64,5.05,3.33,9.01-2.22,5.11-4.38.38-.42.75-.85,1.11-1.3,5.62,1.58,7.78-4.74,3.43-5.69.19-.45.37-.91.55-1.38,2.26-.05,3.68-1.08,4.31-2.3.67,1.2,2.12,2.18,4.38,2.16.19.46.38.92.59,1.36-4.31,1.09-1.96,7.34,3.61,5.58.37.44.75.86,1.15,1.27-3.82,2.28.31,7.7,5.25,4.21.34.21.67.41,1.01.61-3.54,3.16,1.99,7.05,5.93,2.64.33.11.66.22.98.32-1.59,2.4.53,4.35,3.01,3.9,2.24-1.17,2.71-4.01-.02-4.93.19-.28.39-.56.58-.85,5.82,1.07,7.8-5.4,3.07-5.72.15-.36.29-.73.43-1.1,6.05-.27,5.98-7.09,1.56-6.55.06-.56.1-1.13.13-1.7,5.48-2.03,3.5-8.4-.57-6.62-.1-.48-.23-.96-.37-1.44,1.8-1.37,2.34-3.04,2.14-4.4,1.25.57,3,.52,4.82-.83.43.26.85.52,1.28.75-2.85,3.42,2.73,7.09,6.2,2.39.56.14,1.12.25,1.67.35-1.75,4.09,4.78,6.05,6.72.32.4-.03.79-.06,1.18-.11-1.01,4.63,5.76,4.53,6.35-1.35.33-.1.66-.21.98-.32.12,2.87,2.98,3.21,4.73,1.39,1.12-2.26-.16-4.84-2.91-3.98,0-.34-.02-.68-.03-1.03,5.34-2.56,3.14-8.95-.88-6.43-.09-.38-.19-.76-.3-1.14,4.73-3.78.67-9.25-2.58-6.22-.28-.49-.58-.97-.9-1.45,3.24-4.86-2.11-8.86-4.35-5.02-.36-.32-.75-.64-1.14-.95.65-2.17.11-3.83-.86-4.81,1.35-.27,2.73-1.35,3.41-3.5.5-.04,1-.08,1.48-.14-.29,4.44,6.37,4.13,6.42-1.71.53-.22,1.05-.45,1.56-.7.99,4.34,7.42,2.09,5.63-3.69.3-.26.6-.51.89-.78,1.91,4.34,7.32.28,4.34-4.83.21-.28.41-.56.61-.84,1.79,2.26,4.3.84,4.64-1.66-.42-2.49-2.98-3.82-4.69-1.51-.2-.27-.42-.54-.63-.82,2.81-5.21-2.72-9.09-4.5-4.69-.3-.25-.6-.5-.91-.75,1.61-5.83-4.89-7.88-5.74-3.51-.51-.23-1.04-.45-1.58-.65-.24-5.84-6.91-5.93-6.47-1.5-.48-.05-.98-.07-1.48-.1-.75-2.13-2.16-3.16-3.52-3.39.93-1.01,1.42-2.69.7-4.84.38-.32.76-.65,1.11-.99,2.37,3.77,7.59-.4,4.19-5.16.3-.49.59-.98.85-1.48,3.35,2.93,7.23-2.67,2.38-6.3.09-.38.18-.77.26-1.15,4.1,2.39,6.09-4.07.68-6.46,0-.35,0-.69,0-1.03,2.77.77,3.97-1.85,2.78-4.07-1.8-1.77-4.65-1.34-4.68,1.54-.32-.1-.66-.19-.99-.29-.78-5.87-7.55-5.75-6.39-1.15-.39-.03-.78-.05-1.18-.07-2.13-5.67-8.59-3.5-6.71.54-.55.11-1.11.25-1.66.4-3.62-4.58-9.08-.74-6.12,2.59-.42.25-.84.52-1.26.79-1.86-1.29-3.61-1.29-4.84-.67.16-1.37-.44-3.01-2.28-4.33.12-.49.23-.97.32-1.45,4.13,1.65,5.9-4.79.36-6.64-.04-.57-.1-1.14-.18-1.7,4.43.4,4.28-6.41-1.77-6.49-.15-.37-.3-.73-.46-1.09,4.72-.48,2.53-6.88-3.25-5.62-.2-.29-.4-.56-.61-.83,2.7-1,2.13-3.83-.14-4.92-2.5-.37-4.55,1.65-2.88,3.99-.32.11-.64.23-.97.35-4.08-4.28-9.48-.22-5.85,2.83-.33.2-.66.42-.99.64-5.05-3.33-9.01,2.22-5.11,4.38-.38.42-.75.85-1.11,1.3-5.62-1.58-7.78,4.74-3.43,5.69-.19.45-.37.91-.55,1.38-2.26.05-3.68,1.08-4.31,2.3-.67-1.2-2.12-2.18-4.38-2.16-.19-.46-.38-.92-.59-1.36,4.31-1.09,1.96-7.34-3.61-5.58-.37-.44-.75-.86-1.15-1.27,3.82-2.28-.31-7.7-5.25-4.21-.34-.21-.67-.41-1.01-.61,3.54-3.16-1.99-7.05-5.93-2.64-.33-.11-.66-.22-.98-.32,1.59-2.4-.53-4.35-3.01-3.9-2.24,1.17-2.71,4.01.02,4.93-.19.28-.39.56-.58.85-5.82-1.07-7.8,5.4-3.07,5.72-.15.36-.29.73-.43,1.1-6.05.27-5.98,7.09-1.56,6.55-.06.56-.1,1.13-.13,1.7-5.48,2.03-3.5,8.4.57,6.62.1.48.23.96.37,1.44-1.8,1.37-2.34,3.04-2.14,4.4-1.25-.57-3-.52-4.82.83-.43-.26-.85-.52-1.28-.75,2.85-3.42-2.73-7.09-6.2-2.39-.56-.14-1.12-.25-1.67-.35,1.75-4.09-4.78-6.05-6.72-.32-.4.03-.79.06-1.18.11,1.01-4.63-5.76-4.53-6.35,1.35-.33.1-.66.21-.98.32-.12-2.87-2.98-3.21-4.73-1.39-1.12,2.26.16,4.84,2.91,3.98,0,.34.02.68.03,1.03-5.34,2.56-3.14,8.95.88,6.43.09.38.19.76.3,1.14-4.73,3.78-.67,9.25,2.58,6.22.28.49.58.97.9,1.45-3.24,4.86,2.11,8.86,4.35,5.02.36.32.75.64,1.14.95-.65,2.17-.11,3.83.86,4.81-1.35.27-2.73,1.35-3.41,3.5-.5.04-1,.08-1.48.14.29-4.44-6.37-4.13-6.42,1.71-.53.22-1.05.45-1.56.7-.99-4.34-7.42-2.09-5.63,3.69-.3.26-.6.51-.89.78-1.91-4.34-7.32-.28-4.34,4.83-.21.28-.41.56-.61.84-1.79-2.26-4.3-.84-4.64,1.66.42,2.49,2.98,3.82,4.69,1.51.2.27.42.54.63.82-2.81,5.21,2.72,9.09,4.5,4.69.3.25.6.5.91.75-1.61,5.83,4.89,7.88,5.74,3.51.51.23,1.04.45,1.58.65.24,5.84,6.91,5.93,6.47,1.5.48.05.98.07,1.48.1.75,2.13,2.16,3.16,3.52,3.39-.93,1.01-1.42,2.69-.7,4.84-.38.32-.76.65-1.11.99-2.37-3.77-7.59.4-4.19,5.16-.3.49-.59.98-.85,1.48-3.35-2.93-7.23,2.67-2.38,6.3-.09.38-.18.77-.26,1.15-4.1-2.39-6.09,4.07-.68,6.46,0,.35,0,.69,0,1.03-2.77-.77-3.97,1.85-2.78,4.07,1.8,1.77,4.65,1.34,4.68-1.54.32.1.65.19.99.29.78,5.87,7.55,5.75,6.39,1.15.39.03.78.05,1.18.07,2.13,5.67,8.59,3.5,6.71-.54.55-.11,1.11-.25,1.66-.4,3.62,4.58,9.08.74,6.12-2.59.42-.25.84-.52,1.26-.79,1.86,1.29,3.61,1.29,4.84.67Z"/>
        <path class="cls-2" d="m58.06,220.13c6.21,1.48,15.86-1.49,16.77-5.64,0,0-6.49,5.63-13.93,1.59-6.33-5.63-3.23-13.64-3.23-13.64-3.6,2.27-3.11,12.35.38,17.69Z"/>
        <path class="cls-2" d="m16.37,164.65c4.16,4.85,13.7,8.12,16.89,5.29,0,0-8.56.75-12.2-6.9-1.81-8.27,5.41-12.93,5.41-12.93-4.25-.28-9.78,8.16-10.09,14.54Z"/>
        <path class="cls-2" d="m15.26,95.26c.52,6.37,6.31,14.62,10.55,14.21,0,0-7.36-4.43-5.82-12.75,3.4-7.76,11.98-7.29,11.98-7.29-3.27-2.72-12.71.86-16.71,5.83Z"/>
        <path class="cls-2" d="m55.15,38.46c-3.32,5.45-3.49,15.54.18,17.7,0,0-3.35-7.91,2.79-13.74,7.31-4.28,13.97,1.14,13.97,1.14-1.05-4.12-10.78-6.78-16.95-5.1Z"/>
        <path class="cls-2" d="m120.8,15.96c-5.89,2.46-11.95,10.52-10.25,14.42,0,0,1.94-8.37,10.33-9.47,8.43.83,10.63,9.14,10.63,9.14,1.58-3.95-4.74-11.82-10.71-14.09Z"/>
        <path class="cls-2" d="m187.14,36.34c-6.21-1.48-15.86,1.49-16.77,5.64,0,0,6.49-5.63,13.93-1.59,6.33,5.63,3.23,13.64,3.23,13.64,3.6-2.27,3.11-12.35-.38-17.69Z"/>
        <path class="cls-2" d="m228.83,91.83c-4.16-4.85-13.7-8.12-16.89-5.29,0,0,8.56-.75,12.2,6.9,1.81,8.27-5.41,12.93-5.41,12.93,4.25.28,9.78-8.16,10.09-14.54Z"/>
        <path class="cls-2" d="m229.94,161.22c-.52-6.37-6.31-14.62-10.55-14.21,0,0,7.36,4.43,5.82,12.75-3.4,7.76-11.98,7.29-11.98,7.29,3.27,2.72,12.7-.86,16.71-5.83Z"/>
        <path class="cls-2" d="m190.05,218.02c3.32-5.45,3.49-15.54-.18-17.7,0,0,3.35,7.91-2.79,13.74-7.31,4.28-13.97-1.14-13.97-1.14,1.05,4.12,10.78,6.78,16.95,5.1Z"/>
        <path class="cls-2" d="m124.4,240.52c5.89-2.46,11.95-10.52,10.25-14.42,0,0-1.94,8.37-10.33,9.47-8.43-.83-10.63-9.14-10.63-9.14-1.58,3.95,4.74,11.82,10.71,14.09Z"/>
        <path class="cls-2" d="m70.33,202.66c1.78,1.67,5.72.76,8.83-5.56,2.85-5.78,7.12-6.88,7.12-6.88-2.61-.61-5-.58-7.32.14-.11-2.42-.89-4.68-2.35-6.93,0,0,.41,4.39-4.06,9.03-4.88,5.07-4.41,9.09-2.23,10.19Z"/>
        <path class="cls-2" d="m36.57,157.72c.45,2.4,4.18,3.97,10.41.7,5.7-3,9.8-1.38,9.8-1.38-1.76-2.03-3.71-3.41-6-4.18,1.34-2.02,2.03-4.31,2.17-6.99,0,0-2.25,3.79-8.59,4.92-6.93,1.23-8.91,4.77-7.8,6.94Z"/>
        <path class="cls-2" d="m35.67,101.53c-1.04,2.21,1.05,5.67,8.01,6.68,6.37.92,8.74,4.64,8.74,4.64-.23-2.67-1-4.94-2.4-6.91,2.27-.85,4.18-2.29,5.87-4.37,0,0-4.05,1.74-9.84-1.07-6.33-3.08-10.01-1.38-10.38,1.03Z"/>
        <path class="cls-2" d="m67.97,55.54c-2.14,1.17-2.49,5.21,2.56,10.12,4.61,4.49,4.35,8.9,4.35,8.9,1.38-2.3,2.1-4.58,2.12-7,2.33.65,4.73.6,7.32-.09,0,0-4.3-.97-7.33-6.65-3.31-6.21-7.28-7-9.01-5.27Z"/>
        <path class="cls-2" d="m121.14,37.31c-2.42-.31-5.07,2.75-3.88,9.69,1.09,6.35-1.71,9.75-1.71,9.75,2.47-1.04,4.39-2.47,5.83-4.42,1.51,1.9,3.47,3.26,5.97,4.23,0,0-2.91-3.31-2.02-9.69.97-6.97-1.78-9.94-4.19-9.56Z"/>
        <path class="cls-2" d="m174.86,53.82c-1.78-1.67-5.72-.75-8.83,5.56-2.85,5.78-7.12,6.88-7.12,6.88,2.61.61,5,.58,7.32-.14.11,2.42.89,4.68,2.35,6.93,0,0-.41-4.39,4.06-9.03,4.88-5.07,4.41-9.09,2.23-10.19Z"/>
        <path class="cls-2" d="m208.62,98.76c-.45-2.4-4.18-3.97-10.41-.7-5.7,3-9.8,1.38-9.8,1.38,1.76,2.03,3.71,3.41,6,4.18-1.34,2.02-2.03,4.31-2.17,6.99,0,0,2.25-3.79,8.59-4.92,6.93-1.23,8.91-4.77,7.8-6.94Z"/>
        <path class="cls-2" d="m209.52,154.95c1.04-2.21-1.05-5.67-8.01-6.68-6.37-.92-8.75-4.64-8.75-4.64.23,2.67,1,4.94,2.4,6.91-2.27.85-4.18,2.29-5.87,4.37,0,0,4.05-1.74,9.84,1.07,6.33,3.08,10.01,1.38,10.38-1.03Z"/>
        <path class="cls-2" d="m177.22,200.94c2.14-1.17,2.49-5.21-2.55-10.12-4.61-4.49-4.35-8.9-4.35-8.9-1.38,2.3-2.09,4.58-2.12,7-2.33-.65-4.73-.6-7.32.09,0,0,4.3.97,7.33,6.65,3.31,6.21,7.29,7,9.01,5.27Z"/>
        <path class="cls-2" d="m124.06,219.17c2.42.31,5.07-2.75,3.88-9.69-1.09-6.35,1.71-9.75,1.71-9.75-2.47,1.04-4.39,2.47-5.83,4.42-1.51-1.9-3.47-3.26-5.97-4.23,0,0,2.91,3.31,2.02,9.69-.97,6.97,1.78,9.94,4.19,9.56Z"/>
        <path class="cls-2" d="m85.33,199.74c1.08-4.26,3.76-5.61,3.76-5.61-3.17-.05-5.63,1.07-7.82,3.68-5.68,6.78,1.74,11.07,4.05,1.92Z"/>
        <path class="cls-2" d="m134.48,207.99c-1.63-4.08-.25-6.75-.25-6.75-2.6,1.82-3.92,4.17-4.16,7.57-.61,8.82,7.92,7.93,4.41-.83Z"/>
        <path class="cls-2" d="m179.08,185.78c-3.72-2.34-4.17-5.31-4.17-5.31-1.03,3-.72,5.68,1.09,8.57,4.69,7.5,11.07,1.76,3.08-3.26Z"/>
        <path class="cls-2" d="m202.11,141.59c-4.38.29-6.49-1.85-6.49-1.85.93,3.03,2.76,5.02,5.92,6.3,8.2,3.31,9.99-5.08.58-4.45Z"/>
        <path class="cls-2" d="m194.77,92.3c-3.37,2.81-6.34,2.32-6.34,2.32,2.53,1.91,5.18,2.44,8.49,1.62,8.58-2.15,5.1-9.98-2.15-3.94Z"/>
        <path class="cls-2" d="m159.86,56.74c-1.08,4.26-3.76,5.61-3.76,5.61,3.17.05,5.63-1.07,7.82-3.68,5.68-6.78-1.74-11.07-4.05-1.92Z"/>
        <path class="cls-2" d="m110.72,48.49c1.63,4.08.25,6.75.25,6.75,2.6-1.82,3.92-4.17,4.16-7.57.61-8.82-7.92-7.93-4.41.83Z"/>
        <path class="cls-2" d="m66.11,70.7c3.72,2.34,4.17,5.31,4.17,5.31,1.03-3,.72-5.68-1.09-8.57-4.69-7.5-11.07-1.76-3.08,3.26Z"/>
        <path class="cls-2" d="m43.08,114.89c4.38-.29,6.49,1.85,6.49,1.85-.93-3.03-2.76-5.02-5.92-6.3-8.2-3.31-9.99,5.08-.58,4.45Z"/>
        <path class="cls-2" d="m50.42,164.18c3.37-2.81,6.34-2.32,6.34-2.32-2.53-1.91-5.18-2.44-8.49-1.62-8.58,2.15-5.1,9.98,2.15,3.94Z"/>
        <path class="cls-2" d="m67.99,187.56c3.64-2.46,4-5.44,4-5.44,1.13,2.96.9,5.66-.81,8.6-4.45,7.64-11.01,2.12-3.19-3.16Z"/>
        <path class="cls-2" d="m113.28,208.33c1.5-4.13.03-6.75.03-6.75,2.65,1.73,4.06,4.05,4.4,7.44.89,8.8-7.66,8.18-4.43-.68Z"/>
        <path class="cls-2" d="m162.14,198.51c-1.21-4.22-3.94-5.48-3.94-5.48,3.17-.16,5.66.89,7.93,3.43,5.9,6.59-1.39,11.12-3.99,2.05Z"/>
        <path class="cls-2" d="m195.89,161.85c-3.46-2.7-6.41-2.12-6.41-2.12,2.47-1.99,5.1-2.61,8.43-1.89,8.64,1.87,5.41,9.81-2.02,4.01Z"/>
        <path class="cls-2" d="m201.65,112.35c-4.39-.15-6.43,2.05-6.43,2.05.83-3.06,2.6-5.11,5.71-6.48,8.09-3.57,10.15,4.76.72,4.43Z"/>
        <path class="cls-2" d="m177.21,68.92c-3.64,2.46-4,5.44-4,5.44-1.13-2.96-.9-5.66.81-8.6,4.45-7.64,11.01-2.12,3.19,3.16Z"/>
        <path class="cls-2" d="m131.91,48.15c-1.5,4.13-.03,6.75-.03,6.75-2.65-1.73-4.06-4.05-4.4-7.44-.89-8.8,7.66-8.18,4.43.68Z"/>
        <path class="cls-2" d="m83.06,57.97c1.21,4.22,3.94,5.48,3.94,5.48-3.17.16-5.66-.89-7.93-3.43-5.9-6.59,1.39-11.12,3.99-2.05Z"/>
        <path class="cls-2" d="m49.31,94.63c3.46,2.7,6.41,2.12,6.41,2.12-2.47,1.99-5.1,2.61-8.43,1.89-8.64-1.87-5.41-9.81,2.02-4.01Z"/>
        <path class="cls-2" d="m43.55,144.13c4.39.15,6.43-2.05,6.43-2.05-.83,3.06-2.6,5.11-5.71,6.48-8.09,3.57-10.15-4.76-.72-4.43Z"/>
      </g>
      <g>
        <path class="cls-2" d="m79.78,142.92c-.18.78-.34,1.59-.47,2.43-.1.66-1.82,1.73-1.22-1.85-2.67-2.47-.66-2.67-.17-2.21.62.58,1.24,1.13,1.86,1.63Z"/>
        <path class="cls-2" d="m79.33,114.94c-.61.53-1.21,1.09-1.81,1.69-.47.48-2.49.33.1-2.22-.71-3.57,1.04-2.55,1.16-1.89.16.84.34,1.64.55,2.42Z"/>
        <path class="cls-2" d="m95.41,92.05c-.8.07-1.62.17-2.46.31-.66.11-2.21-1.19,1.38-1.74,1.52-3.3,2.34-1.45,2.05-.85-.36.77-.69,1.53-.98,2.28Z"/>
        <path class="cls-2" d="m121.87,82.98c-.69-.41-1.41-.81-2.17-1.2-.6-.3-1.09-2.27,2.14-.59,3.17-1.78,2.75.2,2.16.52-.75.41-1.46.83-2.13,1.27Z"/>
        <path class="cls-2" d="m148.61,91.2c-.31-.74-.66-1.49-1.05-2.24-.31-.6.45-2.47,2.08.78,3.61.43,2.1,1.78,1.44,1.69-.84-.11-1.67-.18-2.47-.23Z"/>
        <path class="cls-2" d="m165.42,113.56c.18-.78.34-1.59.47-2.43.1-.66,1.82-1.73,1.22,1.85,2.67,2.47.66,2.67.17,2.21-.62-.58-1.24-1.13-1.86-1.63Z"/>
        <path class="cls-2" d="m165.87,141.54c.61-.53,1.21-1.09,1.81-1.69.47-.48,2.49-.33-.1,2.22.71,3.57-1.04,2.55-1.16,1.89-.16-.84-.34-1.64-.55-2.42Z"/>
        <path class="cls-2" d="m149.79,164.43c.8-.07,1.62-.17,2.46-.31.66-.11,2.21,1.19-1.38,1.74-1.52,3.3-2.34,1.45-2.05.85.36-.77.69-1.53.98-2.28Z"/>
        <path class="cls-2" d="m123.32,173.5c.69.41,1.41.81,2.17,1.2.6.3,1.09,2.27-2.14.59-3.17,1.78-2.75-.2-2.16-.52.75-.41,1.46-.83,2.13-1.27Z"/>
        <path class="cls-2" d="m96.58,165.28c.31.74.66,1.49,1.05,2.24.31.6-.45,2.47-2.08-.78-3.61-.43-2.1-1.78-1.44-1.69.84.11,1.67.18,2.47.23Z"/>
        <path class="cls-2" d="m92.47,138.57c-4.1,4.91-5.71,10.93-3.66,14.45,0,0-7.96-7.16-1.54-9.18-.78-.72-.98-2.18-.45-3.34-1.13-.59-1.86-1.87-1.69-2.91-6.32,2.34-4.42-8.19-4.42-8.19.54,4.04,5.51,7.8,11.76,9.17Z"/>
        <path class="cls-2" d="m92.15,118.88c-6.2,1.57-11.05,5.49-11.46,9.54,0,0-2.24-10.47,4.15-8.33-.2-1.04.48-2.34,1.59-2.97-.57-1.14-.41-2.6.35-3.35-6.49-1.82,1.24-9.23,1.24-9.23-1.94,3.58-.13,9.55,4.12,14.33Z"/>
        <path class="cls-2" d="m103.47,102.78c-5.94-2.38-12.17-2.06-14.88.99,0,0,4.35-9.79,8.26-4.3.45-.96,1.77-1.61,3.03-1.46.21-1.26,1.2-2.34,2.25-2.51-4.18-5.28,6.43-6.73,6.43-6.73-3.68,1.76-5.72,7.65-5.09,14.02Z"/>
        <path class="cls-2" d="m122.09,96.39c-3.41-5.42-8.63-8.81-12.62-7.95,0,0,9.27-5.36,9.21,1.37.93-.51,2.38-.26,3.31.6.91-.89,2.35-1.19,3.29-.7-.28-6.73,9.16-1.67,9.16-1.67-4.01-.74-9.12,2.82-12.36,8.35Z"/>
        <path class="cls-2" d="m140.9,102.18c.43-6.38-1.8-12.21-5.54-13.85,0,0,10.65,1.11,6.64,6.52,1.05.13,2.08,1.18,2.33,2.43,1.26-.19,2.6.42,3.08,1.37,3.73-5.61,8.39,4.03,8.39,4.03-2.81-2.95-9.04-3.08-14.9-.51Z"/>
        <path class="cls-2" d="m152.73,117.91c4.1-4.91,5.71-10.94,3.66-14.45,0,0,7.96,7.16,1.54,9.18.78.72.98,2.18.45,3.34,1.13.59,1.86,1.87,1.69,2.91,6.32-2.34,4.42,8.19,4.42,8.19-.54-4.04-5.51-7.8-11.76-9.17Z"/>
        <path class="cls-2" d="m153.04,137.59c6.2-1.57,11.05-5.49,11.46-9.54,0,0,2.24,10.47-4.15,8.33.2,1.04-.48,2.34-1.59,2.97.57,1.14.4,2.6-.35,3.35,6.49,1.82-1.24,9.23-1.24,9.23,1.94-3.58.13-9.55-4.12-14.33Z"/>
        <path class="cls-2" d="m141.73,153.7c5.94,2.38,12.17,2.06,14.88-.99,0,0-4.35,9.79-8.26,4.3-.45.96-1.77,1.61-3.03,1.46-.21,1.26-1.2,2.34-2.25,2.51,4.18,5.28-6.43,6.73-6.43,6.73,3.68-1.76,5.72-7.65,5.09-14.02Z"/>
        <path class="cls-2" d="m123.11,160.08c3.41,5.42,8.63,8.81,12.62,7.95,0,0-9.27,5.36-9.21-1.37-.93.51-2.38.26-3.31-.6-.91.89-2.35,1.19-3.29.7.28,6.73-9.16,1.67-9.16,1.67,4.01.74,9.12-2.82,12.36-8.35Z"/>
        <path class="cls-2" d="m104.29,154.3c-.43,6.38,1.8,12.21,5.54,13.85,0,0-10.65-1.11-6.64-6.52-1.05-.13-2.08-1.18-2.33-2.43-1.26.19-2.6-.42-3.08-1.37-3.73,5.61-8.39-4.03-8.39-4.03,2.81,2.95,9.04,3.08,14.9.51Z"/>
        <path class="cls-2" d="m107.91,139.28c-2.38-.83-5.43-1.14-8.13,2.35-4.18,5.4,1.26,1.39,2.59,1.81.03,1.4-5.33,5.51,1.01,3,4.11-1.63,4.66-4.64,4.53-7.16Zm-13.63,10.24c-.03-.8-.02-1.65.05-2.55.68-9.62,8.12-14.34,18.69-11.52-.24,10.93-6.84,16.76-16.27,14.74-.89-.19-1.7-.41-2.46-.67Z"/>
        <path class="cls-2" d="m104.22,128.53c-1.44-2.07-3.72-4.11-7.96-2.88-6.55,1.91.2,1.86,1.04,2.99-.8,1.15-7.55,1.32-.94,3.02,4.28,1.1,6.5-1.01,7.87-3.13Zm-17.04.27c.44-.67.95-1.34,1.54-2.04,6.21-7.38,15-6.83,21.89,1.66-6.62,8.71-15.39,9.54-21.83,2.36-.6-.67-1.14-1.34-1.6-1.99Z"/>
        <path class="cls-2" d="m107.56,117.68c.05-2.52-.59-5.51-4.75-7.01-6.42-2.31-.93,1.62-.92,3.03-1.32.46-6.89-3.37-2.54,1.89,2.82,3.41,5.85,3,8.21,2.09Zm-13.95-9.8c.75-.28,1.56-.53,2.44-.75,9.36-2.32,16.15,3.29,16.73,14.21-10.47,3.16-18.05-1.33-19.05-10.92-.09-.9-.13-1.75-.13-2.55Z"/>
        <path class="cls-2" d="m116.64,110.85c1.53-2.01,2.76-4.81.27-8.46-3.84-5.64-1.71.77-2.52,1.91-1.34-.4-3.59-6.77-3.16.04.28,4.41,2.97,5.86,5.41,6.52Zm-5.53-16.13c.77.22,1.57.49,2.41.83,8.93,3.62,11.13,12.15,5.18,21.33-10.33-3.6-13.82-11.69-8.99-20.03.45-.78.92-1.49,1.4-2.14Z"/>
        <path class="cls-2" d="m128,110.67c2.42-.73,5.06-2.27,5.2-6.69.21-6.82-1.83-.38-3.16.06-.85-1.12,1.08-7.59-2.58-1.83-2.37,3.73-1.04,6.49.55,8.45Zm5.01-16.29c.49.63.98,1.32,1.46,2.09,5.1,8.18,1.86,16.37-8.34,20.31-6.24-8.98-4.31-17.58,4.5-21.49.83-.37,1.62-.67,2.38-.91Z"/>
        <path class="cls-2" d="m137.29,117.2c2.38.83,5.43,1.14,8.13-2.35,4.18-5.4-1.26-1.39-2.59-1.81-.03-1.4,5.33-5.51-1.01-3-4.11,1.63-4.66,4.64-4.53,7.16Zm13.63-10.24c.03.8.02,1.65-.05,2.55-.68,9.62-8.12,14.34-18.69,11.52.23-10.93,6.84-16.76,16.27-14.74.89.19,1.7.41,2.46.67Z"/>
        <path class="cls-2" d="m140.97,127.95c1.44,2.07,3.72,4.11,7.96,2.88,6.55-1.91-.2-1.86-1.04-2.99.8-1.15,7.55-1.32.94-3.02-4.28-1.1-6.5,1.01-7.87,3.13Zm17.04-.27c-.44.66-.95,1.34-1.54,2.04-6.21,7.38-15,6.83-21.89-1.66,6.62-8.71,15.39-9.54,21.83-2.36.6.67,1.14,1.34,1.6,1.99Z"/>
        <path class="cls-2" d="m137.64,138.8c-.05,2.52.59,5.51,4.75,7.01,6.42,2.31.93-1.62.92-3.03,1.32-.46,6.89,3.37,2.54-1.89-2.82-3.41-5.85-3-8.21-2.09Zm13.95,9.8c-.75.28-1.56.53-2.44.75-9.36,2.32-16.15-3.29-16.73-14.21,10.47-3.15,18.05,1.33,19.05,10.92.09.9.13,1.75.13,2.55Z"/>
        <path class="cls-2" d="m128.56,145.62c-1.53,2.01-2.76,4.81-.27,8.46,3.84,5.64,1.71-.77,2.52-1.91,1.34.4,3.59,6.77,3.16-.04-.28-4.41-2.97-5.86-5.41-6.52Zm5.53,16.13c-.77-.22-1.57-.49-2.41-.83-8.93-3.62-11.13-12.15-5.18-21.33,10.32,3.6,13.82,11.69,8.99,20.03-.45.78-.92,1.49-1.4,2.14Z"/>
        <path class="cls-2" d="m117.2,145.81c-2.42.73-5.06,2.27-5.2,6.69-.21,6.82,1.83.38,3.16-.06.85,1.12-1.08,7.59,2.58,1.83,2.37-3.73,1.04-6.49-.55-8.45Zm-5.01,16.29c-.49-.63-.98-1.32-1.46-2.09-5.1-8.18-1.86-16.37,8.34-20.31,6.24,8.98,4.31,17.58-4.5,21.49-.83.37-1.62.67-2.38.91Z"/>
        <path class="cls-2" d="m120.58,134.8c-1.19.29-2.3.65-3.34,1.07.04-1.12,0-2.29-.13-3.51-1.13-.46-2.24-.83-3.33-1.1.69-.88,1.35-1.85,1.96-2.91-.64-1.04-1.33-1.99-2.05-2.85,1.08-.31,2.18-.71,3.29-1.21.09-1.22.09-2.39.02-3.51,1.06.39,2.18.71,3.37.96.79-.93,1.48-1.88,2.07-2.83.63.93,1.35,1.86,2.16,2.76,1.19-.29,2.3-.65,3.34-1.07-.04,1.12,0,2.29.13,3.51,1.13.46,2.24.83,3.33,1.1-.69.88-1.35,1.85-1.96,2.91.64,1.04,1.33,1.99,2.05,2.85-1.08.31-2.18.71-3.29,1.21-.09,1.22-.09,2.39-.02,3.51-1.06-.39-2.18-.71-3.37-.96-.79.93-1.48,1.88-2.07,2.83-.63-.93-1.35-1.86-2.16-2.76Zm-1.76-1.18c.14.13.27.27.39.42-.09-.27-.14-.52-.16-.75-.23.06-.48.1-.76.1.18.07.36.14.53.23Zm3.88,1.19c.19.03.38.06.57.11-.23-.16-.42-.34-.57-.51-.15.18-.33.36-.56.53.19-.05.38-.1.56-.13Zm3.84-1.32c.17-.09.34-.17.52-.24-.28,0-.54-.03-.77-.08-.01.24-.06.49-.14.76.12-.15.25-.3.38-.43Zm2.33-3.32c.08-.17.18-.34.28-.5-.23.17-.45.29-.67.39.13.2.24.43.33.69,0-.2.03-.39.05-.57Zm-.06-4.06c-.03-.19-.06-.38-.07-.57-.08.27-.19.5-.31.7.22.08.45.2.68.36-.11-.16-.21-.33-.3-.5Zm-2.44-3.25c-.14-.13-.27-.27-.39-.42.09.27.14.52.16.75.23-.06.48-.1.76-.1-.18-.07-.36-.14-.53-.23Zm-3.88-1.19c-.19-.03-.38-.06-.57-.11.23.16.42.34.57.51.15-.18.33-.36.56-.53-.19.05-.38.1-.56.13Zm-3.84,1.32c-.17.09-.34.17-.52.24.28,0,.54.03.77.08.01-.24.06-.49.14-.76-.12.15-.25.3-.38.43Zm-2.33,3.32c-.08.17-.18.34-.28.5.23-.17.45-.29.67-.39-.13-.2-.24-.43-.33-.69,0,.2-.03.39-.05.57Zm.06,4.06c.03.19.06.38.07.57.08-.27.19-.5.31-.7-.22-.08-.45-.2-.68-.36.11.16.21.33.3.5Z"/>
      </g>
    </g>
  </g>
</svg>