<?xml version="1.0" encoding="UTF-8"?>
<svg id="Layer_2" data-name="Layer 2" xmlns="http://www.w3.org/2000/svg" xmlns:xlink="http://www.w3.org/1999/xlink" viewBox="0 0 179 184">
  <defs>
    <style>
      .cls-1 {
        fill: #b6ceb8;
      }

      .cls-2 {
        clip-path: url(#clippath);
      }

      .cls-3 {
        fill: none;
      }
    </style>
    <clipPath id="clippath">
      <path class="cls-3" d="m28.12,0h150.88v155.88c0,15.52-12.6,28.12-28.12,28.12H0V28.12C0,12.6,12.6,0,28.12,0Z"/>
    </clipPath>
  </defs>
  <g id="Layer_1-2" data-name="Layer 1">
    <g class="cls-2">
      <g>
        <g>
          <path class="cls-1" d="m14.75,84.84c-3.9-.56-7.41-.91-9.9.02-.85-.97-2.35-.28-2.25.94.15,1.7,2.72,1.48,2.57-.22-.02-.26.8-.4,1.05-.45,2.09-.45,5.04-.05,8.38.5,3.32.66,6.22,1.33,8.02,2.49.22.14.94.56.83.79-.74,1.54,1.59,2.66,2.33,1.12.53-1.11-.63-2.29-1.77-1.68-2-1.74-5.41-2.66-9.26-3.51Z"/>
          <path class="cls-1" d="m86.35,16.5c.67,3.88,1.43,7.33,3.08,9.41-.67,1.11.46,2.32,1.59,1.85,1.57-.67.57-3.05-1.01-2.38-.24.1-.62-.63-.75-.86-1.07-1.85-1.61-4.78-2.11-8.12-.4-3.36-.65-6.32-.11-8.39.06-.25.24-1.06.5-1.03,1.7.23,2.04-2.33.34-2.56-1.22-.16-1.98,1.31-1.05,2.2-1.04,2.44-.86,5.97-.48,9.89Z"/>
          <path class="cls-1" d="m79.57,53.69c-1.74,3.53-3.15,6.77-3.04,9.42-1.19.5-.99,2.15.2,2.43,1.67.38,2.25-2.13.58-2.52-.25-.06-.13-.88-.1-1.14.22-2.13,1.51-4.81,3.06-7.81,1.65-2.95,3.19-5.5,4.84-6.85.2-.17.82-.72,1.01-.54,1.24,1.18,3.02-.69,1.78-1.87-.89-.85-2.37-.1-2.14,1.17-2.28,1.37-4.21,4.32-6.2,7.72Z"/>
          <path class="cls-1" d="m52.22,79.8c-3.49,1.83-6.53,3.62-8,5.83-1.26-.29-2.07,1.16-1.26,2.08,1.12,1.29,3.07-.4,1.95-1.7-.17-.2.41-.79.59-.98,1.43-1.59,4.05-3.01,7.07-4.52,3.07-1.42,5.81-2.58,7.95-2.7.26-.02,1.09-.1,1.13.15.31,1.68,2.85,1.22,2.54-.46-.22-1.21-1.86-1.48-2.42-.32-2.64-.23-5.94,1.03-9.55,2.6Z"/>
          <path class="cls-1" d="m96.59,37.58c-.83-2.09-3.25-2.29-4.61-1.47-.25-.9-1.12-.9-.81.38,0,.04.02.07.02.11-.02.03-.04.06-.06.09-.75,1.08.07,1.4.62.64.98,1.24,3.32,1.91,4.83.25Z"/>
          <path class="cls-1" d="m75.46,76.77c.56-2.17-1.29-3.76-2.87-3.9.33-.87-.38-1.39-.88-.17-.01.03-.03.07-.04.1-.03.01-.07.03-.1.04-1.24.44-.76,1.17.13.88.06,1.58,1.57,3.5,3.76,3.04Z"/>
          <path class="cls-1" d="m35.34,96.05c1.73-1.43,1.17-3.8-.03-4.84.78-.51.51-1.35-.61-.65-.03.02-.06.04-.09.06-.04,0-.07-.02-.11-.03-1.26-.38-1.31.5-.42.79-.88,1.32-.79,3.75,1.25,4.68Z"/>
          <path class="cls-1" d="m81.87,17.1c-.09.27-.22.58-.38.93-1.31,2.78-2.47,3.45-.75,6.09.92,1.41,2.46,1.18,2.46,1.18,0,0-1.01,3.54,3.37,6.57,4.33,2.99,7.09.52,6.8.49-.11-.39-.78-.02-2.84-.95-4.54-2.18-5.49-7.86-6.53-14.59-.78-6.76-1.36-12.49,2.44-15.8,1.74-1.44,2.49-1.26,2.49-1.67.27-.11-3.04-1.76-6.43,2.27-3.43,4.08-1.51,7.23-1.51,7.23,0,0-1.55.19-2.06,1.79-.95,3,.34,3.34,2.34,5.68.25.29.45.56.62.79Z"/>
          <path class="cls-1" d="m75.59,51.55c-.23.16-.52.34-.85.52-2.69,1.48-4.03,1.34-4.19,4.49-.09,1.68,1.3,2.4,1.3,2.4,0,0-2.9,2.27-1.13,7.29,1.75,4.97,5.43,4.59,5.22,4.39.14-.38-.62-.48-1.74-2.44-2.39-4.43.18-9.59,3.29-15.64,3.35-5.93,6.25-10.91,11.26-11.35,2.26-.14,2.75.44,2.99.11.28.07-1.42-3.22-6.54-1.94-5.17,1.29-5.47,4.96-5.47,4.96,0,0-1.36-.76-2.72.24-2.53,1.86-1.69,2.9-1.45,5.97.03.38.04.72.03,1Z"/>
          <path class="cls-1" d="m50.26,75.72c-.29,0-.62-.03-1-.08-3.05-.39-4.05-1.28-6.03,1.17-1.06,1.31-.36,2.7-.36,2.7,0,0-3.68.13-5.21,5.23-1.51,5.05,1.7,6.9,1.64,6.62.34-.22-.22-.75.03-3,.67-4.99,5.78-7.65,11.86-10.72,6.19-2.83,11.46-5.15,15.78-2.56,1.91,1.21,1.97,1.98,2.36,1.85.18.22.74-3.44-4.15-5.41-4.94-2-7.34.79-7.34.79,0,0-.66-1.42-2.34-1.41-3.15.02-3.07,1.35-4.68,3.98-.2.33-.39.6-.56.83Z"/>
          <path class="cls-1" d="m15.56,80.39c-.23-.17-.48-.39-.76-.65-2.24-2.11-2.52-3.41-5.56-2.6-1.63.44-1.88,1.98-1.88,1.98,0,0-3.06-2.06-7.29,1.17-4.19,3.2-2.68,6.58-2.57,6.32.41.02.26-.74,1.78-2.41,3.48-3.64,9.17-2.79,15.89-1.7,6.67,1.35,12.3,2.57,14.27,7.2.83,2.1.43,2.76.82,2.88.02.29,2.62-2.35-.17-6.82-2.82-4.52-6.4-3.67-6.4-3.67,0,0,.3-1.53-1.07-2.51-2.56-1.83-3.28-.71-6.12.47-.36.15-.67.26-.94.34Z"/>
          <path class="cls-1" d="m17.35,70.62c-4.68.23-14.6.14-17.43,1.91-.08-3.34-5.6-11.57-7.98-15.61-3.92-2.57-11.9-8.47-15.23-8.7,1.9-2.74,2.27-12.65,2.72-17.32-1.67-4.38-4.65-13.84-7.2-15.99,3.15-1.1,9.28-8.9,12.38-12.42,1.23-4.53,4.38-13.93,3.57-17.17,3.2.96,12.74-1.75,17.32-2.77,3.66-2.94,11.73-8.7,12.98-11.79,2.02,2.65,11.33,6.07,15.63,7.94,4.68-.23,14.6-.14,17.43-1.91.08,3.34,5.6,11.57,7.98,15.61,3.93,2.57,11.9,8.47,15.23,8.7-1.9,2.74-2.27,12.65-2.72,17.32,1.67,4.38,4.65,13.84,7.2,15.99-3.15,1.1-9.28,8.9-12.38,12.42-1.23,4.53-4.38,13.93-3.57,17.17-3.2-.96-12.74,1.75-17.32,2.77-3.66,2.94-11.73,8.7-12.98,11.79-2.02-2.65-11.33-6.07-15.63-7.94Zm-18.17,3.28c.31,1.47,2.64,1.21,2.5-.4-.04-.44-.49-.42,1.01-.92-1.29,1.94,2.83,2.93,3.37-.64.66-.07,1.02-.1,1.62-.14-1.56,1.75,2.37,3.28,3.39-.14.91-.02.68-.02,1.15-.03-1.26,1.61,2.31,3.11,3.5-.05.41,0,.81-.01,1.23-.02-.39.5-.32.98-.01,1.32.41-.21.64-.63.45-1.24.39.15.76.3,1.14.45,0,3.37,3.87,3.23,3.26,1.28.43.17.22.09,1.06.43-.25,3.56,3.96,3.52,3.12,1.33.55.25.88.4,1.47.7-.76,3.53,3.44,4.06,2.92,1.79,1.23.99.81.82.62,1.21-.7,1.46,1.39,2.53,2.2,1.26,1.11,1.01,2.85-.57,1.79-1.79-.29-.33-.64-.05.28-1.34.1,2.32,4.01.71,2.35-2.5.49-.45.77-.67,1.23-1.07-.23,2.33,3.85,1.26,2.66-2.11.72-.55.54-.42.91-.7-.08,2.04,3.7,1.15,2.8-2.1.32-.24.65-.49.98-.73-.02.64.32.99.77,1.08.21-.41.14-.89-.36-1.27.4-.1.8-.21,1.19-.31,1.98,2.73,5.03.34,3.39-.88.45-.12.23-.06,1.11-.28,1.89,3.03,5.28.52,3.31-.76.6-.12.95-.19,1.6-.3,1.47,3.3,5.17,1.26,3.42-.27,1.58.08,1.14.18,1.22.62.29,1.59,2.61,1.22,2.52-.27,1.49.16,1.97-2.14.39-2.5-.43-.1-.55.33-.56-1.25,1.44,1.82,3.66-1.78.43-3.4.14-.65.22-1,.37-1.59,1.19,2.02,3.85-1.24.91-3.27.26-.87.19-.66.33-1.1,1.14,1.7,3.67-1.24,1.04-3.34.12-.39.24-.78.36-1.17.36.53.84.61,1.25.42-.07-.45-.41-.8-1.04-.81.26-.32.52-.63.78-.95,3.2,1.05,4.27-2.68,2.22-2.7.29-.36.15-.18.74-.88,3.31,1.34,4.57-2.68,2.23-2.56.41-.45.65-.71,1.12-1.18,3.13,1.81,4.92-2.02,2.61-2.23,1.32-.86,1.03-.52,1.35-.22,1.17,1.11,2.83-.54,1.87-1.7,1.3-.74.33-2.88-1.15-2.25-.4.17-.25.59-1.18-.68,2.24.62,1.91-3.59-1.65-3-.27-.61-.41-.94-.63-1.5,2.15.94,2.39-3.27-1.18-3.18-.3-.86-.23-.64-.38-1.08,1.92.7,2.24-3.16-1.13-3.31-.13-.38-.26-.77-.4-1.16.6.21,1.04,0,1.26-.39-.32-.32-.8-.41-1.32-.05.02-.41.05-.82.07-1.22,3.21-1.04,1.87-4.68.21-3.49.03-.46.01-.24.08-1.14,3.47-.86,2.12-4.86.3-3.38.07-.61.11-.96.21-1.62,3.59-.37,2.79-4.53.8-3.33.56-1.47.53-1.03.96-.97,1.6.22,1.97-2.1.52-2.48.62-1.37-1.42-2.53-2.26-1.15-.23.38.15.63-1.36.15,2.18-.81-.57-4.03-3.1-1.46-.58-.33-.88-.52-1.39-.84,2.29-.5,0-4.05-2.83-1.88-.75-.51-.56-.38-.94-.65,1.97-.56-.05-3.87-2.86-2.02-.33-.23-.66-.47-1-.71.61-.18.84-.61.79-1.06-.45-.07-.89.14-1.1.74-.22-.35-.44-.69-.66-1.03,1.98-2.72-1.23-4.89-1.88-2.95-.25-.39-.13-.2-.61-.97,2.3-2.73-1.14-5.18-1.74-2.91-.3-.53-.47-.84-.78-1.43,2.69-2.41-.4-5.31-1.31-3.17-.41-1.52-.18-1.14.21-1.35,1.42-.77.36-2.86-1.04-2.31-.31-1.47-2.64-1.21-2.5.4.04.44.49.42-1.01.92,1.29-1.94-2.83-2.93-3.37.64-.66.07-1.02.1-1.62.14,1.56-1.75-2.37-3.28-3.39.14-.91.03-.68.02-1.15.03,1.26-1.61-2.31-3.11-3.5.05-.41,0-.81.01-1.23.02.39-.5.32-.98.01-1.32-.41.21-.64.63-.45,1.24-.39-.15-.76-.3-1.14-.45,0-3.37-3.87-3.23-3.26-1.28-.43-.17-.22-.09-1.06-.43.25-3.56-3.96-3.52-3.12-1.33-.55-.25-.88-.4-1.47-.7.76-3.53-3.44-4.06-2.92-1.79-1.23-.99-.81-.82-.62-1.21.7-1.46-1.39-2.53-2.2-1.26-1.11-1.01-2.85.57-1.79,1.79.29.33.64.05-.28,1.34-.1-2.32-4.01-.71-2.35,2.5-.49.45-.77.68-1.23,1.07.23-2.34-3.85-1.26-2.66,2.11-.72.55-.54.42-.91.7.08-2.04-3.7-1.15-2.8,2.1-.32.24-.65.49-.98.73.02-.64-.32-.99-.77-1.08-.21.41-.14.89.36,1.27-.4.1-.8.21-1.19.31-1.98-2.73-5.03-.34-3.39.88-.45.12-.23.06-1.11.28-1.89-3.03-5.28-.52-3.31.76-.6.12-.95.19-1.6.3-1.47-3.3-5.17-1.26-3.42.27-1.58-.08-1.14-.18-1.22-.62-.29-1.59-2.61-1.22-2.52.27-1.49-.16-1.97,2.14-.39,2.5.43.1.55-.33.56,1.25-1.44-1.82-3.66,1.78-.43,3.4-.14.65-.22,1-.37,1.59-1.19-2.02-3.85,1.24-.91,3.27-.26.87-.19.66-.33,1.1-1.14-1.7-3.67,1.24-1.04,3.34-.12.39-.24.78-.36,1.17-.36-.53-.84-.61-1.25-.42.07.45.41.8,1.04.81-.26.32-.52.63-.78.95-3.2-1.04-4.27,2.68-2.22,2.7-.29.36-.15.18-.74.88-3.31-1.34-4.57,2.68-2.23,2.56-.41.45-.65.71-1.12,1.18-3.13-1.81-4.92,2.02-2.61,2.23-1.32.86-1.03.52-1.35.22-1.17-1.11-2.83.54-1.87,1.7-1.3.74-.33,2.88,1.15,2.25.4-.17.25-.59,1.18.68-2.24-.62-1.91,3.59,1.65,3,.27.61.41.94.63,1.5-2.15-.94-2.39,3.27,1.18,3.18.3.86.23.64.38,1.08-1.92-.7-2.24,3.16,1.13,3.31.13.38.26.77.39,1.16-.6-.21-1.04,0-1.26.39.32.32.8.41,1.32.05-.02.41-.05.82-.07,1.22-3.21,1.04-1.87,4.68-.21,3.49-.03.46-.01.24-.08,1.14-3.47.86-2.12,4.86-.3,3.38-.07.61-.11.96-.21,1.62-3.59.37-2.79,4.53-.8,3.33-.56,1.47-.53,1.03-.96.97-1.6-.22-1.97,2.1-.52,2.48-.62,1.37,1.42,2.53,2.26,1.15.23-.38-.15-.63,1.36-.15-2.18.81.57,4.03,3.1,1.46.58.33.88.52,1.39.84-2.29.5,0,4.05,2.83,1.88.75.51.57.38.94.65-1.97.56.05,3.87,2.86,2.02.33.23.66.47,1,.71-.61.18-.84.61-.79,1.06.45.07.89-.14,1.1-.74.22.35.44.69.66,1.03-1.98,2.72,1.23,4.89,1.88,2.95.25.39.13.2.61.97-2.3,2.73,1.14,5.18,1.74,2.91.3.53.47.84.78,1.43-2.69,2.41.4,5.31,1.31,3.17.41,1.52.18,1.14-.21,1.35-1.42.77-.36,2.86,1.04,2.31Zm20.14-14.08c-1.5-4.36-.53-9.15,1.92-10.54,1.8,2.17,1.02,6.99-1.92,10.54Zm21.89-2.95c-3.78-2.65-5.81-7.09-4.64-9.65,2.73.69,4.94,5.05,4.64,9.65Zm15.98-15.25c-4.61.08-8.86-2.32-9.43-5.08,2.62-1.05,6.96,1.18,9.43,5.08Zm3.96-21.73c-3.68,2.78-8.53,3.33-10.62,1.43,1.5-2.39,6.33-3.13,10.62-1.43ZM51.58-.01c-1.35,4.41-4.95,7.71-7.75,7.4-.19-2.81,3.28-6.26,7.75-7.4Zm-19.44-10.48c1.5,4.36.53,9.15-1.92,10.54-1.8-2.17-1.02-6.99,1.92-10.54Zm-21.89,2.95c3.78,2.65,5.81,7.09,4.64,9.65-2.73-.69-4.94-5.05-4.64-9.65ZM-5.73,7.7c4.61-.08,8.86,2.32,9.43,5.08-2.62,1.05-6.96-1.18-9.43-5.08Zm-3.96,21.73c3.68-2.78,8.53-3.33,10.62-1.43-1.5,2.39-6.33,3.13-10.62,1.43ZM-.13,49.34c1.35-4.41,4.95-7.71,7.75-7.4.19,2.81-3.28,6.26-7.75,7.4Zm21.37-.1c-.83.16-5.61,1.18-3.4,3.85-1.19.21-2.2,2.58.3,3.42-2.7.64-2.47,3.7.13,4.03-1.74.91-1.32,3.04.24,3.65,1.68-.02,2.82-1.86,1.52-3.33,2.55.61,3.84-2.17,1.54-3.72,2.63.09,2.53-2.48,1.49-3.1,3.01-1.71-1.1-4.36-1.82-4.8Zm15.3-2.06c-.58.61-3.84,4.26-.49,5.11-.84.87-.26,3.38,2.25,2.59-1.81,2.1.18,4.45,2.47,3.18-.87,1.76.72,3.23,2.34,2.81,1.34-1,1.19-3.17-.73-3.58,2.42-1,1.83-4.01-.94-3.92,2.18-1.48.59-3.49-.62-3.38,1.43-3.15-3.46-2.88-4.29-2.81Zm11.17-10.66c-.11.83-.61,5.7,2.61,4.42-.16,1.2,1.77,2.89,3.35.77-.23,2.76,2.76,3.49,3.87,1.12.33,1.94,2.48,2.19,3.55.9.5-1.6-.9-3.26-2.7-2.47,1.37-2.23-.88-4.32-3.06-2.62.9-2.48-1.57-3.17-2.49-2.37-.7-3.39-4.49-.3-5.13.25Zm2.77-15.19c.4.74,2.86,4.97,4.71,2.04.57,1.07,3.13,1.29,3.16-1.34,1.44,2.37,4.28,1.2,3.79-1.37,1.41,1.38,3.3.31,3.4-1.36-.54-1.59-2.64-2.11-3.64-.41-.2-2.61-3.25-2.98-4.02-.32-.73-2.53-3.14-1.64-3.41-.46-2.56-2.34-3.81,2.4-4,3.22Zm-6.69-13.91c.76.36,5.24,2.34,5.01-1.11,1.09.53,3.29-.79,1.77-2.95,2.56,1.07,4.17-1.55,2.26-3.33,1.95.29,2.85-1.68,1.95-3.1-1.37-.97-3.38-.15-3.18,1.8-1.7-1.99-4.38-.5-3.44,2.1-2.08-1.62-3.5.52-3.03,1.63-3.44-.39-1.67,4.18-1.35,4.95ZM30.21.09c.83-.16,5.61-1.18,3.4-3.85,1.19-.21,2.2-2.58-.3-3.42,2.7-.64,2.47-3.7-.13-4.03,1.74-.91,1.32-3.04-.24-3.65-1.68.02-2.82,1.86-1.51,3.33-2.55-.61-3.84,2.17-1.54,3.72-2.63-.09-2.53,2.48-1.49,3.1-3.01,1.71,1.1,4.36,1.82,4.8Zm-15.3,2.06c.58-.61,3.84-4.26.49-5.11.84-.87.26-3.38-2.25-2.59,1.81-2.1-.18-4.45-2.47-3.18.87-1.76-.72-3.23-2.34-2.81-1.34,1-1.19,3.17.73,3.58-2.42,1-1.83,4.01.94,3.92-2.18,1.48-.59,3.49.62,3.38-1.43,3.15,3.46,2.88,4.29,2.81ZM3.74,12.81c.11-.83.61-5.7-2.61-4.42.16-1.2-1.77-2.89-3.35-.77.23-2.76-2.76-3.49-3.87-1.12-.33-1.94-2.48-2.19-3.55-.9-.5,1.6.9,3.26,2.7,2.47-1.37,2.23.88,4.33,3.06,2.62-.9,2.48,1.57,3.17,2.49,2.37.7,3.39,4.49.3,5.13-.25ZM.97,27.99c-.4-.74-2.86-4.97-4.71-2.04-.57-1.07-3.13-1.29-3.16,1.34-1.44-2.37-4.28-1.2-3.79,1.37-1.4-1.38-3.3-.31-3.4,1.36.54,1.59,2.64,2.11,3.64.41.2,2.61,3.25,2.98,4.02.32.73,2.53,3.14,1.64,3.41.46,2.56,2.34,3.81-2.4,4-3.22Zm6.69,13.91c-.76-.36-5.24-2.34-5.01,1.11-1.09-.53-3.29.79-1.77,2.95-2.56-1.07-4.17,1.55-2.26,3.33-1.95-.29-2.85,1.68-1.95,3.1,1.37.97,3.38.15,3.18-1.8,1.7,1.99,4.38.5,3.44-2.1,2.08,1.62,3.5-.52,3.03-1.63,3.44.39,1.67-4.18,1.35-4.95Zm10.28,25.46c-3.31-3.33-7-9.27-3.39-17.42.17-.38-.43-1.58-1.39,1.14-.61-.38-1.17-.38-1.6-.14-.04-.49-.35-.97-1-1.26,1.75-2.29.41-2.13.19-1.79-4.83,7.49-11.82,7.68-16.42,6.74-.72-4.64-.22-11.61,7.5-16.09.36-.21.58-1.53-1.79.11-.26-.67-.72-1-1.21-1.06.26-.42.29-.99-.07-1.61,2.76-.83,1.59-1.48,1.2-1.33-8.32,3.22-14.07-.73-17.25-4.2,2.14-4.18,6.65-9.52,15.52-8.61.41.04,1.37-.9-1.51-.97.18-.69,0-1.23-.36-1.57.46-.19.81-.63.89-1.34,2.72.95,2.16-.27,1.76-.37-8.62-2.28-10.95-8.87-11.48-13.53C-8.3,1.93-1.51.26,5.13,6.21c.31.28,1.64.08-.65-1.67.55-.46.72-1,.63-1.48.48.11,1.03-.03,1.51-.56,1.64,2.37,1.9,1.05,1.64.73-5.63-6.91-3.65-13.61-1.33-17.7,4.64.75,11.11,3.38,12.99,12.1.09.4,1.28,1.02.45-1.74.71-.05,1.17-.38,1.38-.83.32.37.85.58,1.55.43-.07,2.88.92,1.97.9,1.56-.49-8.9,5.05-13.16,9.32-15.1,3.31,3.33,7,9.27,3.39,17.42-.17.38.43,1.58,1.39-1.14.61.38,1.17.38,1.6.14.04.49.35.97,1,1.26-1.75,2.29-.41,2.13-.19,1.79,4.83-7.49,11.82-7.68,16.42-6.74.72,4.64.22,11.61-7.5,16.09-.36.21-.58,1.53,1.79-.11.26.67.72,1,1.21,1.06-.26.42-.29.99.07,1.61-2.76.83-1.59,1.48-1.2,1.33,8.32-3.22,14.07.73,17.25,4.2-2.14,4.18-6.65,9.52-15.52,8.61-.41-.04-1.37.9,1.51.97-.18.69,0,1.23.36,1.57-.46.19-.81.63-.89,1.34-2.72-.95-2.16.27-1.76.37,8.62,2.28,10.95,8.87,11.48,13.53-4.19,2.12-10.97,3.79-17.62-2.16-.31-.28-1.64-.08.65,1.67-.55.46-.72,1-.63,1.48-.48-.11-1.03.03-1.51.56-1.64-2.37-1.9-1.05-1.64-.73,5.63,6.91,3.65,13.61,1.33,17.7-4.64-.75-11.11-3.38-12.99-12.1-.09-.4-1.28-1.02-.45,1.74-.71.05-1.17.38-1.38.83-.32-.37-.85-.58-1.55-.43.07-2.88-.92-1.97-.9-1.56.49,8.9-5.05,13.16-9.32,15.1Zm-7.2-14.91c0,.77.44,1.65,1.56,2.26-.03.28-.06.56-.08.83-2.41-.65-2.97,3.06.24,3.72.06.32.13.63.21.94-2.5.07-1.96,3.86,1.42,3.5.11.19.22.39.33.57-2.6.58-.96,4,2.18,2.92.13.15.26.29.39.43-1.44.74-.94,2.28.4,2.74,1.42.04,2.43-1.22,1.34-2.42.17-.08.34-.17.52-.26,2.56,2.12,5.3-.51,3.07-1.96.17-.14.34-.28.51-.42,3.04,1.53,4.88-1.83,2.56-2.78.18-.26.36-.52.53-.8,3.24.51,4.02-3.16,1.54-3.4.08-.26.15-.53.22-.81,1.26-.18,1.98-.85,2.25-1.57.45.62,1.33,1.08,2.59.92.14.25.28.49.42.72-2.33.89-.61,4.22,2.38,2.87.24.22.48.43.72.63-1.98,1.53.68,4.28,3.21,2,.2.09.4.19.6.27-1.76,2,1.58,3.8,3.48,1.08.19.04.38.08.57.11-.73,1.44.58,2.39,1.94,1.98,1.17-.8,1.25-2.42-.33-2.75.09-.17.18-.34.27-.51,3.32.21,3.99-3.53,1.33-3.4.06-.21.11-.43.17-.64,3.35-.55,2.87-4.35.44-3.75,0-.32-.02-.64-.04-.96,2.92-1.49,1.4-4.92-.76-3.65-.09-.26-.19-.52-.3-.78.91-.88,1.11-1.85.9-2.59.73.24,1.71.09,2.63-.78.26.12.51.23.76.34-1.36,2.09,1.99,3.77,3.62.93.32.04.64.07.96.09-.7,2.4,3.06,3.06,3.77-.27.22-.04.44-.09.65-.14-.25,2.65,3.51,2.15,3.45-1.17.18-.08.35-.16.53-.24.26,1.6,1.88,1.59,2.73.46.48-1.33-.41-2.69-1.88-2.03-.03-.19-.05-.38-.09-.57,2.81-1.78,1.16-5.2-.92-3.53-.08-.21-.16-.41-.24-.62,2.39-2.42-.23-5.2-1.85-3.3-.19-.25-.39-.51-.6-.75,1.49-2.92-1.76-4.8-2.76-2.51-.22-.16-.46-.31-.7-.45.22-1.25-.19-2.14-.79-2.63.73-.24,1.43-.93,1.67-2.18.28-.05.55-.11.82-.18.13,2.5,3.83,1.88,3.47-1.38.28-.16.56-.32.82-.49.84,2.35,4.28.67,2.9-2.43.15-.16.3-.33.44-.49,1.35,2.29,4.1-.32,2.1-2.98.1-.17.19-.34.28-.51,1.15,1.14,2.45.19,2.48-1.23-.4-1.36-1.91-1.93-2.72-.53-.13-.14-.27-.28-.41-.41,1.23-3.09-2.12-4.89-2.82-2.32-.18-.12-.37-.24-.56-.36.51-3.36-3.25-4.07-3.44-1.58-.3-.1-.61-.18-.92-.26-.52-3.24-4.25-2.85-3.71-.41-.27,0-.55.02-.83.04-.56-1.14-1.42-1.62-2.19-1.66.45-.63.61-1.6.07-2.74.19-.21.38-.41.56-.62,1.57,1.94,4.2-.73,2-3.15.14-.29.26-.59.38-.88,2.06,1.41,3.86-1.97.91-3.67.03-.22.05-.44.07-.66,2.44,1.06,3.13-2.67-.05-3.65-.02-.2-.04-.39-.07-.58,1.6.25,2.09-1.29,1.28-2.45-1.12-.87-2.68-.44-2.51,1.17-.19-.03-.38-.07-.57-.1-.82-3.22-4.59-2.71-3.64-.22-.22,0-.44.02-.66.04-1.56-3.02-5.02-1.38-3.71.74-.3.1-.6.21-.9.34-2.32-2.32-5.11.19-3.24,1.85-.22.17-.43.34-.65.53-1.12-.59-2.1-.48-2.74-.06,0-.77-.44-1.65-1.56-2.26.03-.28.06-.56.08-.83,2.41.65,2.97-3.06-.24-3.72-.06-.32-.13-.63-.21-.94,2.5-.07,1.96-3.86-1.42-3.5-.11-.19-.22-.39-.33-.57,2.6-.58.96-4-2.18-2.92-.13-.15-.26-.29-.39-.43,1.44-.74.94-2.28-.4-2.74-1.42-.04-2.43,1.22-1.34,2.42-.17.08-.34.17-.52.26-2.56-2.12-5.3.51-3.07,1.96-.17.14-.34.28-.51.42-3.04-1.53-4.88,1.83-2.56,2.78-.18.26-.36.52-.53.8-3.24-.51-4.02,3.16-1.54,3.4-.08.26-.15.53-.22.81-1.26.18-1.98.85-2.25,1.57-.45-.62-1.33-1.08-2.59-.92-.14-.25-.28-.49-.42-.72,2.33-.89.61-4.22-2.38-2.87-.24-.22-.48-.43-.72-.63,1.98-1.53-.68-4.28-3.21-2-.2-.09-.4-.19-.6-.27,1.76-2-1.58-3.8-3.48-1.08-.19-.04-.38-.08-.57-.11.73-1.44-.58-2.39-1.94-1.98-1.17.8-1.25,2.42.33,2.75-.09.17-.18.34-.27.51-3.32-.21-3.99,3.53-1.33,3.39-.06.21-.11.43-.17.64-3.35.55-2.87,4.35-.44,3.75,0,.32.02.64.04.96C.84-3.72,2.37-.29,4.52-1.56c.09.26.19.52.3.78-.91.88-1.11,1.85-.9,2.59-.73-.24-1.71-.09-2.63.78-.26-.12-.51-.23-.76-.34C1.89.17-1.47-1.51-3.09,1.33c-.32-.04-.64-.07-.96-.09.71-2.4-3.06-3.06-3.77.27-.22.04-.44.09-.65.14.25-2.65-3.51-2.15-3.45,1.17-.18.08-.35.16-.53.24-.26-1.6-1.88-1.59-2.73-.46-.48,1.33.41,2.69,1.88,2.03.03.19.05.38.09.57-2.81,1.78-1.16,5.2.92,3.53.08.21.16.41.24.62-2.39,2.42.23,5.2,1.85,3.3.19.25.39.51.6.75-1.49,2.92,1.76,4.8,2.76,2.51.22.16.46.31.7.45-.22,1.25.19,2.14.79,2.63-.73.24-1.43.93-1.67,2.18-.28.05-.55.11-.82.18-.13-2.5-3.83-1.88-3.47,1.38-.28.16-.56.32-.82.49-.84-2.35-4.28-.67-2.9,2.43-.15.16-.3.33-.44.49-1.35-2.29-4.1.32-2.1,2.98-.1.17-.19.34-.28.51-1.15-1.14-2.45-.19-2.48,1.23.4,1.36,1.91,1.93,2.72.53.13.14.27.28.41.41-1.23,3.09,2.12,4.89,2.82,2.32.18.12.37.24.56.36-.51,3.36,3.25,4.07,3.44,1.58.3.1.61.18.92.26.52,3.24,4.25,2.85,3.71.41.27,0,.55-.02.83-.04.56,1.14,1.42,1.62,2.19,1.66-.45.63-.61,1.6-.07,2.74-.19.21-.38.41-.56.62-1.57-1.94-4.2.73-2,3.15-.14.29-.26.59-.38.88-2.06-1.41-3.86,1.97-.91,3.67-.03.22-.05.44-.07.66-2.44-1.06-3.13,2.67.05,3.65.02.2.04.39.07.58-1.6-.25-2.09,1.29-1.28,2.45,1.12.87,2.68.44,2.51-1.17.19.03.38.07.57.1.82,3.22,4.59,2.71,3.64.22.22,0,.44-.02.66-.04,1.56,3.02,5.02,1.38,3.71-.74.3-.1.6-.21.9-.34,2.32,2.32,5.11-.19,3.24-1.85.22-.17.43-.34.65-.53,1.12.59,2.1.48,2.74.06Z"/>
          <path class="cls-1" d="m-4.21,80.17c3.56.41,8.75-1.88,8.98-4.25,0,0-3.25,3.57-7.66,1.81-3.9-2.72-2.7-7.4-2.7-7.4-1.86,1.5-.92,7.09,1.38,9.84Z"/>
          <path class="cls-1" d="m82.57-2.65c-2.64-2.43-8.18-3.62-9.77-1.84,0,0,4.72-.98,7.26,3.04,1.56,4.49-2.16,7.57-2.16,7.57,2.39-.13,4.91-5.2,4.67-8.77Z"/>
          <path class="cls-1" d="m87.77,35.97c-.71-3.52-4.49-7.74-6.82-7.23,0,0,4.4,1.98,4.09,6.73-1.38,4.55-6.2,4.85-6.2,4.85,2,1.3,7.03-1.32,8.93-4.36Z"/>
          <path class="cls-1" d="m69.27,70.28c1.49-3.26.92-8.9-1.27-9.86,0,0,2.39,4.19-.65,7.85-3.79,2.87-7.87.28-7.87.28.86,2.23,6.46,3.07,9.79,1.73Z"/>
          <path class="cls-1" d="m34.14,87.16c3.13-1.76,5.97-6.66,4.77-8.72,0,0-.53,4.8-5.14,5.97-4.76.09-6.53-4.39-6.53-4.39-.62,2.31,3.42,6.28,6.9,7.15Z"/>
          <path class="cls-1" d="m1.49,69.62c1.1.82,3.24.04,4.56-3.68,1.21-3.41,3.52-4.31,3.52-4.31-1.5-.17-2.83,0-4.07.56-.22-1.34-.81-2.55-1.77-3.71,0,0,.52,2.42-1.67,5.3-2.39,3.15-1.86,5.36-.57,5.83Z"/>
          <path class="cls-1" d="m71.76,2.54c-.41-1.31-2.6-1.94-5.85.3-2.98,2.05-5.38,1.42-5.38,1.42,1.11,1.01,2.29,1.66,3.62,1.94-.61,1.21-.85,2.54-.75,4.04,0,0,1.01-2.26,4.47-3.31,3.78-1.14,4.65-3.25,3.89-4.38Z"/>
          <path class="cls-1" d="m75.97,33.82c.44-1.3-.96-3.1-4.91-3.2-3.62-.09-5.18-2.01-5.18-2.01.3,1.47.88,2.69,1.79,3.7-1.21.62-2.18,1.55-2.98,2.83,0,0,2.14-1.24,5.56-.05,3.73,1.3,5.67.11,5.72-1.26Z"/>
          <path class="cls-1" d="m60.99,61.61c1.12-.8,1.04-3.07-2.09-5.47-2.87-2.2-3.01-4.67-3.01-4.67-.62,1.37-.87,2.69-.72,4.05-1.34-.21-2.68-.02-4.07.53,0,0,2.46.26,4.53,3.23,2.26,3.24,4.52,3.42,5.37,2.35Z"/>
          <path class="cls-1" d="m32.54,75.28c1.37.01,2.65-1.87,1.52-5.66-1.03-3.47.31-5.55.31-5.55-1.31.75-2.28,1.67-2.96,2.85-.97-.96-2.15-1.59-3.61-1.96,0,0,1.84,1.66,1.77,5.27-.08,3.95,1.65,5.43,2.97,5.05Z"/>
          <path class="cls-1" d="m9.66,67c.32-2.45,1.73-3.38,1.73-3.38-1.77.18-3.07.97-4.12,2.57-2.72,4.16,1.7,6.06,2.39.81Z"/>
          <path class="cls-1" d="m37.61,68.36c-1.18-2.17-.58-3.75-.58-3.75-1.33,1.19-1.91,2.59-1.82,4.5.24,4.96,4.94,3.9,2.4-.75Z"/>
          <path class="cls-1" d="m61.03,53.02c-2.23-1.06-2.68-2.69-2.68-2.69-.38,1.74-.03,3.22,1.17,4.71,3.11,3.87,6.29.25,1.5-2.02Z"/>
          <path class="cls-1" d="m70.95,26.86c-2.42.45-3.74-.6-3.74-.6.72,1.63,1.87,2.62,3.72,3.12,4.79,1.3,5.24-3.49.03-2.52Z"/>
          <path class="cls-1" d="m63.61-.15c-1.7,1.79-3.38,1.71-3.38,1.71,1.54.9,3.05,1.02,4.84.34,4.64-1.76,2.18-5.9-1.46-2.06Z"/>
          <path class="cls-1" d="m-.82,61.35c1.87-1.61,1.87-3.3,1.87-3.3.82,1.58.88,3.1.12,4.85-1.98,4.56-6,1.91-1.98-1.55Z"/>
          <path class="cls-1" d="m25.82,69.94c.56-2.4-.43-3.77-.43-3.77,1.59.79,2.53,1.99,2.94,3.86,1.08,4.85-3.73,5.07-2.52-.09Z"/>
          <path class="cls-1" d="m52.41,61.24c-.95-2.27-2.56-2.8-2.56-2.8,1.76-.3,3.22.12,4.65,1.39,3.72,3.29-.04,6.29-2.09,1.41Z"/>
          <path class="cls-1" d="m68.82,38.57c-2.11-1.28-3.72-.76-3.72-.76,1.25-1.27,2.67-1.79,4.58-1.61,4.94.47,3.67,5.12-.86,2.37Z"/>
          <path class="cls-1" d="m68.76,10.58c-2.46.2-3.45,1.57-3.45,1.57.26-1.76,1.11-3.02,2.76-3.99,4.28-2.52,5.97,1.98.69,2.42Z"/>
        </g>
        <g>
          <path class="cls-1" d="m2.81,35.67c-.05.45-.08.91-.1,1.39-.01.38-.9,1.09-.81-.95-1.65-1.2-.54-1.45-.24-1.22.38.28.77.55,1.15.79Z"/>
          <path class="cls-1" d="m.72,20.1c-.3.33-.6.69-.9,1.06-.23.3-1.37.35-.09-1.24-.63-1.94.41-1.49.52-1.13.14.46.3.89.46,1.31Z"/>
          <path class="cls-1" d="m8.17,6.27c-.44.09-.89.2-1.35.33-.36.1-1.31-.52.66-1.06.63-1.94,1.21-.96,1.09-.61-.15.45-.28.9-.4,1.33Z"/>
          <path class="cls-1" d="m37.79,2.29c-.22-.39-.47-.79-.73-1.18-.21-.31.09-1.41,1.21.3,2.04,0,1.29.85.91.85-.48,0-.94,0-1.39.04Z"/>
          <path class="cls-1" d="m48.64,13.65c.05-.45.08-.91.1-1.39.01-.38.9-1.09.81.95,1.65,1.2.54,1.45.24,1.22-.38-.28-.77-.55-1.15-.79Z"/>
          <path class="cls-1" d="m50.74,29.22c.3-.33.6-.69.9-1.06.23-.3,1.37-.35.09,1.24.63,1.94-.41,1.49-.52,1.13-.14-.46-.3-.89-.46-1.31Z"/>
          <path class="cls-1" d="m43.28,43.05c.44-.09.89-.2,1.35-.33.36-.1,1.31.52-.66,1.06-.63,1.94-1.21.96-1.09.61.15-.45.28-.9.4-1.33Z"/>
          <path class="cls-1" d="m29.12,49.86c.41.19.84.36,1.29.53.35.13.76,1.19-1.15.47-1.65,1.2-1.55.07-1.24-.15.39-.28.76-.56,1.1-.85Z"/>
          <path class="cls-1" d="m13.66,47.04c.22.39.47.79.73,1.18.21.31-.09,1.41-1.21-.3-2.04,0-1.29-.85-.91-.85.48,0,.94,0,1.39-.04Z"/>
          <path class="cls-1" d="m9.6,32.41c-1.96,3.01-2.47,6.48-1.09,8.3,0,0-4.91-3.47-1.46-5.02-.48-.35-.69-1.15-.47-1.83-.67-.25-1.16-.92-1.13-1.51-3.37,1.72-3-4.28-3-4.28.57,2.22,3.59,3.99,7.16,4.34Z"/>
          <path class="cls-1" d="m8.13,21.45c-3.36,1.28-5.8,3.79-5.76,6.08,0,0-1.94-5.69,1.77-4.92-.18-.57.12-1.34.69-1.76-.39-.6-.4-1.42-.03-1.89-3.74-.58.08-5.23.08-5.23-.85,2.13.56,5.34,3.24,7.72Z"/>
          <path class="cls-1" d="m13.38,11.72c-3.47-.94-6.92-.34-8.23,1.53,0,0,1.78-5.74,4.32-2.94.19-.57.88-1.01,1.6-1.02.04-.71.52-1.39,1.09-1.55-2.68-2.67,3.14-4.18,3.14-4.18-1.93,1.22-2.69,4.64-1.91,8.15Z"/>
          <path class="cls-1" d="m23.34,6.93c-2.26-2.8-5.4-4.35-7.56-3.6,0,0,4.82-3.6,5.23.16.48-.35,1.31-.3,1.89.12.45-.56,1.23-.82,1.79-.61-.6-3.74,5-1.54,5-1.54-2.28-.15-4.9,2.18-6.34,5.47Z"/>
          <path class="cls-1" d="m34.22,8.92c-.18-3.59-1.81-6.69-4-7.36,0,0,6.01-.08,4.13,3.2.6,0,1.24.52,1.46,1.2.69-.19,1.48.06,1.81.56,1.71-3.37,4.95,1.7,4.95,1.7-1.76-1.46-5.25-1.12-8.35.7Z"/>
          <path class="cls-1" d="m41.85,16.91c1.96-3.01,2.47-6.48,1.09-8.3,0,0,4.91,3.47,1.46,5.02.48.35.69,1.15.47,1.83.67.25,1.16.92,1.13,1.51,3.37-1.72,3,4.28,3,4.28-.57-2.22-3.59-3.99-7.16-4.34Z"/>
          <path class="cls-1" d="m43.32,27.87c3.36-1.28,5.8-3.79,5.76-6.08,0,0,1.94,5.69-1.77,4.92.18.57-.12,1.34-.69,1.76.39.6.4,1.42.03,1.89,3.74.58-.08,5.23-.08,5.23.85-2.13-.56-5.34-3.24-7.72Z"/>
          <path class="cls-1" d="m38.08,37.6c3.47.94,6.92.34,8.23-1.53,0,0-1.78,5.74-4.32,2.94-.19.57-.88,1.01-1.6,1.02-.04.71-.52,1.39-1.09,1.55,2.68,2.67-3.14,4.18-3.14,4.18,1.93-1.22,2.69-4.64,1.91-8.15Z"/>
          <path class="cls-1" d="m28.11,42.39c2.26,2.8,5.4,4.35,7.56,3.6,0,0-4.82,3.6-5.23-.16-.48.35-1.31.3-1.89-.12-.45.56-1.23.82-1.79.61.6,3.74-5,1.54-5,1.54,2.28.15,4.9-2.18,6.34-5.47Z"/>
          <path class="cls-1" d="m17.24,40.41c.18,3.59,1.81,6.69,4,7.36,0,0-6.01.08-4.13-3.2-.6,0-1.24-.52-1.46-1.2-.69.19-1.48-.06-1.81-.56-1.71,3.37-4.95-1.7-4.95-1.7,1.76,1.46,5.25,1.12,8.34-.7Z"/>
          <path class="cls-1" d="m18.26,31.79c-1.38-.31-3.1-.28-4.38,1.85-1.97,3.28.79.69,1.57.84.11.78-2.61,3.42.76,1.6,2.18-1.18,2.29-2.89,2.05-4.29Zm-6.93,6.61c-.07-.44-.12-.92-.14-1.43-.25-5.41,3.58-8.53,9.66-7.66.59,6.11-2.71,9.8-8.1,9.29-.51-.05-.98-.12-1.42-.21Z"/>
          <path class="cls-1" d="m15.5,26.04c-.94-1.06-2.35-2.05-4.63-1.08-3.53,1.5.24,1.02.78,1.6-.37.7-4.12,1.24-.33,1.75,2.46.33,3.56-.99,4.18-2.26Zm-9.49,1.28c.2-.4.44-.81.72-1.24,2.97-4.52,7.91-4.8,12.32-.52-3.12,5.29-7.95,6.33-12.02,2.76-.38-.34-.72-.67-1.02-1Z"/>
          <path class="cls-1" d="m16.64,19.76c-.14-1.41-.69-3.04-3.11-3.6-3.73-.86-.41.97-.31,1.75-.71.35-4.06-1.42-1.29,1.22,1.8,1.71,3.46,1.29,4.71.63Zm-8.43-4.54c.4-.2.84-.4,1.31-.58,5.06-1.91,9.22.77,10.27,6.82-5.63,2.45-10.16.45-11.34-4.83-.11-.5-.19-.97-.24-1.41Z"/>
          <path class="cls-1" d="m21.26,15.36c.72-1.22,1.22-2.86-.41-4.74-2.51-2.89-.9.54-1.28,1.23-.78-.14-2.45-3.54-1.76.23.45,2.44,2.04,3.07,3.45,3.28Zm-4.15-8.63c.44.07.91.17,1.4.3,5.22,1.43,7.01,6.04,4.3,11.56-6-1.33-8.48-5.61-6.34-10.58.2-.47.41-.89.64-1.28Z"/>
          <path class="cls-1" d="m27.58,14.51c1.3-.57,2.67-1.6,2.46-4.07-.33-3.82-1.05-.09-1.76.24-.55-.57.1-4.3-1.56-.85-1.07,2.24-.15,3.69.86,4.68Zm1.72-9.42c.32.32.64.67.95,1.07,3.38,4.23,2.12,9.01-3.31,11.88-4.07-4.6-3.57-9.52,1.09-12.28.44-.26.86-.48,1.27-.66Z"/>
          <path class="cls-1" d="m33.19,17.54c1.38.31,3.1.28,4.38-1.85,1.97-3.28-.79-.69-1.57-.84-.11-.78,2.61-3.42-.76-1.6-2.18,1.18-2.29,2.89-2.05,4.29Zm6.93-6.61c.07.44.12.92.14,1.43.25,5.41-3.58,8.53-9.66,7.66-.59-6.11,2.71-9.8,8.1-9.29.51.05.98.12,1.42.21Z"/>
          <path class="cls-1" d="m35.95,23.28c.94,1.06,2.35,2.05,4.63,1.08,3.53-1.5-.24-1.02-.78-1.6.37-.7,4.12-1.24.33-1.75-2.46-.33-3.56.99-4.18,2.26Zm9.49-1.28c-.2.4-.44.81-.72,1.24-2.97,4.52-7.91,4.8-12.32.52,3.12-5.29,7.95-6.33,12.02-2.76.38.34.72.67,1.02,1Z"/>
          <path class="cls-1" d="m34.81,29.56c.14,1.41.69,3.04,3.11,3.6,3.73.86.41-.97.31-1.75.71-.35,4.06,1.42,1.29-1.22-1.8-1.71-3.46-1.29-4.71-.63Zm8.43,4.54c-.4.2-.84.4-1.31.58-5.06,1.91-9.22-.77-10.27-6.82,5.63-2.45,10.16-.45,11.34,4.83.11.5.19.97.24,1.41Z"/>
          <path class="cls-1" d="m30.2,33.96c-.72,1.22-1.22,2.86.41,4.74,2.51,2.89.9-.54,1.28-1.23.78.14,2.45,3.54,1.76-.23-.45-2.44-2.04-3.07-3.45-3.28Zm4.15,8.63c-.44-.07-.91-.17-1.4-.3-5.22-1.43-7.01-6.04-4.3-11.56,6,1.33,8.48,5.61,6.34,10.58-.2.47-.41.89-.64,1.28Z"/>
          <path class="cls-1" d="m23.87,34.82c-1.3.57-2.67,1.6-2.46,4.07.33,3.82,1.05.09,1.76-.24.55.57-.1,4.3,1.56.85,1.07-2.24.15-3.69-.86-4.68Zm-1.72,9.42c-.32-.32-.64-.67-.95-1.07-3.38-4.23-2.12-9.01,3.31-11.88,4.07,4.6,3.57,9.52-1.09,12.28-.44.26-.86.48-1.27.66Z"/>
          <path class="cls-1" d="m25.03,28.45c-.64.24-1.24.51-1.79.82-.05-.63-.15-1.28-.3-1.95-.66-.18-1.3-.31-1.93-.39.33-.54.63-1.12.9-1.75-.43-.54-.87-1.02-1.33-1.45.58-.24,1.17-.54,1.76-.89-.03-.69-.1-1.34-.22-1.96.61.15,1.26.25,1.95.31.38-.57.7-1.14.97-1.71.41.48.87.95,1.39,1.4.64-.24,1.24-.51,1.79-.82.05.63.15,1.28.3,1.95.66.18,1.3.31,1.93.39-.33.54-.63,1.12-.9,1.75.43.54.87,1.02,1.33,1.45-.58.24-1.17.54-1.76.89.03.69.1,1.34.22,1.96-.61-.15-1.26-.25-1.95-.31-.38.57-.7,1.14-.97,1.71-.41-.48-.87-.95-1.39-1.4Zm-1.06-.54c.08.06.17.13.25.21-.07-.14-.11-.28-.14-.41-.12.05-.26.09-.42.11.11.03.21.06.31.09Zm2.24.41c.11,0,.21.01.32.02-.14-.08-.26-.16-.35-.25-.07.11-.16.22-.28.33.1-.04.2-.08.31-.11Zm2.06-.99c.09-.06.18-.12.28-.17-.16.02-.3.02-.43,0,0,.13,0,.28-.03.43.06-.09.12-.18.18-.27Zm1.08-2.01c.04-.1.08-.2.12-.3-.12.11-.23.19-.35.26.08.1.16.22.23.36,0-.11-.01-.22,0-.32Zm-.3-2.26c-.03-.1-.06-.21-.08-.31-.03.16-.07.29-.13.41.13.03.26.08.4.16-.07-.08-.14-.17-.2-.26Zm-1.57-1.65c-.08-.06-.17-.13-.25-.21.07.14.11.28.14.41.12-.05.26-.09.42-.11-.11-.03-.21-.06-.31-.09Zm-2.24-.41c-.11,0-.21-.01-.32-.02.14.08.26.16.35.25.07-.11.16-.22.28-.33-.1.04-.2.08-.31.11Zm-2.06.99c-.09.06-.18.12-.28.17.16-.02.3-.02.43,0,0-.13,0-.28.03-.43-.06.09-.12.18-.18.27Zm-1.08,2.01c-.04.1-.08.2-.12.3.12-.11.23-.19.35-.26-.08-.1-.16-.22-.23-.36,0,.11.01.22,0,.32Zm.3,2.26c.03.1.06.21.08.31.03-.16.07-.29.13-.41-.13-.03-.26-.08-.4-.16.07.08.14.17.2.26Z"/>
        </g>
      </g>
      <g>
        <g>
          <path class="cls-1" d="m110.42,29.9c-1.98-1.33-3.82-2.44-5.42-2.59-.21-.76-1.22-.77-1.48-.07-.37.97,1.1,1.53,1.47.55.06-.15.54,0,.69.03,1.26.3,2.77,1.3,4.45,2.48,1.64,1.23,3.05,2.36,3.73,3.47.09.13.37.55.24.65-.81.65.17,1.87.98,1.23.58-.47.25-1.42-.53-1.38-.64-1.48-2.26-2.88-4.14-4.36Z"/>
          <path class="cls-1" d="m96.92,11.33c-.82-2.25-1.65-4.22-2.86-5.29.28-.73-.53-1.34-1.15-.93-.87.57,0,1.88.86,1.31.13-.09.44.31.54.43.84.99,1.48,2.68,2.15,4.62.6,1.96,1.08,3.71.98,5,0,.16-.03.66-.18.67-1.04.05-.96,1.62.07,1.57.74-.03,1.04-1,.39-1.43.35-1.57-.14-3.66-.79-5.96Z"/>
          <path class="cls-1" d="m167.58,11.32c-.66,2.3-1.14,4.39-.79,5.96-.66.43-.36,1.39.39,1.43,1.04.05,1.11-1.52.07-1.57-.16,0-.18-.51-.18-.67-.1-1.29.37-3.04.98-5,.67-1.94,1.3-3.63,2.15-4.62.1-.12.41-.52.54-.43.87.57,1.73-.74.86-1.31-.62-.41-1.43.2-1.15.93-1.21,1.06-2.04,3.04-2.86,5.29Z"/>
          <path class="cls-1" d="m154.09,29.89c-1.88,1.48-3.51,2.88-4.14,4.36-.78-.04-1.11.92-.53,1.38.81.65,1.79-.58.98-1.23-.12-.1.16-.52.24-.65.68-1.11,2.09-2.24,3.73-3.47,1.68-1.18,3.19-2.17,4.45-2.48.15-.04.64-.18.69-.03.37.97,1.83.42,1.47-.55-.26-.7-1.27-.68-1.48.08-1.61.15-3.44,1.26-5.42,2.6Z"/>
          <path class="cls-1" d="m132.26,36.99c-2.39.09-4.53.27-5.91,1.09-.61-.49-1.44.09-1.24.81.27,1,1.79.59,1.51-.41-.04-.15.43-.32.58-.38,1.2-.5,3.01-.58,5.06-.62,2.05.03,3.86.12,5.06.61.15.06.62.23.58.38-.27,1,1.24,1.42,1.51.41.2-.72-.63-1.3-1.24-.81-1.39-.82-3.52-1-5.91-1.09Z"/>
          <path class="cls-1" d="m96.87,25.56c1.26.51,2.37-.47,2.58-1.41.5.27.87-.12.17-.51-.02-.01-.04-.02-.06-.03,0-.02,0-.04-.01-.07-.16-.78-.64-.55-.54,0-.96-.09-2.23.66-2.14,2.02Z"/>
          <path class="cls-1" d="m88.51-.15c.72,1.16,2.19,1.01,2.92.38.25.51.77.41.44-.32,0-.02-.02-.04-.03-.06,0-.02.02-.04.03-.06.33-.73-.2-.83-.44-.31-.72-.64-2.19-.78-2.91.38Z"/>
          <path class="cls-1" d="m175.99-.16c-.72-1.16-2.19-1.01-2.92-.38-.24-.51-.77-.41-.44.32,0,.02.02.04.03.06,0,.02-.02.04-.03.06-.33.73.2.83.44.31.72.64,2.19.78,2.91-.38Z"/>
          <path class="cls-1" d="m167.64,25.55c.1-1.36-1.18-2.11-2.14-2.02.1-.56-.38-.79-.54,0,0,.02,0,.04-.01.07-.02.01-.04.02-.06.03-.69.4-.33.78.17.51.21.94,1.32,1.92,2.58,1.41Z"/>
          <path class="cls-1" d="m145.77,41.44c.88-1.04.28-2.4-.54-2.89.41-.39.16-.86-.44-.32-.02.01-.03.03-.05.04-.02,0-.04,0-.07,0-.8-.09-.73.44-.16.52-.38.88-.06,2.33,1.26,2.66Z"/>
          <path class="cls-1" d="m118.74,41.45c1.32-.33,1.64-1.77,1.26-2.66.56-.07.63-.6-.16-.52-.02,0-.04,0-.07,0-.02-.01-.03-.03-.05-.04-.59-.54-.85-.07-.44.32-.83.49-1.42,1.85-.54,2.89Z"/>
          <path class="cls-1" d="m99.53,10.48c.03-.17.07-.37.13-.59.48-1.8,1.1-2.33-.22-3.72-.7-.74-1.6-.44-1.6-.44,0,0,.22-2.23-2.73-3.56-2.92-1.32-4.29.46-4.12.45.11.22.47-.07,1.8.26,2.95.81,4.14,4.1,5.49,8,1.2,3.96,2.17,7.32.26,9.7-.88,1.05-1.35,1.02-1.3,1.27-.15.09,2.01.72,3.59-2.06,1.6-2.81.12-4.48.12-4.48,0,0,.91-.28,1.04-1.29.24-1.9-.57-1.96-2.01-3.14-.18-.15-.33-.28-.45-.41Z"/>
          <path class="cls-1" d="m164.97,10.47c-.12.12-.27.26-.45.41-1.45,1.18-2.26,1.24-2.01,3.14.13,1.01,1.04,1.29,1.04,1.29,0,0-1.49,1.67.12,4.48,1.59,2.78,3.74,2.15,3.59,2.06.04-.24-.42-.22-1.3-1.27-1.91-2.39-.94-5.75.26-9.7,1.35-3.91,2.54-7.2,5.49-8.01,1.33-.33,1.69-.04,1.8-.26.17.01-1.2-1.77-4.12-.45-2.95,1.33-2.73,3.56-2.73,3.56,0,0-.9-.31-1.6.44-1.31,1.39-.69,1.92-.21,3.72.06.23.1.42.13.59Z"/>
          <path class="cls-1" d="m152.47,27.67c-.17.03-.37.05-.61.06-1.86.1-2.56-.32-3.47,1.35-.49.9.08,1.66.08,1.66,0,0-2.18.48-2.54,3.69-.35,3.18,1.77,3.94,1.7,3.78.18-.17-.21-.42-.31-1.79-.14-3.05,2.62-5.2,5.91-7.7,3.39-2.36,6.29-4.33,9.15-3.25,1.27.52,1.39.97,1.61.85.13.11.07-2.13-3.07-2.78-3.17-.66-4.3,1.27-4.3,1.27,0,0-.55-.77-1.55-.59-1.88.35-1.69,1.14-2.36,2.89-.08.22-.17.4-.25.56Z"/>
          <path class="cls-1" d="m132.26,34.24c-.15-.08-.33-.18-.53-.31-1.57-1.01-1.88-1.76-3.61-.95-.92.44-.91,1.39-.91,1.39,0,0-2.05-.9-4.23,1.5-2.15,2.37-.89,4.22-.84,4.05.24-.03.08-.47.8-1.63,1.68-2.55,5.18-2.67,9.31-2.75,4.13.08,7.63.19,9.31,2.75.73,1.16.56,1.6.8,1.63.04.17,1.31-1.69-.85-4.05-2.18-2.39-4.23-1.49-4.23-1.49,0,0,.01-.95-.91-1.38-1.73-.82-2.04-.07-3.61.95-.2.13-.37.23-.53.31Z"/>
          <path class="cls-1" d="m112.03,27.68c-.08-.15-.16-.34-.25-.56-.67-1.74-.48-2.53-2.36-2.88-1-.19-1.55.59-1.55.59,0,0-1.13-1.93-4.3-1.27-3.13.65-3.2,2.9-3.07,2.78.22.12.34-.33,1.61-.85,2.86-1.08,5.76.88,9.15,3.25,3.3,2.5,6.06,4.64,5.92,7.69-.1,1.37-.49,1.62-.31,1.79-.07.16,2.05-.6,1.7-3.78-.36-3.21-2.54-3.69-2.54-3.69,0,0,.57-.76.08-1.66-.92-1.68-1.61-1.25-3.47-1.35-.23-.01-.43-.03-.61-.06Z"/>
          <path class="cls-1" d="m115.58,22.8c-2.62-1.11-8.03-3.76-10.04-3.54.84-1.85-.02-7.81-.26-10.64-1.47-2.44-4.29-7.76-6.05-8.76,1.76-1,4.57-6.33,6.04-8.77.24-2.84,1.1-8.8.26-10.64,2.01.22,7.42-2.43,10.04-3.54,1.86-2.15,6.06-6.47,6.47-8.46,1.5,1.36,7.43,2.39,10.21,3.04,2.77-.65,8.71-1.68,10.2-3.04.41,1.98,4.61,6.3,6.47,8.46,2.62,1.11,8.03,3.76,10.04,3.54-.84,1.85.02,7.81.26,10.64,1.47,2.44,4.29,7.76,6.05,8.76-1.76,1-4.57,6.33-6.04,8.77-.24,2.84-1.1,8.8-.26,10.64-2.01-.22-7.42,2.43-10.04,3.54-1.86,2.15-6.06,6.47-6.47,8.46-1.5-1.36-7.43-2.39-10.21-3.04-2.77.65-8.71,1.68-10.2,3.04-.41-1.98-4.61-6.3-6.47-8.46Zm-10.81-2.98c-.22.89,1.13,1.36,1.47.44.09-.25-.16-.36.79-.24-1.21.72.78,2.35,2.01.53.38.14.58.21.93.35-1.31.55.44,2.42,1.89.81.5.23.38.17.63.29-1.11.55.45,2.31,1.93.89.22.1.45.21.68.31-.35.17-.44.45-.36.72.28,0,.52-.18.57-.56.17.18.34.37.51.55-.89,1.84,1.27,2.79,1.45,1.56.19.21.1.1.47.51-1.08,1.88,1.24,2.97,1.36,1.55.24.28.37.45.62.77-1.34,1.74.82,3.13,1.13,1.75.41.87.23.66.02.83-.77.61.1,1.75.87,1.27.34.85,1.71.43,1.45-.51-.07-.26-.34-.2.5-.66-.56,1.3,2.01,1.44,1.94-.75.39-.11.6-.17.96-.26-.74,1.22,1.77,1.7,2.01-.46.54-.11.41-.09.68-.14-.58,1.1,1.72,1.6,2.09-.41.24-.05.48-.1.73-.14-.18.34-.09.62.14.79.22-.17.31-.45.14-.79.25.05.49.1.73.14.36,2.01,2.66,1.51,2.09.41.28.05.14.03.68.14.24,2.16,2.75,1.67,2.01.45.36.09.57.14.96.26-.07,2.19,2.5,2.05,1.94.75.84.46.58.4.51.66-.26.95,1.11,1.36,1.45.51.77.48,1.64-.65.87-1.27-.21-.17-.39.04.02-.83.31,1.38,2.47-.02,1.13-1.75.25-.32.38-.49.62-.77.12,1.42,2.44.33,1.36-1.55.37-.41.28-.31.47-.51.18,1.23,2.33.29,1.45-1.56.17-.18.34-.36.51-.55.06.38.3.56.57.56.08-.27-.01-.55-.36-.72.23-.11.45-.21.68-.31,1.48,1.41,3.04-.35,1.93-.89.26-.12.13-.06.63-.29,1.46,1.6,3.21-.26,1.89-.81.34-.14.54-.22.93-.35,1.24,1.81,3.23.19,2.01-.53.95-.12.7-.01.8.23.35.92,1.69.45,1.47-.44.91-.06.94-1.49-.04-1.54-.27-.01-.29.26-.47-.68,1.06.93,1.99-1.46-.12-2.08.01-.4.02-.62.05-.99.93,1.08,2.17-1.16.19-2.05.06-.55.04-.41.08-.69.87.89,2.06-1.14.25-2.11.03-.24.06-.49.09-.74.27.27.57.27.79.12-.09-.26-.33-.44-.71-.37.12-.22.24-.44.36-.65,2.03.27,2.26-2.07,1.03-1.86.14-.25.07-.13.34-.6,2.12.44,2.44-2.1,1.05-1.77.2-.31.31-.5.54-.83,2.06.74,2.72-1.74,1.31-1.61.7-.66.56-.42.78-.28.82.54,1.63-.63.93-1.22.7-.59-.11-1.76-.93-1.22-.22.15-.08.38-.78-.28,1.41.13.75-2.36-1.32-1.61-.23-.33-.34-.52-.54-.83,1.39.33,1.07-2.21-1.05-1.77-.28-.48-.21-.36-.34-.6,1.22.21.99-2.13-1.03-1.86-.12-.22-.24-.43-.36-.65.38.06.62-.11.71-.37-.23-.16-.52-.16-.79.12-.03-.25-.06-.5-.09-.74,1.8-.97.61-3-.26-2.11-.03-.28-.02-.14-.08-.69,1.98-.89.74-3.13-.19-2.05-.02-.37-.04-.58-.05-.99,2.11-.61,1.18-3.01.11-2.08.18-.94.2-.67.47-.68.98-.05.95-1.47.04-1.54.22-.89-1.13-1.36-1.47-.44-.09.25.16.36-.8.24,1.21-.72-.78-2.35-2.01-.53-.38-.14-.58-.21-.93-.35,1.31-.55-.44-2.42-1.89-.81-.5-.23-.38-.17-.63-.29,1.11-.55-.45-2.31-1.93-.89-.22-.1-.45-.21-.68-.31.35-.17.44-.45.36-.72-.28,0-.52.18-.57.56-.17-.18-.34-.37-.51-.55.89-1.84-1.27-2.79-1.45-1.56-.19-.21-.1-.1-.47-.51,1.07-1.88-1.24-2.97-1.36-1.55-.24-.28-.37-.45-.62-.77,1.34-1.74-.82-3.13-1.13-1.75-.41-.87-.23-.66-.02-.83.77-.61-.1-1.75-.87-1.27-.34-.85-1.71-.43-1.45.51.07.26.34.2-.5.66.56-1.3-2.01-1.44-1.94.75-.39.11-.6.17-.96.26.74-1.22-1.77-1.7-2.01.46-.54.11-.41.09-.68.14.58-1.1-1.72-1.6-2.09.41-.24.05-.48.1-.73.14.18-.34.09-.62-.14-.79-.22.17-.31.45-.14.79-.25-.05-.49-.1-.73-.14-.36-2.01-2.66-1.51-2.09-.41-.28-.05-.14-.03-.68-.14-.24-2.16-2.75-1.67-2.01-.45-.36-.09-.57-.14-.96-.26.07-2.19-2.5-2.05-1.94-.75-.84-.46-.58-.4-.51-.66.26-.95-1.11-1.36-1.45-.51-.77-.48-1.64.65-.87,1.27.21.17.39-.04-.02.83-.31-1.38-2.47.02-1.13,1.75-.25.32-.38.49-.62.77-.12-1.42-2.44-.33-1.36,1.55-.37.41-.28.31-.47.51-.18-1.23-2.33-.29-1.45,1.56-.17.18-.34.36-.51.55-.06-.38-.3-.56-.57-.56-.08.27.01.55.36.72-.23.11-.45.21-.68.31-1.48-1.41-3.04.35-1.93.89-.26.12-.13.06-.63.29-1.46-1.6-3.21.26-1.89.81-.34.14-.54.22-.93.35-1.24-1.81-3.23-.19-2.01.53-.95.12-.7.01-.8-.23-.35-.92-1.69-.45-1.47.44-.91.06-.94,1.49.04,1.54.27.01.29-.26.47.68-1.06-.93-1.99,1.46.12,2.08-.01.4-.02.62-.05.99-.93-1.08-2.17,1.16-.19,2.05-.06.55-.04.41-.08.69-.87-.89-2.06,1.14-.25,2.11-.03.24-.06.49-.09.74-.27-.27-.57-.27-.79-.12.09.26.33.44.71.37-.12.22-.24.44-.36.65-2.03-.27-2.26,2.07-1.03,1.86-.14.25-.07.13-.34.6-2.12-.44-2.44,2.1-1.05,1.77-.2.31-.31.5-.54.83-2.06-.74-2.72,1.74-1.31,1.61-.7.66-.56.42-.78.28-.82-.54-1.63.63-.93,1.22-.7.59.11,1.76.93,1.22.22-.15.08-.38.78.28-1.41-.13-.75,2.36,1.32,1.61.23.33.34.52.54.83-1.39-.33-1.07,2.21,1.05,1.77.28.48.21.36.35.6-1.22-.21-.99,2.13,1.03,1.86.12.21.24.43.36.65-.38-.06-.62.11-.71.37.23.16.52.16.79-.12.03.25.06.5.09.74-1.8.97-.61,3,.26,2.11.03.28.02.14.08.69-1.98.89-.74,3.13.19,2.05.02.37.04.58.05.99-2.11.61-1.18,3.01-.11,2.08-.18.94-.2.67-.47.68-.98.05-.95,1.47-.04,1.54Zm14.72-2.41c.32-2.78,2.11-5.15,3.82-5.26.42,1.66-1.28,4.09-3.82,5.26Zm12.76,4.14c-1.37-2.44-1.31-5.41,0-6.5,1.31,1.1,1.37,4.06,0,6.5Zm12.76-4.15c-2.55-1.17-4.24-3.6-3.82-5.26,1.71.12,3.5,2.48,3.82,5.26Zm7.88-10.85c-2.75.55-5.55-.42-6.19-2.01,1.45-.91,4.29-.05,6.19,2.01Zm0-13.41c-1.9,2.06-4.73,2.92-6.19,2.01.64-1.59,3.44-2.56,6.19-2.01Zm-7.89-10.85c-.32,2.78-2.11,5.15-3.82,5.26-.42-1.66,1.28-4.09,3.82-5.26Zm-12.76-4.14c1.37,2.44,1.31,5.41,0,6.5-1.31-1.1-1.37-4.06,0-6.5Zm-12.76,4.15c2.55,1.17,4.24,3.6,3.82,5.26-1.71-.12-3.5-2.48-3.82-5.26Zm-7.88,10.85c2.75-.55,5.55.42,6.19,2.01-1.45.91-4.29.05-6.19-2.01Zm0,13.41c1.9-2.06,4.73-2.92,6.19-2.01-.64,1.59-3.44,2.56-6.19,2.01Zm11.72,5.56c-.49-.13-3.38-.83-2.87,1.21-.71-.2-1.88.83-.74,1.95-1.64-.36-2.32,1.38-.99,2.24-1.19.04-1.52,1.32-.83,2.06.92.43,2.04-.28,1.7-1.42,1.23,1.01,2.67-.18,1.82-1.63,1.42.74,2.04-.69,1.63-1.3,2.1-.14.54-2.68.26-3.11Zm8.92,2.9c-.48.18-3.22,1.32-1.61,2.67-.69.26-1.03,1.78.55,2.01-1.54.68-1.07,2.48.52,2.39-.94.73-.46,1.96.54,2.15,1-.19,1.48-1.42.54-2.15,1.59.09,2.06-1.72.52-2.39,1.58-.23,1.24-1.76.55-2.01,1.61-1.35-1.13-2.49-1.61-2.67Zm8.92-2.9c-.28.43-1.83,2.96.27,3.11-.41.61.21,2.05,1.63,1.3-.85,1.45.59,2.64,1.82,1.63-.33,1.15.78,1.85,1.71,1.42.69-.74.37-2.02-.83-2.06,1.34-.86.66-2.6-.99-2.24,1.14-1.12-.03-2.15-.74-1.95.51-2.04-2.38-1.34-2.87-1.21Zm5.51-7.59c.03.51.26,3.47,2.04,2.36.03.74,1.37,1.53,2.09.1.17,1.68,2.03,1.78,2.43.25.41,1.12,1.72,1.04,2.22.15.12-1.01-.89-1.85-1.88-1.18.58-1.48-1-2.49-2.11-1.23.27-1.58-1.29-1.72-1.74-1.15-.79-1.95-2.71.31-3.04.71Zm0-9.37c.32.4,2.25,2.66,3.04.71.46.58,2.01.43,1.74-1.15,1.12,1.26,2.69.25,2.11-1.23.99.67,2-.17,1.88-1.18-.49-.89-1.81-.97-2.22.15-.41-1.54-2.27-1.43-2.43.25-.71-1.43-2.05-.64-2.09.1-1.78-1.12-2.01,1.85-2.04,2.36Zm-5.51-7.58c.49.13,3.38.83,2.87-1.21.71.2,1.88-.83.74-1.95,1.64.36,2.32-1.38.99-2.24,1.19-.04,1.52-1.32.83-2.06-.92-.43-2.04.28-1.7,1.42-1.23-1.01-2.67.18-1.82,1.63-1.42-.74-2.04.69-1.63,1.3-2.1.14-.54,2.68-.26,3.11Zm-8.92-2.9c.48-.18,3.22-1.32,1.61-2.67.69-.26,1.03-1.78-.55-2.01,1.54-.68,1.07-2.48-.52-2.39.94-.73.46-1.96-.54-2.15-1,.19-1.48,1.42-.54,2.15-1.59-.09-2.06,1.72-.52,2.39-1.58.23-1.24,1.76-.55,2.01-1.61,1.35,1.13,2.49,1.61,2.67Zm-8.92,2.9c.28-.43,1.83-2.96-.27-3.11.41-.61-.21-2.05-1.63-1.3.85-1.45-.59-2.64-1.82-1.63.33-1.15-.78-1.85-1.71-1.42-.69.74-.37,2.02.83,2.06-1.34.86-.66,2.6.99,2.24-1.14,1.12.03,2.15.74,1.95-.51,2.04,2.38,1.34,2.87,1.21Zm-5.51,7.59c-.03-.51-.26-3.47-2.04-2.36-.03-.74-1.37-1.53-2.09-.1-.17-1.68-2.03-1.78-2.43-.25-.41-1.12-1.72-1.04-2.22-.15-.12,1.01.89,1.85,1.88,1.18-.58,1.48,1,2.49,2.11,1.23-.27,1.58,1.29,1.72,1.74,1.15.79,1.95,2.71-.31,3.04-.71Zm0,9.37c-.32-.4-2.25-2.66-3.04-.71-.46-.58-2.01-.43-1.74,1.15-1.12-1.26-2.69-.25-2.11,1.23-.99-.67-2,.17-1.88,1.18.49.89,1.81.97,2.22-.15.41,1.54,2.27,1.43,2.43-.25.71,1.43,2.05.64,2.09-.1,1.78,1.12,2.01-1.85,2.04-2.36Zm-1.07,16.64c-.94-2.69-1.39-6.91,2.72-10.43.19-.16.18-.98-1.06.26-.23-.37-.54-.52-.84-.5.11-.28.06-.62-.22-.95,1.56-.8.79-1.06.57-.93-4.62,2.83-8.49,1.1-10.76-.63.82-2.73,2.93-6.41,8.33-6.84.25-.02.72-.69-1.01-.41.03-.43-.14-.74-.39-.9.25-.16.42-.46.39-.9,1.73.27,1.26-.39,1.01-.41-5.4-.42-7.51-4.1-8.34-6.83,2.27-1.73,6.14-3.46,10.76-.63.21.13.99-.13-.57-.93.28-.33.32-.67.22-.95.3.02.61-.13.84-.5,1.24,1.24,1.25.42,1.06.26-4.12-3.52-3.66-7.73-2.73-10.43,2.85-.06,7,.81,9.08,5.81.1.23.88.47.08-1.09.42-.11.66-.36.73-.65.23.19.57.25.97.09.27,1.73.76,1.08.71.83-1.27-5.27,1.58-8.41,3.92-10.04,2.34,1.63,5.19,4.77,3.93,10.04-.06.24.43.9.7-.83.4.16.74.1.97-.09.08.29.31.54.73.64-.79,1.56-.01,1.32.08,1.09,2.07-5,6.22-5.88,9.07-5.82.94,2.69,1.39,6.91-2.72,10.43-.19.16-.18.98,1.06-.26.23.37.54.52.84.5-.11.28-.06.62.22.95-1.56.8-.79,1.06-.57.93,4.62-2.83,8.49-1.1,10.76.63-.82,2.73-2.93,6.41-8.33,6.84-.25.02-.72.69,1.01.41-.03.43.14.74.39.9-.25.16-.42.46-.39.9-1.73-.27-1.26.39-1.01.41,5.4.42,7.51,4.1,8.34,6.83-2.27,1.73-6.14,3.46-10.76.63-.21-.13-.99.13.57.93-.28.33-.32.67-.22.95-.3-.02-.61.13-.84.5-1.24-1.24-1.25-.42-1.06-.26,4.12,3.52,3.66,7.73,2.73,10.43-2.85.06-7-.81-9.08-5.81-.1-.23-.88-.47-.08,1.09-.42.11-.66.36-.73.65-.23-.19-.57-.25-.97-.09-.27-1.73-.76-1.08-.71-.83,1.27,5.27-1.58,8.41-3.92,10.04-2.34-1.63-5.19-4.77-3.93-10.04.06-.24-.43-.9-.7.83-.4-.16-.74-.1-.97.09-.08-.29-.31-.54-.73-.64.79-1.56.01-1.32-.08-1.09-2.07,5-6.22,5.88-9.07,5.82Zm-.02-10.05c-.2.42-.19,1.02.26,1.65-.09.14-.18.29-.26.43-1.15-.99-2.43.89-.85,2.1-.05.19-.09.38-.13.57-1.39-.62-2.09,1.6-.15,2.29,0,.13.02.27.03.4-1.57-.37-1.58,1.94.43,2.17.03.11.07.23.1.34-.98.03-1.11,1-.5,1.6.76.4,1.65-.03,1.37-.97.12,0,.23,0,.35,0,.84,1.83,3.04,1.12,2.2-.27.13-.03.26-.06.39-.1,1.26,1.63,3.15.28,2.13-.85.17-.09.34-.19.5-.3,1.64,1.13,3.03-.67,1.74-1.46.11-.12.22-.25.33-.38.74.23,1.31.06,1.65-.27.08.46.44.94,1.18,1.18.01.17.02.34.04.51-1.51-.12-1.44,2.15.55,2.2.07.18.15.36.23.54-1.48.31-.75,2.52,1.23,1.94.09.1.17.21.26.31-1.49.63-.14,2.5,1.62,1.51.09.07.19.14.28.21-.78.6-.31,1.46.54,1.59.85-.13,1.32-.99.54-1.59.09-.07.19-.14.28-.21,1.76.99,3.11-.88,1.62-1.51.09-.1.17-.2.26-.31,1.98.58,2.71-1.63,1.23-1.94.08-.17.16-.35.23-.54,1.99-.05,2.06-2.32.55-2.2.02-.17.03-.33.04-.51.73-.24,1.09-.72,1.18-1.18.34.32.91.5,1.65.27.11.13.22.26.33.38-1.3.79.1,2.59,1.74,1.46.17.11.33.21.5.3-1.02,1.13.87,2.48,2.13.85.13.03.26.07.39.1-.84,1.38,1.36,2.1,2.2.27.12,0,.24,0,.35,0-.28.94.61,1.37,1.37.97.61-.6.48-1.58-.5-1.6.04-.11.07-.22.1-.34,2-.24,2-2.54.43-2.17.01-.13.02-.27.03-.4,1.94-.7,1.24-2.91-.15-2.29-.04-.19-.08-.38-.13-.57,1.58-1.21.3-3.09-.85-2.1-.08-.14-.17-.29-.26-.43.45-.63.46-1.22.26-1.65.46.06,1.03-.13,1.49-.75.17.04.33.08.49.12-.59,1.4,1.6,2.04,2.26.16.2-.01.39-.03.58-.05-.16,1.51,2.16,1.49,2.22-.57.13-.05.25-.1.37-.15.14,1.61,2.33.9,1.93-1.08.1-.07.19-.13.29-.2.33.93,1.29.75,1.68-.02.14-.85-.54-1.56-1.35-1-.04-.11-.07-.22-.11-.33,1.48-1.37.13-3.23-.93-2.01-.07-.11-.14-.23-.21-.34,1.16-1.7-.71-3.08-1.47-1.77-.14-.13-.29-.26-.44-.38.57-1.91-1.57-2.68-1.92-1.2-.15-.07-.31-.13-.47-.19,0-.77-.35-1.26-.76-1.48.41-.22.75-.71.76-1.48.16-.06.32-.13.47-.19.35,1.48,2.49.71,1.92-1.2.15-.12.3-.25.44-.38.76,1.32,2.63-.06,1.46-1.77.07-.11.14-.23.21-.34,1.06,1.22,2.42-.64.93-2.01.04-.11.08-.22.11-.33.81.56,1.49-.16,1.35-1.01-.39-.77-1.35-.95-1.68-.02-.09-.07-.19-.14-.29-.2.4-1.98-1.8-2.69-1.94-1.08-.12-.05-.25-.1-.37-.15-.06-2.06-2.38-2.08-2.22-.57-.19-.02-.38-.04-.58-.05-.66-1.88-2.85-1.24-2.26.16-.16.03-.33.07-.49.12-.46-.62-1.02-.81-1.49-.75.2-.42.19-1.02-.26-1.65.09-.14.18-.29.26-.43,1.15.99,2.43-.89.85-2.1.05-.19.09-.38.13-.57,1.39.62,2.09-1.6.15-2.29,0-.13-.02-.27-.03-.4,1.57.37,1.58-1.94-.43-2.17-.03-.11-.07-.23-.1-.34.98-.03,1.11-1,.5-1.6-.76-.4-1.65.03-1.37.97-.12,0-.23,0-.35,0-.84-1.83-3.04-1.12-2.2.27-.13.03-.26.06-.39.1-1.26-1.63-3.15-.28-2.13.85-.17.09-.34.19-.5.3-1.64-1.13-3.03.67-1.74,1.46-.11.12-.22.25-.33.38-.74-.23-1.31-.06-1.65.27-.08-.46-.44-.94-1.18-1.18-.01-.17-.02-.34-.04-.51,1.51.12,1.44-2.15-.55-2.2-.07-.18-.15-.36-.23-.54,1.48-.31.75-2.52-1.23-1.94-.09-.1-.17-.21-.26-.31,1.49-.63.14-2.5-1.62-1.51-.09-.07-.19-.14-.28-.21.78-.6.31-1.46-.54-1.59-.85.13-1.32.99-.54,1.59-.09.07-.19.14-.28.21-1.76-.99-3.11.88-1.62,1.51-.09.1-.17.2-.26.31-1.98-.58-2.71,1.63-1.23,1.94-.08.17-.16.35-.23.54-1.99.05-2.06,2.32-.55,2.2-.02.17-.03.33-.04.51-.73.24-1.09.72-1.18,1.18-.34-.32-.91-.5-1.65-.27-.11-.13-.22-.26-.33-.38,1.3-.79-.1-2.59-1.74-1.46-.17-.11-.33-.21-.5-.3,1.02-1.13-.87-2.48-2.13-.85-.13-.03-.26-.07-.39-.1.84-1.38-1.36-2.1-2.2-.27-.12,0-.24,0-.35,0,.28-.94-.61-1.37-1.37-.97-.61.61-.48,1.58.5,1.6-.04.11-.07.22-.1.34-2,.24-2,2.54-.43,2.17-.01.13-.02.27-.03.4-1.94.7-1.24,2.91.15,2.29.04.19.08.38.13.57-1.58,1.21-.3,3.09.85,2.1.08.14.17.29.26.43-.45.63-.46,1.22-.26,1.65-.46-.06-1.03.13-1.49.75-.17-.04-.33-.08-.49-.12.59-1.4-1.6-2.04-2.26-.16-.2.01-.39.03-.58.05.16-1.51-2.16-1.49-2.22.57-.13.05-.25.1-.37.15-.14-1.61-2.33-.9-1.93,1.08-.1.07-.19.13-.29.2-.33-.93-1.29-.75-1.68.02-.14.85.54,1.56,1.35,1,.04.11.07.22.11.33-1.48,1.37-.13,3.23.93,2.01.07.11.14.23.21.34-1.16,1.7.71,3.08,1.47,1.77.14.13.29.26.44.38-.57,1.91,1.57,2.68,1.92,1.2.15.07.31.13.47.19,0,.77.35,1.26.76,1.48-.41.22-.75.71-.76,1.48-.16.06-.32.13-.47.19-.35-1.48-2.49-.71-1.92,1.2-.15.12-.3.25-.44.38-.76-1.31-2.63.06-1.46,1.77-.07.11-.14.23-.21.34-1.06-1.22-2.42.64-.93,2.01-.04.11-.08.22-.11.33-.81-.56-1.49.16-1.35,1.01.39.77,1.35.95,1.68.02.09.07.19.14.29.2-.4,1.98,1.8,2.69,1.94,1.08.12.05.25.1.37.15.06,2.06,2.38,2.08,2.22.57.19.02.38.04.58.05.66,1.88,2.85,1.24,2.26-.16.16-.03.33-.07.49-.12.46.62,1.02.81,1.49.75Z"/>
          <path class="cls-1" d="m101.27,22.36c1.84,1.16,5.28,1.27,6.03.03,0,0-2.72,1.1-4.67-1.03-1.42-2.52.47-4.76.47-4.76-1.41.34-2.37,3.64-1.83,5.75Z"/>
          <path class="cls-1" d="m93.95-.15c.81,2.02,3.52,4.13,4.86,3.57,0,0-2.84-.71-3.17-3.57.33-2.87,3.17-3.58,3.17-3.58-1.34-.56-4.06,1.55-4.86,3.58Z"/>
          <path class="cls-1" d="m170.54-.16c-.81-2.02-3.52-4.13-4.86-3.57,0,0,2.84.71,3.17,3.57-.33,2.87-3.17,3.58-3.17,3.58,1.34.56,4.06-1.55,4.86-3.58Z"/>
          <path class="cls-1" d="m163.23,22.35c.54-2.11-.42-5.42-1.83-5.75,0,0,1.89,2.24.47,4.76-1.95,2.13-4.67,1.03-4.67,1.03.76,1.24,4.19,1.13,6.03-.04Z"/>
          <path class="cls-1" d="m144.09,36.26c1.68-1.39,2.84-4.63,1.9-5.73,0,0,.21,2.92-2.42,4.12-2.83.57-4.38-1.91-4.38-1.91-.12,1.45,2.73,3.38,4.9,3.52Z"/>
          <path class="cls-1" d="m120.42,36.27c2.17-.14,5.02-2.07,4.9-3.52,0,0-1.55,2.49-4.38,1.91-2.63-1.2-2.42-4.12-2.42-4.12-.95,1.1.22,4.34,1.9,5.73Z"/>
          <path class="cls-1" d="m107.16,18.08c.39.74,1.76.88,3.46-.82,1.56-1.55,3.06-1.43,3.06-1.43-.78-.48-1.55-.74-2.38-.76.23-.79.23-1.61,0-2.5,0,0-.35,1.46-2.31,2.47-2.13,1.1-2.43,2.45-1.85,3.04Z"/>
          <path class="cls-1" d="m101.24-.15c-.12.82.91,1.74,3.28,1.38,2.17-.34,3.32.64,3.32.64-.34-.85-.82-1.51-1.47-2.01.65-.5,1.13-1.17,1.47-2.01,0,0-1.15.97-3.32.64-2.37-.37-3.4.55-3.28,1.38Z"/>
          <path class="cls-1" d="m163.26-.16c.12-.82-.91-1.74-3.28-1.38-2.17.34-3.32-.64-3.32-.64.34.85.82,1.51,1.47,2.01-.65.5-1.13,1.17-1.47,2.01,0,0,1.15-.97,3.32-.64,2.37.37,3.4-.55,3.28-1.38Z"/>
          <path class="cls-1" d="m157.34,18.07c.58-.6.29-1.95-1.85-3.04-1.95-1-2.31-2.46-2.31-2.46-.22.89-.22,1.7,0,2.5-.83.02-1.6.28-2.38.76,0,0,1.5-.12,3.06,1.43,1.7,1.69,3.08,1.55,3.46.82Z"/>
          <path class="cls-1" d="m141.84,29.34c.82-.14,1.38-1.41.29-3.55-.99-1.96-.42-3.35-.42-3.35-.7.59-1.18,1.25-1.46,2.02-.68-.47-1.46-.72-2.37-.78,0,0,1.28.79,1.63,2.96.38,2.37,1.58,3.06,2.32,2.7Z"/>
          <path class="cls-1" d="m122.67,29.34c.75.37,1.94-.33,2.32-2.7.35-2.17,1.63-2.96,1.63-2.96-.91.06-1.69.31-2.37.78-.28-.78-.76-1.44-1.46-2.02,0,0,.57,1.39-.42,3.35-1.08,2.14-.52,3.4.3,3.55Z"/>
          <path class="cls-1" d="m112.32,18.79c.82-1.25,1.83-1.39,1.83-1.39-1.02-.37-1.93-.28-2.93.32-2.58,1.56-.66,3.76,1.09,1.07Z"/>
          <path class="cls-1" d="m127.27,26.89c-.08-1.5.66-2.2.66-2.2-1.04.3-1.73.91-2.18,1.98-1.17,2.78,1.68,3.43,1.51.22Z"/>
          <path class="cls-1" d="m144.11,24.65c-.94-1.17-.76-2.17-.76-2.17-.66.85-.86,1.75-.6,2.89.69,2.94,3.38,1.79,1.35-.71Z"/>
          <path class="cls-1" d="m156.43,12.94c-1.45-.39-1.89-1.31-1.89-1.31-.04,1.08.33,1.93,1.21,2.69,2.28,1.97,3.78-.54.68-1.37Z"/>
          <path class="cls-1" d="m104.99,3.46c1.4-.53,2.3-.05,2.3-.05-.61-.9-1.4-1.36-2.56-1.46-3.01-.26-2.75,2.66.26,1.51Z"/>
          <path class="cls-1" d="m108.07,12.95c1.45-.39,1.89-1.31,1.89-1.31.04,1.08-.33,1.93-1.21,2.69-2.28,1.97-3.78-.53-.68-1.37Z"/>
          <path class="cls-1" d="m120.39,24.65c.94-1.17.76-2.17.76-2.17.66.85.86,1.75.6,2.89-.68,2.94-3.38,1.79-1.35-.71Z"/>
          <path class="cls-1" d="m137.24,26.88c.08-1.5-.67-2.2-.67-2.2,1.04.3,1.73.91,2.18,1.98,1.17,2.78-1.68,3.43-1.51.22Z"/>
          <path class="cls-1" d="m152.18,18.79c-.82-1.25-1.83-1.39-1.83-1.39,1.02-.37,1.93-.28,2.93.32,2.58,1.56.66,3.76-1.09,1.07Z"/>
          <path class="cls-1" d="m159.51,3.45c-1.4-.53-2.3-.05-2.3-.05.61-.9,1.4-1.36,2.56-1.46,3.01-.26,2.75,2.66-.26,1.51Z"/>
        </g>
        <g>
          <path class="cls-1" d="m116.81-.15c-.14.23-.28.48-.42.73-.11.2-.78.36-.19-.73-.59-1.09.08-.94.19-.73.14.26.28.5.42.73Z"/>
          <path class="cls-1" d="m147.69-.16c.14-.23.28-.48.42-.73.11-.2.78-.36.19.73.59,1.09-.08.94-.19.73-.14-.26-.28-.5-.42-.73Z"/>
          <path class="cls-1" d="m144.74,8.92c.25-.1.51-.22.77-.35.2-.1.84.17-.28.7-.17,1.23-.62.71-.58.48.04-.29.07-.57.09-.84Z"/>
          <path class="cls-1" d="m137.02,14.52c.27.07.54.12.83.17.23.04.58.63-.64.41-.86.9-.92.21-.76.05.2-.21.39-.42.57-.63Z"/>
          <path class="cls-1" d="m127.48,14.53c.18.21.37.42.57.63.16.16.1.85-.76-.05-1.22.22-.86-.37-.64-.41.29-.05.56-.11.83-.17Z"/>
          <path class="cls-1" d="m119.76,8.92c.02.27.05.55.09.84.03.23-.42.75-.58-.48-1.12-.54-.48-.81-.28-.7.26.13.52.24.77.35Z"/>
          <path class="cls-1" d="m121.39-.15c-1.87,1.13-3.05,2.9-2.78,4.26,0,0-1.78-3.19.52-3.13-.17-.32-.08-.81.22-1.13-.3-.32-.39-.81-.22-1.13-2.3.06-.52-3.13-.52-3.13-.27,1.36.91,3.13,2.78,4.26Z"/>
          <path class="cls-1" d="m143.11-.16c1.87-1.13,3.05-2.9,2.78-4.26,0,0,1.78,3.19-.52,3.13.17.32.08.81-.22,1.13.3.32.39.81.22,1.13,2.3-.06.52,3.13.52,3.13.27-1.36-.91-3.13-2.78-4.26Z"/>
          <path class="cls-1" d="m141.04,6.23c2.17.18,4.17-.55,4.75-1.81,0,0-.44,3.63-2.26,2.23-.05.36-.41.7-.84.78.06.43-.16.88-.48,1.04,1.89,1.3-1.42,2.84-1.42,2.84,1.02-.94,1.1-3.07.25-5.08Z"/>
          <path class="cls-1" d="m135.61,10.17c1.65,1.42,3.7,2.01,4.91,1.33,0,0-2.48,2.68-3.14.47-.25.26-.75.32-1.14.14-.21.38-.65.62-1,.56.77,2.17-2.82,1.46-2.82,1.46,1.38-.16,2.69-1.84,3.19-3.96Z"/>
          <path class="cls-1" d="m128.89,10.17c.5,2.12,1.81,3.8,3.19,3.96,0,0-3.58.71-2.82-1.46-.36.06-.8-.18-1-.56-.39.19-.89.12-1.14-.14-.65,2.2-3.14-.47-3.14-.47,1.21.68,3.26.1,4.91-1.33Z"/>
          <path class="cls-1" d="m123.46,6.23c-.84,2.01-.77,4.14.26,5.08,0,0-3.31-1.53-1.42-2.84-.33-.16-.54-.61-.48-1.04-.43-.08-.79-.42-.84-.78-1.82,1.4-2.26-2.23-2.26-2.23.58,1.26,2.58,1.99,4.75,1.81Z"/>
          <path class="cls-1" d="m126.29,1.78c-.68-.53-1.63-.97-2.88-.14-1.94,1.28.25.59.64.87-.14.46-2.33,1.19,0,1.08,1.51-.07,2.02-.98,2.25-1.81Zm-5.53,1.8c.08-.26.18-.53.3-.82,1.28-3.03,4.2-3.73,7.3-1.65-1.28,3.5-4.06,4.65-6.88,2.96-.26-.16-.5-.32-.72-.49Z"/>
          <path class="cls-1" d="m138.21,1.78c.24.83.75,1.74,2.25,1.81,2.32.11.14-.62,0-1.08.39-.28,2.58.41.64-.87-1.26-.83-2.21-.39-2.88.14Zm5.53,1.8c-.22.17-.46.33-.72.49-2.82,1.69-5.59.55-6.88-2.96,3.1-2.08,6.02-1.38,7.3,1.65.12.28.22.56.3.82Z"/>
          <path class="cls-1" d="m135.93,4.91c-.3.81-.42,1.84.76,2.79,1.82,1.45.48-.42.63-.87.48,0,1.85,1.85,1.03-.33-.53-1.41-1.56-1.61-2.42-1.58Zm3.42,4.7c-.27,0-.56,0-.87-.03-3.27-.29-4.85-2.85-3.83-6.43,3.73.14,5.68,2.42,4.94,5.63-.07.3-.15.58-.24.84Z"/>
          <path class="cls-1" d="m132.25,6.11c-.71.48-1.42,1.25-1.02,2.7.62,2.24.64-.06,1.02-.34.39.28.41,2.58,1.02.34.4-1.45-.31-2.22-1.02-2.7Zm0,5.81c-.22-.16-.45-.33-.69-.53-2.48-2.16-2.25-5.15.68-7.46,2.93,2.3,3.17,5.3.69,7.46-.23.2-.46.38-.69.54Z"/>
          <path class="cls-1" d="m128.57,4.92c-.86-.03-1.88.17-2.42,1.58-.82,2.18.55.33,1.03.33.15.45-1.19,2.33.63.87,1.18-.94,1.05-1.98.76-2.79Zm-3.42,4.7c-.09-.26-.17-.54-.24-.84-.74-3.2,1.21-5.49,4.94-5.63,1.02,3.59-.55,6.15-3.83,6.44-.31.03-.6.04-.87.03Z"/>
          <path class="cls-1" d="m130.87,1.74c-.41-.04-.81-.05-1.2-.02.14-.36.25-.74.35-1.15-.31-.27-.63-.51-.95-.72.32-.21.64-.45.95-.72-.09-.41-.21-.79-.35-1.15.38.02.78.01,1.2-.02.16-.38.29-.76.39-1.13.3.24.62.47.98.68.36-.21.68-.44.98-.68.1.37.23.75.39,1.13.41.04.81.04,1.2.02-.14.36-.25.74-.35,1.15.31.27.63.51.95.72-.32.21-.64.45-.95.72.09.41.21.79.35,1.15-.38-.02-.78-.01-1.2.02-.16.38-.29.76-.39,1.13-.3-.24-.62-.47-.98-.68-.36.21-.68.44-.98.68-.1-.37-.23-.75-.39-1.13Zm-.44-.58c.03.06.06.12.08.18,0-.1.01-.18.03-.26-.08,0-.17-.02-.26-.05.05.04.1.09.15.13Zm1.12.81c.06.03.11.06.17.1-.06-.08-.1-.15-.13-.23-.07.04-.15.08-.24.11.07,0,.13.01.2.02Zm1.38,0c.06,0,.13-.02.2-.02-.09-.03-.17-.07-.24-.11-.03.07-.07.15-.13.23.06-.04.11-.07.17-.1Zm1.12-.81s.09-.09.15-.13c-.09.03-.18.05-.26.05.02.08.03.16.03.26.02-.06.05-.12.08-.18Zm.43-1.32c.01-.06.02-.13.04-.19-.06.08-.12.14-.18.19.06.05.12.12.18.19-.02-.06-.03-.13-.04-.19Zm-.43-1.32c-.03-.06-.06-.12-.08-.18,0,.1-.01.18-.03.26.08,0,.17.02.26.05-.05-.04-.1-.09-.15-.13Zm-1.12-.81c-.06-.03-.11-.06-.17-.1.06.08.1.15.13.23.07-.04.15-.08.24-.11-.07,0-.13-.01-.2-.02Zm-1.38,0c-.06,0-.13.02-.2.02.09.03.17.07.24.11.03-.07.07-.15.13-.23-.06.04-.11.07-.17.1Zm-1.12.81s-.09.09-.15.13c.09-.03.18-.05.26-.05-.02-.08-.03-.16-.03-.26-.02.06-.05.12-.08.18Zm-.43,1.32c-.01.06-.02.13-.04.19.06-.08.12-.14.18-.19-.06-.05-.12-.12-.18-.19.02.06.03.13.04.19Z"/>
        </g>
      </g>
      <g>
        <g>
          <path class="cls-1" d="m11.16,94.34c2.31.62,4.41,1.08,5.97.7.44.65,1.4.34,1.42-.41.03-1.04-1.54-1.09-1.57-.05,0,.16-.51.18-.67.2-1.29.12-3.04-.33-5.02-.9-1.95-.63-3.65-1.25-4.66-2.07-.12-.1-.53-.4-.44-.54.56-.88-.77-1.72-1.33-.84-.4.63.22,1.43.95,1.14,1.08,1.19,3.07,1.99,5.33,2.78Z"/>
          <path class="cls-1" d="m29.94,107.53c1.51,1.86,2.93,3.46,4.42,4.07-.02.78.93,1.09,1.39.51.64-.82-.6-1.78-1.24-.96-.1.12-.52-.15-.65-.23-1.12-.66-2.27-2.05-3.53-3.68-1.21-1.66-2.22-3.16-2.55-4.41-.04-.15-.19-.64-.04-.69.97-.38.39-1.84-.58-1.46-.69.27-.66,1.28.1,1.48.17,1.6,1.32,3.42,2.68,5.38Z"/>
          <path class="cls-1" d="m37.39,129.25c.13,2.39.34,4.52,1.18,5.89-.48.62.11,1.43.83,1.23,1-.29.56-1.8-.44-1.51-.15.04-.33-.43-.39-.57-.51-1.19-.63-3-.7-5.05,0-2.05.06-3.86.53-5.07.06-.15.22-.62.37-.59,1.01.26,1.4-1.26.39-1.52-.72-.19-1.29.65-.79,1.25-.8,1.4-.95,3.54-.99,5.93Z"/>
          <path class="cls-1" d="m30.64,151.19c-1.3,2.01-2.38,3.86-2.51,5.46-.75.22-.75,1.23-.05,1.48.98.35,1.51-1.13.53-1.48-.15-.05-.02-.54.02-.69.28-1.27,1.25-2.79,2.41-4.49,1.21-1.66,2.32-3.09,3.41-3.79.13-.09.55-.38.65-.25.66.8,1.87-.2,1.21-1-.47-.57-1.42-.23-1.37.55-1.47.66-2.84,2.31-4.29,4.21Z"/>
          <path class="cls-1" d="m12.29,164.98c-2.23.86-4.2,1.72-5.24,2.95-.74-.27-1.33.55-.91,1.17.58.86,1.88-.02,1.3-.88-.09-.13.3-.45.42-.55.97-.86,2.65-1.52,4.59-2.22,1.95-.64,3.69-1.14,4.99-1.06.16,0,.66.02.67.17.07,1.04,1.63.94,1.57-.1-.05-.74-1.02-1.02-1.43-.36-1.58-.33-3.66.19-5.95.89Z"/>
          <path class="cls-1" d="m-.45,86.11c-1.14.74-.98,2.21-.33,2.92-.51.25-.4.78.32.44.02,0,.04-.02.06-.03.02,0,.04.02.06.03.73.32.82-.21.31-.45.62-.73.74-2.21-.42-2.91Z"/>
          <path class="cls-1" d="m25.39,94.05c-1.36-.07-2.09,1.21-1.98,2.17-.56-.09-.78.39,0,.54.02,0,.04,0,.07.01.01.02.02.04.03.06.41.69.79.31.51-.18.94-.23,1.9-1.35,1.37-2.6Z"/>
          <path class="cls-1" d="m41.62,115.66c-1.06-.86-2.4-.25-2.88.59-.4-.4-.86-.14-.31.44.02.02.03.03.04.05,0,.02,0,.04,0,.07-.07.8.45.72.52.16.89.37,2.33.03,2.64-1.3Z"/>
          <path class="cls-1" d="m42.06,142.69c-.35-1.32-1.8-1.61-2.68-1.22-.08-.56-.61-.62-.51.17,0,.02,0,.04,0,.07-.01.02-.03.03-.04.05-.53.6-.06.85.33.43.5.82,1.87,1.39,2.9.5Z"/>
          <path class="cls-1" d="m26.52,164.81c.49-1.27-.51-2.36-1.45-2.56.26-.5-.13-.86-.52-.16-.01.02-.02.04-.03.06-.02,0-.04.01-.06.02-.78.18-.54.65.01.54-.07.96.69,2.22,2.05,2.1Z"/>
          <path class="cls-1" d="m.95,173.58c1.14-.74.98-2.21.33-2.92.51-.25.4-.78-.32-.44-.02,0-.04.02-.06.03-.02,0-.04-.02-.06-.03-.73-.32-.82.21-.31.45-.62.73-.74,2.21.42,2.91Z"/>
          <path class="cls-1" d="m10.35,96.96c.12.12.26.27.41.45,1.2,1.43,1.28,2.24,3.17,1.96,1.01-.15,1.28-1.06,1.28-1.06,0,0,1.7,1.46,4.48-.19,2.75-1.63,2.09-3.78,2-3.63-.24-.04-.21.42-1.25,1.32-2.36,1.95-5.73,1.03-9.71-.11-3.93-1.29-7.23-2.43-8.09-5.36-.35-1.33-.06-1.69-.29-1.8,0-.17-1.75,1.23-.38,4.12,1.38,2.93,3.6,2.67,3.6,2.67,0,0-.29.9.46,1.59,1.41,1.29,1.93.66,3.72.15.23-.06.42-.11.59-.14Z"/>
          <path class="cls-1" d="m27.75,109.18c.03.17.05.37.07.6.13,1.86-.28,2.56,1.41,3.45.9.48,1.65-.1,1.65-.1,0,0,.51,2.18,3.73,2.48,3.18.3,3.91-1.83,3.75-1.76-.17-.18-.42.22-1.79.34-3.05.19-5.24-2.54-7.79-5.79-2.42-3.35-4.43-6.22-3.39-9.09.49-1.28.94-1.41.82-1.62.11-.14-2.14-.03-2.73,3.11-.61,3.18,1.34,4.28,1.34,4.28,0,0-.77.56-.56,1.56.38,1.87,1.17,1.67,2.92,2.31.22.08.41.16.56.24Z"/>
          <path class="cls-1" d="m34.64,129.29c-.08.16-.17.33-.3.53-.99,1.58-1.73,1.91-.89,3.62.45.92,1.4.89,1.4.89,0,0-.86,2.06,1.56,4.2,2.4,2.11,4.24.82,4.07.78-.04-.24-.47-.07-1.65-.78-2.58-1.64-2.75-5.13-2.9-9.26.02-4.13.07-7.63,2.6-9.35,1.15-.74,1.59-.58,1.62-.83.17-.04-1.71-1.28-4.04.91-2.36,2.21-1.43,4.25-1.43,4.25,0,0-.95,0-1.37.93-.79,1.74-.03,2.04,1,3.59.13.19.23.37.31.52Z"/>
          <path class="cls-1" d="m28.4,149.62c-.15.08-.34.17-.55.25-1.73.7-2.52.52-2.85,2.41-.17,1.01.61,1.54.61,1.54,0,0-1.91,1.16-1.2,4.32.7,3.12,2.95,3.15,2.83,3.02.11-.22-.34-.33-.87-1.6-1.12-2.84.79-5.77,3.1-9.2,2.44-3.34,4.55-6.13,7.6-6.04,1.37.08,1.63.46,1.8.28.16.06-.63-2.04-3.8-1.64-3.21.41-3.65,2.6-3.65,2.6,0,0-.77-.56-1.66-.05-1.66.94-1.23,1.63-1.3,3.49,0,.23-.03.43-.05.61Z"/>
          <path class="cls-1" d="m11.4,162.39c-.17-.02-.37-.06-.6-.12-1.81-.45-2.35-1.06-3.72.27-.73.71-.41,1.61-.41,1.61,0,0-2.23-.18-3.51,2.79-1.27,2.94.53,4.28.52,4.11.22-.11-.08-.47.23-1.8.76-2.96,4.03-4.2,7.92-5.62,3.94-1.26,7.28-2.29,9.7-.42,1.06.87,1.05,1.33,1.29,1.28.09.15.69-2.02-2.11-3.56-2.83-1.56-4.48-.04-4.48-.04,0,0-.29-.9-1.31-1.02-1.9-.21-1.95.6-3.1,2.06-.14.18-.28.34-.4.46Z"/>
          <path class="cls-1" d="m-8.08,156.96c-2.84-.2-8.82-.96-10.65-.09.19-2.02-2.55-7.38-3.7-9.98-2.18-1.83-6.57-5.95-8.56-6.33,1.34-1.52,2.27-7.47,2.88-10.25-.69-2.76-1.81-8.68-3.2-10.15,1.98-.44,6.23-4.71,8.35-6.6,1.06-2.64,3.63-8.09,3.38-10.1,1.86.81,7.81-.15,10.64-.43,2.41-1.51,7.69-4.41,8.67-6.18,1.03,1.74,6.4,4.47,8.86,5.9,2.84.2,8.82.96,10.65.09-.19,2.02,2.55,7.38,3.7,9.98,2.18,1.83,6.57,5.95,8.56,6.33-1.34,1.52-2.27,7.47-2.88,10.25.69,2.76,1.81,8.68,3.2,10.15-1.98.44-6.23,4.71-8.35,6.6-1.06,2.64-3.63,8.09-3.38,10.1-1.86-.81-7.81.15-10.64.43-2.41,1.51-7.69,4.41-8.67,6.18-1.03-1.74-6.4-4.47-8.86-5.9Zm-11.19.68c.08.91,1.51.92,1.54-.06,0-.27-.26-.29.68-.48-.91,1.08,1.5,1.97,2.08-.15.4,0,.62.01.99.03-1.07.95,1.2,2.15,2.06.16.55.05.41.04.69.07-.88.88,1.17,2.04,2.11.22.24.03.49.05.74.08-.27.28-.27.57-.1.8.26-.1.43-.34.36-.72.22.12.44.24.66.35-.24,2.03,2.1,2.22,1.87,1,.25.13.13.07.61.34-.41,2.13,2.14,2.41,1.79,1.03.32.19.5.3.84.53-.71,2.08,1.79,2.69,1.63,1.29.67.69.43.55.29.78-.53.83.66,1.62,1.24.91.6.69,1.76-.14,1.21-.95-.15-.22-.38-.08.26-.79-.11,1.41,2.37.71,1.59-1.34.33-.23.51-.35.82-.55-.31,1.39,2.23,1.03,1.76-1.08.47-.28.36-.21.6-.35-.19,1.23,2.15.96,1.84-1.06.21-.12.43-.25.65-.37-.06.38.12.62.38.7.16-.23.15-.52-.13-.79.25-.03.49-.07.74-.1,1,1.79,3.01.56,2.11-.29.28-.04.14-.02.69-.09.92,1.96,3.14.69,2.05-.22.37-.03.58-.05.99-.07.65,2.1,3.03,1.13,2.08.08.95.16.67.19.69.46.06.98,1.49.92,1.54.01.89.21,1.34-1.15.41-1.48-.25-.09-.36.16-.25-.79.74,1.2,2.33-.82.5-2.02.13-.38.21-.58.34-.93.57,1.31,2.41-.47.78-1.91.22-.51.16-.38.28-.64.57,1.1,2.3-.49.86-1.94.1-.22.2-.45.3-.68.18.34.46.43.73.34,0-.28-.19-.51-.57-.57.18-.17.36-.35.54-.52,1.86.86,2.76-1.31,1.53-1.47.2-.19.1-.1.51-.48,1.9,1.04,2.95-1.29,1.53-1.38.28-.24.44-.38.76-.63,1.76,1.31,3.11-.87,1.73-1.16.86-.43.66-.24.83-.04.63.76,1.75-.13,1.25-.89.84-.36.41-1.72-.53-1.44-.26.07-.19.34-.67-.49,1.31.54,1.41-2.03-.78-1.93-.12-.39-.18-.59-.27-.95,1.23.72,1.67-1.8-.49-2-.12-.54-.09-.4-.15-.68,1.11.56,1.58-1.75-.44-2.08-.05-.24-.1-.48-.16-.73.35.17.62.08.79-.15-.17-.22-.45-.31-.79-.12.04-.25.09-.49.13-.73,2.01-.4,1.46-2.69.38-2.09.05-.28.02-.14.13-.68,2.15-.27,1.63-2.78.42-2.02.08-.36.13-.57.24-.96,2.19.03,2.01-2.53.72-1.95.45-.85.39-.58.65-.52.95.24,1.34-1.13.49-1.46.47-.78-.68-1.63-1.28-.85-.16.21.04.39-.83,0,1.37-.33-.05-2.47-1.77-1.1-.32-.24-.49-.38-.78-.61,1.42-.14.29-2.44-1.57-1.33-.42-.36-.31-.27-.52-.46,1.23-.2.25-2.34-1.58-1.42-.18-.16-.37-.33-.55-.5.38-.06.55-.31.55-.58-.27-.08-.55.02-.71.37-.11-.23-.22-.45-.32-.67,1.39-1.5-.4-3.04-.93-1.91-.12-.25-.06-.13-.3-.63,1.58-1.48-.32-3.2-.84-1.88-.14-.34-.23-.54-.37-.92,1.79-1.26.14-3.23-.57-2-.14-.95-.03-.7.22-.8.91-.36.42-1.7-.46-1.47-.08-.91-1.51-.92-1.54.06,0,.27.26.29-.68.48.91-1.08-1.5-1.97-2.08.15-.4,0-.62-.01-.99-.03,1.07-.95-1.2-2.15-2.06-.16-.55-.05-.41-.04-.69-.07.88-.88-1.17-2.04-2.11-.22-.24-.03-.49-.05-.74-.08.27-.28.27-.57.1-.8-.26.1-.43.34-.36.72-.22-.12-.44-.24-.66-.35.24-2.03-2.1-2.22-1.87-1-.25-.13-.13-.07-.61-.34.41-2.13-2.14-2.41-1.79-1.03-.32-.19-.5-.3-.84-.53.71-2.08-1.79-2.69-1.63-1.29-.67-.69-.43-.55-.29-.78.53-.83-.66-1.62-1.24-.91-.6-.69-1.76.14-1.21.95.15.22.38.08-.26.79.11-1.41-2.37-.71-1.59,1.34-.33.23-.51.35-.82.55.31-1.39-2.23-1.03-1.76,1.08-.47.28-.36.21-.6.35.19-1.23-2.15-.96-1.84,1.06-.21.12-.43.25-.65.37.06-.38-.12-.62-.38-.7-.16.23-.15.53.13.79-.25.03-.49.07-.74.1-1-1.79-3.01-.56-2.11.29-.28.04-.14.02-.69.09-.92-1.96-3.14-.69-2.05.22-.37.03-.58.05-.99.07-.65-2.1-3.03-1.13-2.08-.08-.95-.16-.67-.19-.69-.46-.06-.98-1.49-.92-1.54-.01-.89-.21-1.34,1.15-.41,1.48.25.09.36-.16.25.79-.74-1.2-2.33.82-.5,2.02-.13.38-.21.58-.34.93-.57-1.31-2.41.47-.78,1.91-.22.51-.16.38-.28.64-.57-1.1-2.3.49-.86,1.94-.1.22-.2.45-.3.68-.18-.34-.46-.43-.73-.34,0,.28.19.51.57.57-.18.17-.36.35-.54.52-1.86-.86-2.76,1.31-1.53,1.47-.2.19-.1.1-.51.48-1.9-1.04-2.95,1.29-1.53,1.38-.28.24-.44.38-.76.63-1.76-1.31-3.11.87-1.73,1.16-.86.43-.66.24-.83.04-.63-.76-1.75.13-1.25.89-.84.36-.41,1.72.53,1.44.26-.07.19-.34.67.49-1.31-.54-1.41,2.03.78,1.93.12.39.18.59.27.95-1.23-.72-1.67,1.8.49,2,.12.54.09.4.15.68-1.11-.56-1.58,1.75.44,2.08.05.24.1.48.16.73-.35-.17-.62-.08-.79.15.17.22.45.31.79.12-.04.25-.09.49-.13.73-2.01.4-1.46,2.69-.38,2.09-.05.28-.02.14-.13.68-2.15.27-1.63,2.78-.42,2.02-.08.36-.13.57-.24.96-2.19-.03-2.01,2.53-.72,1.95-.45.85-.39.58-.65.52-.95-.24-1.34,1.13-.49,1.46-.47.78.68,1.63,1.28.85.16-.21-.04-.39.83,0-1.37.33.05,2.47,1.77,1.1.32.24.49.38.78.61-1.42.14-.29,2.44,1.57,1.33.42.36.31.27.52.46-1.23.2-.25,2.34,1.58,1.42.18.16.37.33.55.5-.38.06-.55.31-.55.58.27.08.55-.02.71-.37.11.23.22.45.32.67-1.39,1.5.4,3.04.93,1.91.12.25.06.13.3.63-1.58,1.48.32,3.2.84,1.88.14.34.23.54.37.92-1.79,1.26-.14,3.23.56,2,.14.95.03.7-.22.8-.91.36-.42,1.7.46,1.47Zm13.15-7.05c-.6-2.74.33-5.55,1.91-6.22.93,1.44.12,4.29-1.91,6.22Zm13.41-.22c-2.09-1.86-3-4.69-2.11-6.15,1.6.61,2.62,3.4,2.11,6.15Zm10.72-8.06c-2.79-.28-5.18-2.03-5.32-3.74,1.65-.44,4.11,1.21,5.32,3.74Zm3.94-12.82c-2.42,1.41-5.38,1.4-6.5.1,1.08-1.33,4.04-1.44,6.5-.1Zm-4.35-12.69c-1.13,2.56-3.53,4.3-5.2,3.91.09-1.71,2.42-3.54,5.2-3.91Zm-10.98-7.71c.6,2.74-.33,5.55-1.91,6.22-.93-1.44-.12-4.29,1.91-6.22Zm-13.41.22c2.09,1.86,3,4.69,2.11,6.15-1.6-.61-2.62-3.4-2.11-6.15Zm-10.72,8.06c2.79.28,5.18,2.03,5.32,3.74-1.65.44-4.11-1.21-5.32-3.74Zm-3.94,12.82c2.42-1.41,5.38-1.4,6.5-.1-1.08,1.33-4.04,1.44-6.5.1Zm4.35,12.69c1.13-2.56,3.53-4.3,5.2-3.91-.09,1.71-2.42,3.54-5.2,3.91Zm12.89,1.46c-.51.03-3.47.31-2.32,2.08-.73.04-1.51,1.4-.06,2.09-1.67.19-1.75,2.06-.21,2.44-1.12.43-1.01,1.74-.11,2.22,1.01.11,1.84-.92,1.15-1.9,1.49.55,2.47-1.04,1.2-2.13,1.58.24,1.7-1.31,1.12-1.76,1.94-.82-.35-2.71-.76-3.02Zm9.37-.15c-.39.33-2.62,2.29-.66,3.05-.57.47-.4,2.02,1.17,1.73-1.24,1.14-.21,2.69,1.26,2.09-.65,1,.2,2,1.21,1.86.88-.51.94-1.82-.19-2.21,1.53-.43,1.39-2.29-.29-2.43,1.42-.73.6-2.06-.13-2.08,1.09-1.8-1.88-1.98-2.39-2Zm7.49-5.63c-.12.5-.77,3.4,1.26,2.85-.19.71.86,1.87,1.96.71-.33,1.65,1.41,2.3,2.25.95.06,1.19,1.34,1.5,2.07.79.41-.93-.31-2.03-1.45-1.68.99-1.25-.22-2.67-1.66-1.8.72-1.43-.72-2.02-1.33-1.61-.18-2.1-2.69-.5-3.11-.22Zm2.75-8.96c.19.47,1.37,3.2,2.69,1.57.27.68,1.8,1,2-.58.7,1.53,2.5,1.03,2.38-.56.75.93,1.97.43,2.15-.58-.21-1-1.44-1.46-2.16-.51.06-1.59-1.75-2.03-2.4-.48-.26-1.58-1.78-1.21-2.02-.52-1.38-1.59-2.47,1.17-2.64,1.65Zm-3.04-8.87c.43.27,2.99,1.79,3.1-.31.62.4,2.04-.24,1.28-1.65,1.47.83,2.63-.63,1.6-1.85,1.15.31,1.84-.81,1.4-1.73-.76-.68-2.03-.33-2.05.86-.88-1.32-2.61-.62-2.22,1.02-1.14-1.13-2.15.06-1.94.77-2.05-.48-1.31,2.4-1.17,2.89Zm-7.67-5.39c.51-.03,3.47-.31,2.32-2.08.73-.04,1.51-1.4.06-2.09,1.67-.19,1.75-2.06.21-2.44,1.12-.43,1.01-1.74.11-2.22-1.01-.11-1.84.92-1.15,1.9-1.49-.55-2.47,1.04-1.2,2.13-1.58-.24-1.7,1.31-1.12,1.76-1.94.82.35,2.71.76,3.02Zm-9.37.15c.39-.33,2.62-2.29.66-3.05.57-.47.4-2.02-1.17-1.73,1.24-1.14.21-2.69-1.26-2.09.65-1-.2-2-1.21-1.86-.88.51-.94,1.82.19,2.21-1.53.43-1.39,2.29.29,2.43-1.42.73-.6,2.06.13,2.08-1.09,1.8,1.88,1.98,2.39,2Zm-7.49,5.63c.12-.5.77-3.4-1.26-2.85.19-.71-.86-1.87-1.96-.71.33-1.65-1.41-2.3-2.25-.95-.06-1.19-1.34-1.5-2.07-.79-.41.93.31,2.03,1.45,1.68-.99,1.25.22,2.67,1.66,1.8-.72,1.43.72,2.02,1.33,1.61.18,2.1,2.69.5,3.11.22Zm-2.75,8.96c-.19-.47-1.37-3.2-2.69-1.57-.27-.68-1.8-1-2,.58-.7-1.53-2.5-1.03-2.38.56-.75-.93-1.97-.43-2.15.58.21,1,1.44,1.46,2.16.51-.06,1.59,1.75,2.03,2.4.48.26,1.58,1.78,1.21,2.02.52,1.38,1.59,2.47-1.17,2.64-1.65Zm3.04,8.87c-.43-.27-2.99-1.79-3.1.31-.62-.4-2.04.24-1.28,1.65-1.47-.83-2.63.63-1.6,1.85-1.15-.31-1.84.81-1.4,1.73.76.68,2.03.33,2.05-.86.88,1.32,2.61.62,2.22-1.02,1.14,1.13,2.15-.06,1.94-.77,2.05.48,1.31-2.4,1.17-2.89Zm4.38,16.09c-1.76-2.24-3.56-6.09-.8-10.75.13-.22-.15-.98-.92.59-.34-.27-.68-.31-.96-.2.01-.3-.14-.61-.51-.83,1.22-1.26.4-1.26.24-1.06-3.45,4.17-7.67,3.79-10.38,2.89-.11-2.85.7-7.02,5.67-9.17.23-.1.46-.88-1.09-.06-.11-.42-.37-.65-.66-.72.19-.24.24-.57.07-.97,1.72-.3,1.06-.78.82-.72-5.24,1.35-8.43-1.45-10.1-3.76,1.59-2.37,4.69-5.27,9.97-4.09.24.06.89-.45-.84-.69.16-.41.09-.74-.11-.97.29-.08.53-.32.63-.74,1.57.77,1.32,0,1.09-.1-5.04-1.99-5.97-6.13-5.96-8.98,2.68-.98,6.89-1.5,10.47,2.56.17.19.98.16-.28-1.05.36-.24.51-.55.49-.85.28.1.62.05.95-.23.82,1.55,1.07.77.94.56-2.9-4.57-1.23-8.47.46-10.77,2.74.78,6.46,2.83,6.97,8.22.02.25.7.71.4-1.02.43.02.73-.15.89-.4.17.25.47.41.9.37-.25,1.73.41,1.25.43,1,.34-5.4,3.98-7.57,6.7-8.44,1.76,2.24,3.56,6.09.8,10.75-.13.22.15.98.92-.59.34.27.68.31.96.2-.01.3.14.61.51.83-1.22,1.26-.4,1.26-.24,1.06,3.45-4.17,7.67-3.79,10.38-2.89.11,2.85-.7,7.02-5.67,9.17-.23.1-.46.88,1.09.06.11.42.37.65.66.72-.19.24-.24.57-.07.97-1.72.3-1.06.78-.82.72,5.24-1.35,8.43,1.45,10.1,3.76-1.59,2.37-4.69,5.27-9.97,4.09-.24-.06-.89.45.84.69-.16.41-.09.74.11.97-.29.08-.53.32-.63.74-1.57-.77-1.32,0-1.09.1,5.04,1.99,5.97,6.13,5.96,8.98-2.68.98-6.89,1.5-10.47-2.56-.17-.19-.98-.16.28,1.05-.36.24-.51.55-.49.85-.28-.1-.62-.05-.95.23-.82-1.55-1.07-.77-.94-.56,2.9,4.57,1.23,8.47-.46,10.77-2.74-.78-6.46-2.83-6.97-8.22-.02-.25-.7-.71-.4,1.02-.43-.02-.73.15-.89.4-.17-.25-.47-.41-.9-.37.25-1.73-.41-1.25-.43-1-.34,5.4-3.98,7.57-6.7,8.44Zm-3.28-9.51c-.05.47.15,1.03.78,1.48-.04.17-.08.33-.11.49-1.41-.56-2.01,1.63-.12,2.26.01.2.04.39.06.58-1.51-.14-1.46,2.19.6,2.21.05.13.1.25.16.37-1.61.16-.86,2.34,1.11,1.92.07.1.14.19.21.28-.92.34-.73,1.31.05,1.68.85.13,1.55-.56.98-1.36.11-.04.22-.08.33-.12,1.39,1.46,3.23.07,1.99-.96.11-.07.23-.14.34-.22,1.72,1.14,3.07-.76,1.74-1.49.13-.14.26-.29.38-.44,1.92.54,2.65-1.62,1.17-1.94.07-.15.13-.31.19-.47.77-.02,1.25-.37,1.47-.78.23.41.72.74,1.5.74.06.16.13.31.2.46-1.47.37-.67,2.5,1.23,1.9.13.15.26.29.39.43-1.3.78.11,2.63,1.79,1.44.11.07.23.14.35.21-1.21,1.08.68,2.4,2.02.9.11.04.22.07.34.11-.54.82.18,1.48,1.03,1.33.76-.4.92-1.37,0-1.68.07-.09.13-.19.2-.29,1.99.36,2.66-1.84,1.05-1.95.05-.12.1-.25.15-.37,2.06-.09,2.04-2.42.53-2.23.02-.19.04-.38.04-.58,1.87-.69,1.2-2.87-.2-2.26-.04-.16-.08-.33-.13-.49.61-.47.8-1.04.73-1.5.43.2,1.02.18,1.64-.28.15.09.29.18.44.26-.97,1.17.93,2.42,2.11.82.19.05.38.09.57.12-.6,1.4,1.63,2.06,2.29.11.13,0,.27-.02.4-.04-.34,1.58,1.96,1.55,2.17-.46.11-.04.23-.07.33-.11.04.98,1.02,1.09,1.61.47.38-.77-.06-1.65-.99-1.36,0-.12,0-.23-.01-.35,1.82-.87,1.07-3.05-.3-2.19-.03-.13-.07-.26-.1-.39,1.61-1.29.23-3.15-.88-2.12-.1-.17-.2-.33-.31-.5,1.1-1.66-.72-3.02-1.49-1.71-.12-.11-.26-.22-.39-.32.22-.74.04-1.31-.29-1.64.46-.09.93-.46,1.16-1.19.17-.01.34-.03.5-.05-.1,1.51,2.17,1.41,2.19-.58.18-.07.36-.15.53-.24.34,1.48,2.53.71,1.92-1.26.1-.09.2-.17.3-.26.65,1.48,2.5.1,1.48-1.65.07-.1.14-.19.21-.29.61.77,1.47.29,1.58-.57-.14-.85-1.02-1.3-1.6-.51-.07-.09-.14-.19-.22-.28.96-1.78-.93-3.1-1.53-1.6-.1-.09-.21-.17-.31-.25.55-1.99-1.67-2.69-1.96-1.2-.18-.08-.36-.15-.54-.22-.08-1.99-2.36-2.02-2.21-.51-.17-.02-.34-.03-.51-.03-.26-.73-.74-1.08-1.2-1.16.32-.34.48-.92.24-1.65.13-.11.26-.22.38-.34.81,1.28,2.59-.14,1.43-1.76.1-.17.2-.34.29-.51,1.14,1,2.47-.91.81-2.15.03-.13.06-.26.09-.39,1.4.81,2.08-1.39.23-2.2,0-.12,0-.24,0-.35.95.26,1.36-.63.95-1.39-.61-.6-1.59-.46-1.6.52-.11-.03-.22-.07-.34-.1-.27-2-2.57-1.96-2.18-.39-.13-.01-.27-.02-.4-.02-.73-1.93-2.93-1.19-2.29.18-.19.04-.38.09-.57.14-1.23-1.56-3.1-.25-2.09.88-.14.08-.29.18-.43.27-.63-.44-1.23-.44-1.65-.23.05-.47-.15-1.03-.78-1.48.04-.17.08-.33.11-.49,1.41.56,2.01-1.63.12-2.26-.01-.2-.04-.39-.06-.58,1.51.14,1.46-2.19-.6-2.21-.05-.13-.1-.25-.16-.37,1.61-.16.86-2.34-1.11-1.92-.07-.1-.14-.19-.21-.28.92-.34.73-1.31-.05-1.68-.85-.13-1.55.56-.98,1.36-.11.04-.22.08-.33.12-1.39-1.46-3.23-.07-1.99.96-.11.07-.23.14-.34.22-1.72-1.14-3.07.76-1.74,1.49-.13.14-.26.29-.38.44-1.92-.54-2.65,1.62-1.17,1.94-.07.15-.13.31-.19.47-.77.02-1.25.37-1.47.78-.23-.41-.72-.74-1.5-.74-.06-.16-.13-.31-.2-.46,1.47-.37.67-2.5-1.23-1.9-.13-.15-.26-.29-.39-.43,1.3-.78-.11-2.63-1.79-1.44-.11-.07-.23-.14-.35-.21,1.21-1.08-.68-2.4-2.02-.9-.11-.04-.22-.07-.33-.11.54-.82-.18-1.48-1.03-1.33-.76.4-.92,1.37,0,1.68-.07.09-.13.19-.2.29-1.99-.36-2.66,1.84-1.05,1.95-.05.12-.1.25-.15.37-2.06.09-2.04,2.42-.53,2.23-.02.19-.04.38-.04.58-1.87.69-1.2,2.87.2,2.26.04.16.08.33.13.49-.61.47-.8,1.04-.73,1.5-.43-.2-1.02-.18-1.64.28-.15-.09-.29-.18-.44-.26.97-1.17-.93-2.42-2.11-.82-.19-.05-.38-.09-.57-.12.6-1.4-1.63-2.06-2.29-.11-.13,0-.27.02-.4.04.34-1.58-1.96-1.55-2.17.46-.11.04-.23.07-.33.11-.04-.98-1.02-1.09-1.61-.47-.38.77.06,1.65.99,1.36,0,.12,0,.23.01.35-1.82.87-1.07,3.05.3,2.19.03.13.07.26.1.39-1.61,1.29-.23,3.15.88,2.12.1.17.2.33.31.5-1.1,1.66.72,3.02,1.49,1.71.12.11.26.22.39.32-.22.74-.04,1.31.29,1.64-.46.09-.93.46-1.16,1.19-.17.01-.34.03-.5.05.1-1.51-2.17-1.41-2.19.58-.18.07-.36.15-.53.24-.34-1.48-2.53-.71-1.92,1.26-.1.09-.2.18-.3.26-.65-1.48-2.5-.1-1.48,1.65-.07.1-.14.19-.21.29-.61-.77-1.47-.29-1.58.57.14.85,1.02,1.3,1.6.51.07.09.14.19.22.28-.96,1.78.93,3.1,1.53,1.6.1.09.21.17.31.25-.55,1.99,1.67,2.69,1.96,1.2.18.08.36.15.54.22.08,1.99,2.36,2.02,2.21.51.17.02.34.03.51.03.26.73.74,1.08,1.2,1.16-.32.34-.48.92-.24,1.65-.13.11-.26.22-.38.34-.81-1.28-2.59.14-1.43,1.76-.1.17-.2.34-.29.51-1.14-1-2.47.91-.81,2.15-.03.13-.06.26-.09.39-1.4-.81-2.08,1.39-.23,2.2,0,.12,0,.24,0,.35-.95-.26-1.36.63-.95,1.39.61.6,1.59.46,1.6-.52.11.03.22.07.34.1.27,2,2.57,1.96,2.18.39.13.01.27.02.4.02.73,1.93,2.93,1.19,2.29-.18.19-.04.38-.09.57-.14,1.23,1.56,3.1.25,2.09-.88.14-.08.29-.18.43-.27.63.44,1.23.44,1.65.23Z"/>
          <path class="cls-1" d="m-.37,91.55c-2.01.84-4.08,3.59-3.5,4.92,0,0,.66-2.85,3.52-3.23,2.87.28,3.63,3.12,3.63,3.12.54-1.35-1.62-4.03-3.65-4.8Z"/>
          <path class="cls-1" d="m22.26,98.51c-2.12-.5-5.41.51-5.72,1.92,0,0,2.21-1.92,4.75-.54,2.16,1.92,1.1,4.65,1.1,4.65,1.23-.77,1.06-4.21-.13-6.03Z"/>
          <path class="cls-1" d="m36.48,117.43c-1.42-1.65-4.67-2.77-5.76-1.81,0,0,2.92-.25,4.16,2.35.62,2.82-1.84,4.41-1.84,4.41,1.45.09,3.33-2.78,3.44-4.96Z"/>
          <path class="cls-1" d="m36.86,141.09c-.18-2.17-2.15-4.99-3.6-4.85,0,0,2.51,1.51,1.98,4.35-1.16,2.65-4.08,2.49-4.08,2.49,1.12.93,4.33-.29,5.7-1.99Z"/>
          <path class="cls-1" d="m23.25,160.46c1.13-1.86,1.19-5.3-.06-6.03,0,0,1.14,2.7-.95,4.68-2.49,1.46-4.76-.39-4.76-.39.36,1.41,3.68,2.31,5.78,1.74Z"/>
          <path class="cls-1" d="m.86,168.13c2.01-.84,4.08-3.59,3.5-4.92,0,0-.66,2.85-3.52,3.23-2.87-.28-3.63-3.12-3.63-3.12-.54,1.35,1.62,4.03,3.65,4.8Z"/>
          <path class="cls-1" d="m-.25,98.84c-.83-.11-1.73.94-1.32,3.3.37,2.16-.58,3.33-.58,3.33.84-.36,1.5-.84,1.99-1.51.51.65,1.18,1.11,2.04,1.44,0,0-.99-1.13-.69-3.31.33-2.38-.61-3.39-1.43-3.26Z"/>
          <path class="cls-1" d="m18.07,104.47c-.61-.57-1.95-.26-3.01,1.89-.97,1.97-2.43,2.35-2.43,2.35.89.21,1.71.2,2.49-.05.04.83.3,1.6.8,2.36,0,0-.14-1.5,1.38-3.08,1.66-1.73,1.5-3.1.76-3.48Z"/>
          <path class="cls-1" d="m29.59,119.79c-.15-.82-1.43-1.35-3.55-.24-1.94,1.02-3.34.47-3.34.47.6.69,1.26,1.16,2.05,1.43-.46.69-.69,1.47-.74,2.38,0,0,.77-1.29,2.93-1.68,2.36-.42,3.04-1.63,2.66-2.37Z"/>
          <path class="cls-1" d="m29.89,138.95c.36-.75-.36-1.93-2.73-2.28-2.17-.32-2.98-1.58-2.98-1.58.08.91.34,1.68.82,2.36-.77.29-1.42.78-2,1.49,0,0,1.38-.59,3.36.36,2.16,1.05,3.41.47,3.54-.35Z"/>
          <path class="cls-1" d="m18.88,154.64c.73-.4.85-1.78-.87-3.45-1.57-1.53-1.48-3.03-1.48-3.03-.47.78-.71,1.56-.72,2.39-.8-.22-1.61-.2-2.5.03,0,0,1.47.33,2.5,2.27,1.13,2.12,2.48,2.39,3.07,1.8Z"/>
          <path class="cls-1" d="m.75,160.85c.83.11,1.73-.94,1.32-3.3-.37-2.16.58-3.33.58-3.33-.84.36-1.5.84-1.99,1.51-.51-.65-1.18-1.11-2.04-1.44,0,0,.99,1.13.69,3.31-.33,2.38.61,3.39,1.43,3.26Z"/>
          <path class="cls-1" d="m4.3,157.04c-.56-1.39-.09-2.3-.09-2.3-.89.62-1.34,1.42-1.42,2.58-.21,3.01,2.7,2.7,1.5-.28Z"/>
          <path class="cls-1" d="m19.51,149.47c-1.27-.8-1.42-1.81-1.42-1.81-.35,1.02-.25,1.94.37,2.92,1.6,2.56,3.77.6,1.05-1.11Z"/>
          <path class="cls-1" d="m27.37,134.4c-1.49.1-2.21-.63-2.21-.63.32,1.03.94,1.71,2.02,2.15,2.8,1.13,3.41-1.73.2-1.52Z"/>
          <path class="cls-1" d="m24.86,117.59c-1.15.96-2.16.79-2.16.79.86.65,1.77.83,2.89.55,2.93-.73,1.74-3.4-.73-1.34Z"/>
          <path class="cls-1" d="m12.96,105.46c-.37,1.45-1.28,1.91-1.28,1.91,1.08.02,1.92-.37,2.67-1.26,1.94-2.31-.59-3.78-1.38-.66Z"/>
          <path class="cls-1" d="m13.73,153.81c-.41-1.44-1.34-1.87-1.34-1.87,1.08-.05,1.93.3,2.7,1.17,2.01,2.25-.47,3.79-1.36.7Z"/>
          <path class="cls-1" d="m25.24,141.31c-1.18-.92-2.19-.72-2.19-.72.84-.68,1.74-.89,2.88-.64,2.95.64,1.85,3.35-.69,1.37Z"/>
          <path class="cls-1" d="m27.21,124.43c-1.5-.05-2.19.7-2.19.7.28-1.04.89-1.74,1.95-2.21,2.76-1.22,3.46,1.62.25,1.51Z"/>
          <path class="cls-1" d="m18.87,109.62c-1.24.84-1.36,1.86-1.36,1.86-.38-1.01-.31-1.93.28-2.93,1.52-2.61,3.75-.72,1.09,1.08Z"/>
          <path class="cls-1" d="m3.43,102.53c-.51,1.41-.01,2.3-.01,2.3-.9-.59-1.38-1.38-1.5-2.54-.3-3,2.61-2.79,1.51.23Z"/>
        </g>
        <g>
          <path class="cls-1" d="m0,114.41c-.23-.14-.48-.28-.74-.41-.2-.1-.37-.77.73-.2,1.08-.61.94.07.74.18-.25.14-.5.28-.73.43Z"/>
          <path class="cls-1" d="m9.12,117.21c-.11-.25-.23-.51-.36-.77-.1-.2.15-.84.71.27,1.23.15.72.61.49.58-.29-.04-.57-.06-.84-.08Z"/>
          <path class="cls-1" d="m14.85,124.84c.06-.27.12-.54.16-.83.03-.23.62-.59.42.63.91.84.22.91.06.76-.21-.2-.42-.38-.64-.56Z"/>
          <path class="cls-1" d="m15,134.38c.21-.18.41-.37.62-.58.16-.16.85-.11-.03.76.24,1.22-.36.87-.4.64-.05-.29-.12-.56-.19-.82Z"/>
          <path class="cls-1" d="m9.52,142.19c.27-.02.55-.06.84-.1.23-.04.75.41-.47.59-.52,1.13-.8.49-.7.29.12-.26.23-.52.33-.78Z"/>
          <path class="cls-1" d="m.5,145.28c.23.14.48.28.74.41.2.1.37.77-.73.2-1.08.61-.94-.07-.74-.18.25-.14.5-.28.73-.43Z"/>
          <path class="cls-1" d="m.07,118.98c-1.16-1.85-2.94-3.01-4.3-2.71,0,0,3.16-1.83,3.14.47.32-.18.81-.09,1.13.2.31-.3.8-.41,1.12-.24-.09-2.3,3.12-.57,3.12-.57-1.37-.25-3.11.96-4.21,2.85Z"/>
          <path class="cls-1" d="m6.49,120.96c.15-2.18-.62-4.16-1.89-4.72,0,0,3.63.38,2.26,2.22.36.04.71.4.79.83.43-.06.89.14,1.05.47,1.27-1.91,2.86,1.38,2.86,1.38-.96-1.01-3.08-1.05-5.08-.17Z"/>
          <path class="cls-1" d="m10.52,126.32c1.4-1.68,1.95-3.73,1.25-4.93,0,0,2.72,2.44.52,3.13.26.25.34.74.16,1.14.38.2.63.64.58.99,2.15-.8,1.51,2.79,1.51,2.79-.18-1.38-1.88-2.66-4.01-3.13Z"/>
          <path class="cls-1" d="m10.63,133.03c2.12-.53,3.77-1.87,3.91-3.25,0,0,.76,3.57-1.42,2.84.07.35-.17.8-.54,1.01.19.39.14.89-.12,1.14,2.21.62-.42,3.15-.42,3.15.66-1.22.05-3.26-1.41-4.89Z"/>
          <path class="cls-1" d="m6.77,138.53c2.03.81,4.15.7,5.07-.34,0,0-1.48,3.34-2.82,1.47-.15.33-.6.55-1.03.5-.07.43-.41.8-.77.85,1.43,1.8-2.19,2.3-2.19,2.3,1.25-.6,1.95-2.61,1.74-4.78Z"/>
          <path class="cls-1" d="m.42,140.7c1.16,1.85,2.94,3.01,4.3,2.71,0,0-3.16,1.83-3.14-.47-.32.18-.81.09-1.13-.2-.31.3-.8.41-1.12.24.09,2.3-3.12.57-3.12.57,1.37.25,3.11-.96,4.21-2.85Z"/>
          <path class="cls-1" d="m-1.78,123.92c.52-.69.94-1.64.09-2.89-1.31-1.92-.58.26-.86.65-.46-.14-1.22-2.31-1.08.01.09,1.5,1.01,2,1.84,2.22Zm-1.88-5.5c.26.07.54.17.82.28,3.05,1.24,3.8,4.15,1.77,7.28-3.52-1.23-4.71-3.99-3.07-6.83.15-.27.31-.51.48-.73Z"/>
          <path class="cls-1" d="m2.09,123.85c.82-.25,1.73-.77,1.77-2.28.07-2.33-.62-.13-1.08.02-.29-.38.37-2.59-.88-.62-.81,1.27-.36,2.21.19,2.88Zm1.71-5.56c.17.21.34.45.5.71,1.74,2.79.63,5.58-2.85,6.92-2.13-3.06-1.47-6,1.53-7.33.28-.13.55-.23.81-.31Z"/>
          <path class="cls-1" d="m5.26,126.08c.81.28,1.85.39,2.77-.8,1.43-1.84-.43-.47-.88-.62-.01-.48,1.82-1.88-.35-1.02-1.4.55-1.59,1.58-1.54,2.44Zm4.65-3.49c.01.27,0,.56-.02.87-.23,3.28-2.77,4.89-6.37,3.93.08-3.73,2.33-5.72,5.55-5.03.3.06.58.14.84.23Z"/>
          <path class="cls-1" d="m6.52,129.74c.49.71,1.27,1.4,2.72.98,2.23-.65-.07-.63-.35-1.02.27-.39,2.57-.45.32-1.03-1.46-.37-2.22.35-2.68,1.07Zm5.81-.09c-.15.23-.33.46-.52.69-2.12,2.52-5.12,2.33-7.47-.57,2.26-2.97,5.25-3.25,7.44-.81.21.23.39.46.55.68Z"/>
          <path class="cls-1" d="m5.38,133.45c-.02.86.2,1.88,1.62,2.39,2.19.79.32-.55.31-1.03.45-.16,2.35,1.15.86-.64-.96-1.16-1.99-1.02-2.8-.71Zm4.76,3.34c-.26.09-.53.18-.83.25-3.19.79-5.51-1.12-5.71-4.85,3.57-1.08,6.16.45,6.5,3.72.03.31.05.6.04.87Z"/>
          <path class="cls-1" d="m2.28,135.77c-.52.69-.94,1.64-.09,2.89,1.31,1.92.58-.26.86-.65.46.14,1.22,2.31,1.08-.01-.09-1.5-1.01-2-1.84-2.22Zm1.88,5.5c-.26-.07-.54-.17-.82-.28-3.05-1.24-3.8-4.15-1.77-7.28,3.52,1.23,4.71,3.99,3.07,6.83-.15.27-.31.51-.48.73Z"/>
          <path class="cls-1" d="m-1.59,135.84c-.82.25-1.73.77-1.77,2.28-.07,2.33.62.13,1.08-.02.29.38-.37,2.59.88.62.81-1.27.36-2.21-.19-2.88Zm-1.71,5.56c-.17-.21-.34-.45-.5-.71-1.74-2.79-.63-5.58,2.85-6.92,2.13,3.06,1.47,6-1.53,7.33-.28.13-.55.23-.81.31Z"/>
          <path class="cls-1" d="m-.44,132.08c-.4.1-.78.22-1.14.36.01-.38,0-.78-.04-1.2-.39-.16-.76-.28-1.14-.37.24-.3.46-.63.67-.99-.22-.35-.45-.68-.7-.97.37-.1.74-.24,1.12-.41.03-.42.03-.81,0-1.2.36.13.74.24,1.15.33.27-.32.5-.64.71-.96.21.32.46.63.74.94.4-.1.78-.22,1.14-.36-.01.38,0,.78.04,1.2.39.16.76.28,1.14.37-.24.3-.46.63-.67.99.22.35.45.68.7.97-.37.1-.74.24-1.12.41-.03.42-.03.81,0,1.2-.36-.13-.74-.24-1.15-.33-.27.32-.5.64-.71.96-.21-.32-.46-.63-.74-.94Zm-.6-.4s.09.09.13.14c-.03-.09-.05-.18-.06-.26-.08.02-.16.03-.26.04.06.02.12.05.18.08Zm1.32.41c.06,0,.13.02.19.04-.08-.06-.14-.11-.2-.18-.05.06-.11.12-.19.18.06-.02.13-.03.19-.04Zm1.31-.45c.06-.03.12-.06.18-.08-.1,0-.18,0-.26-.03,0,.08-.02.17-.05.26.04-.05.08-.1.13-.15Zm.8-1.13c.03-.06.06-.12.1-.17-.08.06-.15.1-.23.13.04.07.08.15.11.24,0-.07,0-.13.02-.2Zm-.02-1.38c-.01-.06-.02-.13-.02-.2-.03.09-.06.17-.11.24.07.03.15.07.23.12-.04-.06-.07-.11-.1-.17Zm-.83-1.11s-.09-.09-.13-.14c.03.09.05.18.06.26.08-.02.16-.03.26-.04-.06-.02-.12-.05-.18-.08Zm-1.32-.41c-.06,0-.13-.02-.19-.04.08.06.14.11.2.18.05-.06.11-.12.19-.18-.06.02-.13.03-.19.04Zm-1.31.45c-.06.03-.12.06-.18.08.1,0,.18,0,.26.03,0-.08.02-.17.05-.26-.04.05-.08.1-.13.15Zm-.8,1.13c-.03.06-.06.12-.1.17.08-.06.15-.1.23-.13-.04-.07-.08-.15-.11-.24,0,.07,0,.13-.02.2Zm.02,1.38c.01.06.02.13.02.2.03-.09.06-.17.11-.24-.07-.03-.15-.07-.23-.12.04.06.07.11.1.17Z"/>
        </g>
      </g>
    </g>
  </g>
</svg>