<?xml version="1.0" encoding="UTF-8"?>
<svg id="Layer_2" data-name="Layer 2" xmlns="http://www.w3.org/2000/svg" viewBox="0 0 68 65.39">
  <defs>
    <style>
      .cls-1 {
        fill: #19a26a;
      }
    </style>
  </defs>
  <g id="Layer_1-2" data-name="Layer 1">
    <g>
      <path class="cls-1" d="m42.25,10.13c.96.23,2,.31,2.88.73,3.35,1.59,4.13,5.09,2.5,8.32-.6,1.19-1.68,1.81-3.05,1.76-1.53-.05-2.78-.67-3.52-2.04-.36-.67-.28-1.45.16-2.11.42-.62.95-.15,1.44-.07.68.11,1.26.01,1.66-.61.68-1.04-.09-2.34-1.5-2.51-1.52-.19-3.02.65-3.5,2.12-.62,1.9-.55,3.8.83,5.37,1.49,1.7,3.35,2.66,5.7,2.05,2.44-.63,3.77-2.34,4.45-4.68.91-3.14.01-6.32-2.37-8.13-3.33-2.53-8.71-2.68-11.89-.36-.49.36-.67.29-.86-.31-.4-1.27-1.14-2.32-2.41-2.89-1.64-.74-3.25-.41-4.83.23-.33.13-.59.42-.88.64.35.11.7.31,1.06.32,1,.03,2.02.07,2.69.89.51.62.82,1.39,1.21,2.11.21.39.34.83.58,1.2.47.74,1.07.95,1.91.67.49-.17.96-.42,1.43-.66,1.97-1.04,4-1.91,6.33-2.02Z"/>
      <path class="cls-1" d="m35.51,55.15c.85.47,1.48.91,2.18,1.2,1.84.77,3.78.9,5.75.62,3.96-.56,8.36-3.87,6.97-9.62-.55-2.28-1.74-4.1-4.02-4.92-3.32-1.19-7.88,1.28-7.38,5.95.22,2.05,1.3,3.23,3.25,3.48,1.56.2,2.69-1.02,2.18-2.34-.29-.73-1.08-1.01-2.07-.74-.97.27-1.36-.07-1.46-1.09-.21-2.17,2.9-3.74,4.79-3.12,1.62.53,2.24,1.77,2.59,3.29.82,3.57-1.49,6.94-4.97,7.2-2.52.19-4.86-.39-7.07-1.6-.53-.29-1.06-.6-1.62-.82-.97-.38-1.55-.19-2.06.71-.38.69-.69,1.42-.98,2.15-.56,1.38-1.64,1.92-3.05,1.95-.51.01-1.02,0-1.72,0,1.06,1.16,2.25,1.42,3.49,1.54,2.87.27,4.3-1.5,5.22-3.84Z"/>
      <path class="cls-1" d="m3.12,60.95c.67.82,1.31,1.66,2.06,2.39,2.24,2.18,5.94,2.82,9.05.94,4.44-2.7,5.5-8.31,2.15-12.26-.83-.97-1.89-1.75-2.84-2.62-.37-.34-.76-.66-1.07-1.04-1.18-1.45-2.33-2.92-3.51-4.37-.5-.62-.67-1.26-.28-1.96.47-.85.94-1.7,1.88-2.17.36-.18.64-.5.96-.75-.06-.08-.13-.16-.19-.24-1.42.17-2.73.64-3.91,1.47-1.69,1.2-2.03,2.97-2,4.86-3.07.52-5.11,3.84-4.03,6.69.31-.52.6-.95.83-1.41.66-1.31,1.67-2.08,3.16-2.16,1.1-.06,2.24.03,3.06-.88,1.16.81,1.15,1.14.07,1.79-.38.23-.77.49-1.04.83-2.17,2.75-.81,7.77,2.45,9.1,1.25.51,2.42.07,2.8-1.06.44-1.31-.21-2.53-1.53-2.86-.26-.06-.56-.06-.75-.21-.33-.25-.74-.55-.83-.91-.39-1.53.64-2.74,2.19-2.55.68.08,1.42.33,1.96.73,2.16,1.6,2.83,3.87,2.34,6.39-.75,3.91-5.15,5.67-8.63,3.58-1.52-.91-2.49-2.3-3.47-3.73-.33-.47-.68-.94-1.06-1.37C2.9,57.19,1.71,55.5,0,56.82,0,56.82,2.42,56.54,3.12,60.95Z"/>
      <path class="cls-1" d="m23.94,59.74c-1.57-.99-3.01-2.11-3.43-4.07-.33-1.56.27-2.83,1.66-3.7.24-.15.48-.28.88-.53-.34-.14-.51-.28-.68-.28-2.96-.13-5.45-1.48-7.65-3.28-1.6-1.31-3-2.88-4.34-4.47-1.26-1.5-1.16-1.74.33-3.31.24.35.48.69.7,1.03,2.71,4.09,6.43,6.74,11.26,7.65,2.3.44,4.63.36,6.79-.81,3.11-1.69,4.72-5.16,4.09-8.77-.1-.6-.21-1.19-.34-1.78-.13-.56-.41-.77-.96-.4-2.35,1.56-4.98,2.35-7.57,2.69-.36.97-.57,1.91-1.02,2.7-.51.9-1.27,1.72-2.46,1.56-1.27-.17-2.14-.96-2.65-2.12-.21-.47-.38-.95-.64-1.61-.23.33-.38.5-.47.69-.18.38-.25.84-.5,1.15-.32.41-.81,1.02-1.16.98-.5-.06-1.21-.54-1.35-.99-.35-1.08-.34-2.25.43-3.23.64-.81,1.16-.95,2.15-.6.67.24,1.32.53,2,.73,1.21.36,2.17-.26,2.38-1.5.31-1.82-.95-3.37-2.8-3.46-2.93-.14-5.57.63-7.92,2.41-.63.48-1.06,1.02-.88,1.87.1.44-.1.65-.54.65-.05,0-.11,0-.16.02-1.41.32-1.91-.05-1.97-1.53,0-.25.14-.56.32-.75,1.55-1.68,3.4-2.9,5.58-3.62.24-.08.47-.16.88-.3-.5-.21-.85-.39-1.21-.5-2.07-.67-3.68-2.03-5.18-3.53-.45-.46-.39-1.66.09-2.24.28-.34,1.23-.4,1.67.03.28.28.34.78.52,1.17.2.41.34.91.66,1.17,2.26,1.84,4.9,2.66,7.78,2.56,1.97-.07,3.04-1.21,3.11-3.08.05-1.3-.87-2.12-2.13-1.86-.67.14-1.31.39-1.95.62-1.38.51-2.56-.03-2.89-1.48-.16-.69-.12-1.47.02-2.18.12-.65.63-1.1,1.36-1.13.71-.03,1.01.48,1.23,1.04.21.55.38,1.12.64,1.91.28-.48.43-.76.6-1.04.37-.63.67-1.33,1.14-1.88,1.15-1.33,3.02-1.26,4,.2.49.72.78,1.6,1.01,2.45.13.5.22.77.8.83,2.54.25,4.85,1.17,6.98,2.56.58.38.85.25,1.03-.35,2.38-7.69-3.22-11.87-8.44-11.66-4.99.21-8.88,2.55-12.07,6.23-.74.85-1.43,1.74-2.14,2.61-.97-.78-1.19-1.71-.59-2.62,2.61-3.98,6.13-6.78,10.75-8.09.42-.12.88-.1,1.33-.16.3-.04.59-.1.89-.15.02-.07.05-.14.07-.21-.34-.25-.67-.53-1.04-.73-1.16-.64-1.57-1.65-1.49-2.91.11-1.89,1.73-3.95,3.71-4.58-.09.33-.14.58-.23.82-.29.82-.65,1.61-.86,2.45-.21.86.03,1.64.64,2.33,1.22,1.36,2.89,1.99,4.46,2.8.72.38,1.45.75,2.18,1.12,4.45,2.31,6.34,8.05,5.04,12.3-.57,1.86-.66,3.37,1.13,4.56.46.31.45.7.03,1.11-.64.62-1.58,1.2-1.77,1.95-.19.75.44,1.68.64,2.54,1.27,5.27-1.08,10.7-6.21,12.98-1.53.68-3.05,1.47-4.43,2.41-2,1.36-2.22,2.65-1.17,4.83.25.51.42,1.06.63,1.59-.11.06-.21.11-.32.17Zm-1.59-26.95c3.44,3.43,6.99,2.65,10.41-.07-2.61-3.09-8.2-3.07-10.41.07Z"/>
      <path class="cls-1" d="m42.82,32.69c-1.88-.55-3.33-1.39-4.58-2.62-1.1-1.08-1.81-2.32-1.58-3.87.13-.85.45-1.75.95-2.44.73-1.02,1.8-1.16,2.78-.39.76.6,1.39,1.41,1.95,2.22.47.69.7,1.54,1.15,2.25.43.68.93,1.36,1.53,1.89,1.14.99,2.56.8,3.29-.51.49-.87.66-1.92.98-2.89.33-1,.53-2.06,1.02-2.97,1.11-2.08,3.38-2.48,5.11-.88,1.74,1.61,3.28,3.44,5.03,5.04,1.57,1.43,3.28,2.73,5,3.98.72.52,1.65.77,2.56,1.18-.21.14-.34.29-.5.34-2.44.66-4.27,2.26-6.04,3.92-1.75,1.64-3.41,3.38-5.11,5.08-.09.09-.18.19-.28.28-2.49,2.54-5.3,1.86-6.35-1.57-.27-.88-.38-1.8-.6-2.7-.12-.48-.28-.97-.49-1.41-.85-1.79-2.63-2.11-3.96-.62-.72.81-1.27,1.8-1.79,2.77-.65,1.21-1.15,2.49-2.41,3.25-1.32.8-2.48.53-3.3-.79-.98-1.57-.79-3.79.44-5.25,1.25-1.48,2.19-2.09,5.18-3.31Zm19.73.04c-.17-.16-.29-.3-.44-.39-2.02-1.2-3.69-2.82-5.2-4.58-1.3-1.52-2.47-3.15-3.68-4.74-.52-.68-.91-.71-1.36.02-.19.3-.3.67-.36,1.03-.14.78-.21,1.57-.33,2.35-.28,1.81-.55,3.64-2,4.94-.61.54-1.39.89-2.16,1.37.3.17.55.36.83.46,1.32.49,2.12,1.49,2.54,2.75.37,1.11.53,2.3.8,3.44.24,1.02.38,2.07.77,3.02.31.76.78.7,1.25,0,2.14-3.12,4.55-6.01,7.52-8.39.57-.45,1.18-.85,1.82-1.3Z"/>
      <path class="cls-1" d="m42.25,10.13c-2.33.11-4.35.98-6.33,2.02-.46.25-.93.5-1.43.66-.84.28-1.44.07-1.91-.67-.24-.37-.37-.81-.58-1.2-.38-.71-.7-1.49-1.21-2.11-.67-.82-1.69-.85-2.69-.89-.36-.01-.71-.21-1.06-.32.29-.22.56-.51.88-.64,1.58-.64,3.19-.96,4.83-.23,1.27.57,2,1.62,2.41,2.89.19.6.37.67.86.31,3.18-2.32,8.56-2.17,11.89.36,2.39,1.81,3.28,5,2.37,8.13-.68,2.35-2.01,4.05-4.45,4.68-2.35.61-4.21-.35-5.7-2.05-1.38-1.57-1.46-3.47-.83-5.37.48-1.47,1.98-2.31,3.5-2.12,1.42.18,2.19,1.47,1.5,2.51-.41.62-.99.72-1.66.61-.48-.08-1.02-.55-1.44.07-.45.66-.52,1.44-.16,2.11.73,1.37,1.98,1.99,3.52,2.04,1.37.05,2.45-.57,3.05-1.76,1.64-3.23.86-6.73-2.5-8.32-.88-.42-1.91-.49-2.88-.73Z"/>
      <path class="cls-1" d="m35.51,55.15c-.92,2.34-2.35,4.12-5.22,3.84-1.24-.12-2.43-.38-3.49-1.54.7,0,1.21.01,1.72,0,1.41-.04,2.49-.57,3.05-1.95.3-.73.6-1.47.98-2.15.5-.9,1.09-1.09,2.06-.71.56.22,1.09.53,1.62.82,2.2,1.21,4.54,1.79,7.07,1.6,3.47-.26,5.79-3.63,4.97-7.2-.35-1.52-.97-2.76-2.59-3.29-1.89-.62-5,.95-4.79,3.12.1,1.02.49,1.36,1.46,1.09.99-.27,1.79,0,2.07.74.52,1.32-.62,2.53-2.18,2.34-1.95-.24-3.02-1.43-3.25-3.48-.51-4.68,4.05-7.14,7.38-5.95,2.29.82,3.47,2.63,4.02,4.92,1.39,5.76-3.01,9.06-6.97,9.62-1.97.28-3.9.15-5.75-.62-.69-.29-1.33-.73-2.18-1.2Z"/>
      <path class="cls-1" d="m54.43,37.04c-.43-.79-.78-1.92-1.52-2.69-.74-.77-1.85-1.17-2.88-1.78,2.6-.42,3.86-2.23,4.5-4.72.8,2.72,2.54,4.28,5.46,4.73-1.3.66-2.49,1.05-3.38,1.79-.91.76-1.54,1.86-2.17,2.67Z"/>
      <path class="cls-1" d="m3.12,4.44c.67-.82,1.31-1.66,2.06-2.39C7.42-.13,11.12-.77,14.23,1.11c4.44,2.7,5.5,8.31,2.15,12.26-.83.97-1.89,1.75-2.84,2.62-.37.34-.76.66-1.07,1.04-1.18,1.45-2.33,2.92-3.51,4.37-.5.62-.67,1.26-.28,1.96.47.85.94,1.7,1.88,2.17.36.18.64.5.96.75-.06.08-.13.16-.19.24-1.42-.17-2.73-.64-3.91-1.47-1.69-1.2-2.03-2.97-2-4.86-3.07-.52-5.11-3.84-4.03-6.69.31.52.6.95.83,1.41.66,1.31,1.67,2.08,3.16,2.16,1.1.06,2.24-.03,3.06.88,1.16-.81,1.15-1.14.07-1.79-.38-.23-.77-.49-1.04-.83-2.17-2.75-.81-7.77,2.45-9.1,1.25-.51,2.42-.07,2.8,1.06.44,1.31-.21,2.53-1.53,2.86-.26.06-.56.06-.75.21-.33.25-.74.55-.83.91-.39,1.53.64,2.74,2.19,2.55.68-.08,1.42-.33,1.96-.73,2.16-1.6,2.83-3.87,2.34-6.39-.75-3.91-5.15-5.67-8.63-3.58-1.52.91-2.49,2.3-3.47,3.73-.33.47-.68.94-1.06,1.37,0,0-1.19,1.68-2.9.37,0,0,2.42.28,3.12-4.13Z"/>
    </g>
  </g>
</svg>