<?xml version="1.0" encoding="utf-8"?>
<!-- Generator: Adobe Illustrator 27.3.1, SVG Export Plug-In . SVG Version: 6.00 Build 0)  -->
<svg version="1.1" id="Layer_1" xmlns="http://www.w3.org/2000/svg" xmlns:xlink="http://www.w3.org/1999/xlink" x="0px" y="0px"
	 viewBox="0 0 350 350" style="enable-background:new 0 0 350 350;" xml:space="preserve">
<path d="M37.8,211.9c1.5-2.2,3.6-2.8,6.2-2.7c12.8,0.1,25.7,0.1,38.5,0.1c5.5,0,6.4,0.9,6.7,6.5c0,0.2,0.1,0.5,0.2,1.1
	c6-3.8,11-8.3,13-15.1c5.6-18.6,10.8-37.3,16.2-56c1.3-4.6,2.8-5.5,7.6-4.8c12.1,1.8,20.5,10.6,22.4,22.9c1.2,7.5-0.7,14.7-1.4,22.1
	c-0.5,4.9-1.2,9.7-1.8,14.8c1.1,0,2.1,0,3.1,0c16.9,0,33.7,0,50.6,0c8.8,0,15.1,4.2,17.6,11.6c2.5,7.3,0.1,14.2-6.9,19.7
	c-0.2,0.2-0.4,0.4-0.5,0.6c5.6,7.5,5.6,18.4-4.2,25.6c6.6,9.6,3.9,19.8-4.4,25.7c3.6,4.9,4.8,10.2,3.1,16.1c-2.1,7-8.5,12-15.7,12
	c-24.4,0.1-48.9,0.3-73.3-0.1c-5-0.1-10-2.5-14.9-3.9c-3.4-1-6.8-2-10.4-3c-0.1,0.8-0.2,1.4-0.2,2c-0.1,3.7-1.6,5.1-5.3,5.1
	c-13.6,0-27.1,0-40.7,0c-2.4,0-4-1-5.4-2.7L37.8,211.9L37.8,211.9z M126.7,149.8c-0.2,0.7-0.5,1.3-0.6,1.9c-5,17.4-9.7,34.8-15,52.1
	c-3.1,10.1-9.9,17.4-19.8,21.4c-1.5,0.6-2,1.2-2,2.8c0,21.9,0,43.9,0,65.8c0,1.6,0.4,2.3,2,2.8c7.1,1.9,14.1,4,21.1,5.9
	c1.5,0.4,3.1,0.9,4.7,0.9c23.4,0.1,46.7,0,70.1,0c5.4,0,9.2-3.7,9.2-8.7c-0.1-4.8-3.9-8.4-9.1-8.4c-5.2,0-10.4,0-15.5,0
	c-3.4,0-5.3-1.7-5.3-4.3c0-2.7,2-4.2,5.4-4.2c6.5,0,13,0,19.5,0c5.4,0,9.3-3.6,9.3-8.6c0-4.9-3.9-8.5-9.3-8.6c-5,0-10,0-15,0
	c-3.6,0-5.6-1.5-5.7-4.2c-0.1-2.8,2-4.4,5.8-4.4c6.4,0,12.9,0,19.3,0c5.4,0,9.2-3.7,9.2-8.7c-0.1-4.8-3.9-8.4-9.2-8.4
	c-4.7,0-9.5,0-14.2,0c-4.6,0-6.6-1.4-6.6-4.4c0.1-2.9,2.1-4.2,6.5-4.2c6.3,0,12.7,0,19,0c3.8,0,6.9-2.1,8.2-5.4
	c2.3-5.8-2-11.7-8.4-11.7c-19.4,0-38.9,0-58.3,0c-4.1,0-5.8-1.8-5.3-5.8c0.8-6.2,1.6-12.4,2.4-18.6c0.6-5.3,1.7-10.6,1.7-15.9
	C140.5,158.8,135.4,151.9,126.7,149.8L126.7,149.8z M46.5,303.3h33.9v-85.4H46.5V303.3z"/>
<path d="M225.8,37.9c5.7,1,11.4,1.8,17,3.2c35.8,9.1,63.7,40,69,76.5c0.8,5.5,0.2,11.2,0.2,16.8c0,36.5-17.8,62.3-48.2,80.4
	c-8.2,4.9-17.4,7.8-26.8,9.7c-0.6,0.1-1.2,0.2-1.9,0.2c-2.7,0.1-4.7-1.5-4.9-3.9c-0.2-2.2,1.3-4,3.9-4.7c5.8-1.7,11.8-2.9,17.3-5.4
	c30.4-13.8,48.1-37.4,51.5-70.7c4.7-45.3-27.5-86-72.6-92.7c-47.5-7-91.5,26.3-97.5,74c-0.4,3.3-0.5,6.6-0.7,9.9
	c-0.1,3.2-1.7,5.1-4.3,5.1c-2.7,0-4.4-2-4.3-5.3c1.6-38.9,19.9-67.1,54.7-84.5c9.7-4.9,20.2-7.4,31.1-8.3c0.5,0,1-0.3,1.5-0.4
	C215.8,37.9,220.8,37.9,225.8,37.9L225.8,37.9z"/>
<path d="M230.6,72.1c4.3,0,8.3,0,12.3,0c7.6,0,13.3,5.5,13.4,12.7c0.1,7.3-5.7,12.9-13.4,13c-9.5,0-18.9,0-28.4,0
	c-5.7,0-9.6,3.5-9.6,8.5c0,5.1,3.9,8.4,9.5,8.6c5.1,0.2,10.4,0,15.4,1c14.9,3.2,25.6,16.3,26.4,31.2c0.8,15.5-8.5,29.3-23,34.3
	c-2,0.7-2.8,1.5-2.7,3.7c0.2,3.5,0.1,7,0.1,10.4c0,3.4-1.6,4.9-4.9,5c-5.3,0.1-10.5,0-15.8,0c-3.4,0-5-1.6-5-5.2c0-3.9,0-7.8,0-12
	c-4.2,0-8.1,0-12,0c-7.9,0-13.8-5.5-13.7-12.9c0-7.3,5.8-12.8,13.6-12.8c9.6,0,19.3,0,28.9,0c5,0,8.8-3.7,8.9-8.4
	c0.1-4.9-3.7-8.6-8.9-8.7c-2.9,0-5.9,0.1-8.8,0c-9-0.3-16.9-3.5-23.3-9.9c-18.1-17.7-11.1-48.5,12.9-56.7c1.9-0.7,2.7-1.4,2.6-3.5
	c-0.2-3.5-0.1-7-0.1-10.4c0-3.5,1.5-5.1,5-5.1c5.3,0,10.5-0.1,15.8,0c3.3,0,4.9,1.6,4.9,5C230.6,63.9,230.6,67.8,230.6,72.1
	L230.6,72.1z M222,192c0-3.9,0-7.6,0-11.3c0-4.4,0.8-5.4,5.2-6.3c11.9-2.5,20.5-13.4,20.3-25.5c-0.3-12.5-9.1-22.9-21.3-24.8
	c-3.9-0.6-8-0.4-12-0.5c-10.2-0.1-17.8-7.4-17.9-17.1c-0.1-9.8,7.6-17.2,17.9-17.2c9.4,0,18.9,0,28.4,0c3.1,0,5.1-1.7,5.1-4.3
	c0-2.6-1.9-4.2-5.1-4.3c-5,0-10,0-15,0c-4.2,0-5.6-1.4-5.6-5.6c0-3.8,0-7.6,0-11.4h-8.6c0,3.9,0,7.6,0,11.3c0,4.4-0.8,5.4-5.2,6.3
	c-10.4,2.2-18.8,11.2-20,21.5c-1.4,11.6,4.3,21.9,14.4,26.8c5.9,2.9,12.1,2.5,18.4,2.5c10.4,0,18.1,7.3,18.1,17.1
	c0,9.8-7.6,17.2-18,17.2c-9.4,0-18.9,0-28.4,0c-3.1,0-5.1,1.7-5.1,4.3c0,2.6,1.9,4.2,5.1,4.3c5,0,10,0,15,0c4.2,0,5.6,1.4,5.6,5.6
	c0,3.8,0,7.6,0,11.4H222L222,192z"/>
<path d="M106.4,93.5c6.7,0.4,8.6,1.4,8.5,4.5c-0.1,3-1.9,3.9-8.3,4.2c-0.1,0.6-0.2,1.3-0.2,2c-0.1,4.5-1.3,6.4-4.2,6.5
	c-3,0-4.3-2-4.3-6.6c0-0.5,0-1.1,0-1.8c-3.5-0.4-8.6,1.1-8.4-4.7c0.2-5.1,4.9-3.7,8.2-4.1c0.6-3.3-1-8.4,4.5-8.3
	C107.4,85.2,106.1,90,106.4,93.5L106.4,93.5z"/>
<path d="M256.1,252.1c0.7-7,1.6-8.6,4.5-8.6c3,0,3.8,1.6,4.5,8.4c3.2,0.5,8.3-1,8.2,4.5c-0.1,5.3-4.8,4-8.3,4.3
	c-0.4,3.5,1,8.1-4.5,8.4c-3,0.2-3.9-1.8-4.2-8.5c-1,0-2,0-3,0c-3.4,0-5.4-1.6-5.4-4.2c0-2.7,1.9-4.3,5.3-4.3
	C254,252.1,254.9,252.1,256.1,252.1L256.1,252.1z"/>
</svg>
