<?xml version="1.0" encoding="utf-8"?>
<!-- Generator: Adobe Illustrator 27.3.1, SVG Export Plug-In . SVG Version: 6.00 Build 0)  -->
<svg version="1.1" id="Layer_1" xmlns="http://www.w3.org/2000/svg" xmlns:xlink="http://www.w3.org/1999/xlink" x="0px" y="0px"
	 viewBox="0 0 350 350" style="enable-background:new 0 0 350 350;" xml:space="preserve">
<style type="text/css">
	.st0{fill:#FFFFFF;}
</style>
<path class="st0" d="M197.6,243.1c0-11.1,0-22.2,0-33.3c0-3.6-2.5-6.2-5.7-6.3c-2.7,0-5.1,2.5-5.4,5.8c-0.1,0.8-0.1,1.5-0.1,2.3
	c0,20.9,0.1,41.9,0.1,62.8c0,1.3-0.1,2.6,0.2,3.8c0.6,2.4,2.1,4.9,4.8,4.5c2-0.3,4-2.1,5.4-3.8c0.8-0.9,0.7-2.9,0.7-4.4
	C197.6,264,197.6,253.6,197.6,243.1L197.6,243.1z"/>
<path class="st0" d="M152.1,237.5L152.1,237.5c0-8.6,0-17.1,0-25.7c0-5.5-1.8-8.1-5.6-8.2c-3.7-0.1-5.5,2.5-5.5,8.2
	c0,15.9,0,31.8,0,47.7c0,2.6,0,5.3,0.6,7.9c0.3,1.3,1.6,2.8,2.9,3.4c4.4,1.8,7.5-0.5,7.6-5.6C152.2,256,152.1,246.8,152.1,237.5
	L152.1,237.5z"/>
<path class="st0" d="M174.7,259.2C174.7,259.2,174.6,259.2,174.7,259.2c-0.1-9.1-0.2-18.1,0-27.2c0.1-3.5-1.4-5.1-4.8-5.2
	c-4-0.1-5.1,0.8-5.6,4.8c-0.2,2-0.4,4-0.4,6c0,16.1,0,32.3,0,48.4c0,1.5,0.2,3,0.5,4.5c0.6,2.7,2.8,4,5,3.5c1.8-0.4,3.8-2,4.6-3.5
	c0.9-1.8,0.7-4.2,0.8-6.3C174.7,275.8,174.7,267.5,174.7,259.2L174.7,259.2z"/>
<path d="M175.4,191.7c-38.4,0-76.8,0-115.2,0c-7.8,0-15.7,0.1-23.5,0.2c-14,0.1-20.8-6.6-20.8-20.5c0-39.7,0-79.3,0-119
	c0-6.9,2.2-12.8,8.2-16.5c2.7-1.6,6.1-2.8,9.2-2.8c76.9-0.1,153.9,0,230.8,0c16.3,0,32.6-0.1,48.9,0c2.9,0,5.8,0.3,8.6,1
	c7.3,1.8,12.4,8.3,12.4,16.2c0.1,41.7,0.1,83.4,0,125.1c0,9.3-7.6,16.4-17.6,16.5c-12.9,0.2-25.8,0.1-38.7,0.1
	c-34.1,0-68.2,0-102.3,0C175.4,191.9,175.4,191.8,175.4,191.7L175.4,191.7z M175,44C175,44,175,43.9,175,44
	c-40.5-0.1-81.1,0-121.6-0.1c-3.2,0-3.7,1.1-3.7,4c0.1,28.5,0.1,57.1,0.1,85.6c0,3.5,0,7.1-0.3,10.6c-0.5,7,5.8,14,12.9,14
	c74.9,0,149.8,0.1,224.7,0.1c7.8,0,13.8-5.9,13.6-13.7c-0.1-4.3-0.4-8.6-0.4-12.9c-0.1-28-0.1-56.1,0-84.1c0-2.9-0.8-3.5-3.7-3.5
	C256,44,215.5,44,175,44L175,44z M61.2,180.8h228c-0.1-2.2-0.4-4.1-0.4-5.9c-0.1-5.6,0-5.6-5.7-5.6c-70.6,0-141.2,0-211.8,0
	C64.3,169.2,60.9,173,61.2,180.8L61.2,180.8z M311.1,44.2c0,3.7,0,6.8,0,10c0,29.8-0.2,59.6,0.2,89.4c0.1,7.4-0.7,13.6-7.1,18.4
	c-1.9,1.4-3.6,4.1-4,6.5c-0.6,3.9-0.2,8-0.2,12.3c6.2,0,12.5,0.2,18.8-0.1c3.2-0.1,4.2-2.2,4.2-5.5c-0.1-40.4-0.1-80.8-0.1-121.3
	c0-1.8,0.2-3.8-0.6-5.2c-1-1.8-2.6-3.7-4.4-4.4C315.9,43.6,313.4,44.2,311.1,44.2L311.1,44.2z M27.1,113.3L27.1,113.3
	c0.1,20.3,0,40.7,0.1,61c0,5.1,1.2,6.4,6.2,6.6c4.8,0.2,9.6,0.2,14.4-0.1c0.8,0,2.2-1.4,2.2-2.2c0.4-7.5,0.8-14.9-6.8-19.8
	c-3.7-2.4-5-6.2-4.2-10.7c0.2-1.4,0.2-2.8,0.2-4.2c-0.1-21.6-0.2-43.2-0.2-64.8c0-10.9,0.1-21.7,0-32.6c0-0.9-1.1-2.4-1.8-2.5
	c-7.7-0.3-9.4,0.4-9.9,7.7c-0.1,1.6-0.1,3.3-0.1,4.9C27.1,75.6,27.1,94.4,27.1,113.3L27.1,113.3z"/>
<path d="M257.9,299.2c-3.3,2-5.8,3.6-8.4,5.1c-3.4,2-5.6,1.4-8.1-1.8c-0.9-1.1-2.6-2.1-4-2.3c-3.3-0.4-5.5-2.1-5.5-5.5
	c0-3.3,0.3-6.5,0.5-10.6c-1.8,1-3.1,1.8-4.4,2.5c-2.3,1.3-4.6,2.6-6.9,3.8c-3,1.6-5.2,0.1-6.7-2.4c-1.5-2.5-0.9-4.9,1.6-6.6
	c2.1-1.4,4.4-2.5,6.5-3.8c1.1-0.7,2.2-1.5,3.9-2.7c-1.8-1.1-2.9-1.9-4.2-2.6c-1.6-0.9-3.4-1.7-4.9-2.8c-2.6-1.8-3.6-4-1.6-7.1
	c0.7-1.2,0.9-3.6,0.1-4.7c-2.1-3-1-5,1.5-6.6c2.7-1.8,5.6-3.2,9.2-5.3c-2.7-1.8-4.8-3.2-6.9-4.6c-1.5-1-3.1-1.8-4.3-3
	c-1.9-1.9-2.4-4.2-0.7-6.5c1.6-2.2,3.9-3,6.3-1.7c3.6,1.8,7.1,3.9,11.5,6.3c-0.1-2.6-0.1-4.6-0.4-6.5c-0.7-4.8,0.3-8.8,3.4-8.9
	c4.3-0.1,6.1-2.7,8.7-5.1c0.8-0.8,3.2-0.8,4.4-0.2c3,1.6,5.6,3.7,9.1,6.2c0-2.1,0-3.8,0-5.5c0-2.5,0-5.1,0.2-7.6
	c0.3-3.1,1.6-5,5.3-4.9c3.5,0.1,5.2,1.4,5.2,4.8c0,4,0,8,0,13.3c3.3-2.2,5.7-3.6,7.8-5.4c3.1-2.7,5.5-1.9,8.2,0.7
	c1.4,1.3,3.4,2.4,5.3,2.8c3.8,0.9,5,2.3,4.9,6.4c-0.1,2.5-0.3,5-0.4,7.5c0,0.3,0.3,0.6,0.8,1.4c2.9-1.6,5.6-3.2,8.5-4.7
	c4.3-2.2,7-1.8,8.9,1.3c1.7,2.8,0.5,5.8-3.5,8.3c-2.8,1.8-5.8,3.3-9.4,5.3c3.5,1.7,6.2,3,8.8,4.4c3.3,1.7,3.9,4.2,2.6,7.6
	c-0.5,1.5-0.5,3.4,0,4.9c1.3,4.1,0.6,6.1-3.2,8c-2.4,1.2-4.9,2.4-8.3,4.1c3.9,2.3,7.1,4,10.2,6c4.4,2.7,4.6,7.2,0.4,9.6
	c-1.4,0.8-3.7,0.6-5.2,0c-2.5-1.1-4.7-2.9-7.1-4.3c-0.9-0.5-2.1-0.8-3.1-0.6c-0.4,0.1-0.7,1.7-0.6,2.7c0,2.1,0.5,4.3,0.4,6.4
	c-0.3,4.6-1.2,5.3-5.8,5.4c-1.1,0-2.7,0.9-3.3,1.9c-2.1,3.3-3.9,4.2-7.5,2.4c-2.9-1.4-5.6-3.2-9-5.2c0,2.4,0.1,4.1,0,5.8
	c-0.1,2.5-0.2,5-0.5,7.5c-0.3,3.2-2.2,4.8-5.4,4.5c-3.1-0.2-4.8-2.2-4.9-5.2C257.7,307.8,257.9,303.9,257.9,299.2L257.9,299.2z
	 M302.8,261.2c-1.5-2.9-12.8-9-15.7-8.5c-0.2,0-0.5,0.1-0.7,0.2c-3.9,2.2-7.8,4.4-12.8,7.2c5.1,2.9,9.5,5.3,13.9,7.6
	c0.6,0.3,1.6,0.1,2.2-0.2C294,265.6,298.4,263.4,302.8,261.2L302.8,261.2z M243.3,225l-1.1,0.6c0.5,5.5,1.1,10.9,1.7,16.4
	c0.1,0.6,0.7,1.4,1.3,1.8c3.9,2.3,7.8,4.5,12.6,7.2c0-5.7,0-10.4,0-15.1c0-0.6-0.5-1.5-1.1-1.9C252.2,230.9,247.8,228,243.3,225
	L243.3,225z M252.5,260.7c-3.5-2.2-6.2-3.8-8.8-5.6c-3.7-2.6-7.2-2.9-11.1-0.2c-2.1,1.5-4.7,2.4-7,3.6c-0.7,0.4-1.2,1-1.8,1.6
	c0.6,0.6,1,1.5,1.7,1.8c3.6,1.9,7.1,3.7,10.8,5.3c1.1,0.5,2.8,0.6,3.9,0.1C244,265.4,247.7,263.3,252.5,260.7L252.5,260.7z
	 M282.8,295.2c0.3-0.2,0.6-0.4,1-0.6c-0.3-4.6-0.6-9.1-1-13.7c-0.1-1,0-2.3-0.5-2.9c-3.9-3.7-8.9-5.5-13.7-7.7c0,5-0.1,9.3,0.1,13.5
	c0,0.9,0.4,2.1,1.1,2.6C274,289.4,278.5,292.3,282.8,295.2L282.8,295.2z M283.9,226.3c-0.4-0.3-0.9-0.7-1.3-1
	c-4.3,3.1-8.7,6.2-13,9.4c-0.4,0.3-0.8,1.1-0.9,1.6c-0.1,4.4,0,8.9,0,14.2c4.5-2.4,8.7-4.6,12.8-6.9c0.5-0.3,0.9-1,0.9-1.6
	C283,236.8,283.4,231.5,283.9,226.3z M257.6,269.7c-3,1.6-4.9,2.8-6.9,3.7c-5.2,2.3-8.3,5.6-7.1,11.9c0.3,1.8-0.4,3.7-0.6,5.6
	c-0.1,1.3-0.2,2.5-0.3,4.9c5.2-3.4,9.5-6.2,13.7-9.1c0.6-0.4,1.1-1.5,1.2-2.2C257.6,279.8,257.6,275.3,257.6,269.7z"/>
<path d="M197.6,243.1c0,10.5,0,20.9,0,31.4c0,1.5,0.1,3.4-0.7,4.3c-1.4,1.6-3.4,3.4-5.4,3.8c-2.7,0.5-4.1-2-4.8-4.5
	c-0.3-1.2-0.2-2.5-0.2-3.8c-0.1-20.9-0.1-41.9-0.1-62.8c0-0.8,0-1.5,0.1-2.3c0.4-3.3,2.8-5.8,5.4-5.8c3.2,0.1,5.7,2.6,5.7,6.3
	C197.6,220.9,197.6,232,197.6,243.1L197.6,243.1z"/>
<path d="M152.1,237.5c0,9.2,0.1,18.4,0,27.6c-0.1,5.1-3.2,7.4-7.6,5.6c-1.2-0.5-2.6-2.1-2.9-3.4c-0.6-2.6-0.6-5.2-0.6-7.9
	c0-15.9,0-31.8,0-47.7c0-5.7,1.8-8.4,5.5-8.2c3.8,0.1,5.6,2.8,5.6,8.2C152.1,220.4,152.1,229,152.1,237.5L152.1,237.5L152.1,237.5z"
	/>
<path d="M174.7,259.2c0,8.3,0,16.6,0,25c0,2.1,0.1,4.5-0.8,6.3c-0.8,1.6-2.9,3.2-4.6,3.5c-2.3,0.5-4.5-0.8-5-3.5
	c-0.3-1.5-0.5-3-0.5-4.5c0-16.1,0-32.3,0-48.4c0-2,0.2-4,0.4-6c0.4-4,1.6-4.9,5.6-4.8c3.5,0.1,4.9,1.6,4.8,5.2
	C174.5,241,174.6,250.1,174.7,259.2C174.6,259.2,174.6,259.2,174.7,259.2L174.7,259.2z"/>
<path d="M175.2,146c-12.2,0.2-22.7-9.7-22.9-21.4c-0.2-12.5,10.2-23.2,22.5-23.2c12.3-0.1,22.5,9.9,22.6,22.3
	C197.5,136.1,187.9,145.8,175.2,146L175.2,146z M175.3,135.4c6,0.1,11.1-4.7,11.1-10.5c0-6.8-4.8-12.5-10.6-12.5
	c-7,0-12,4.8-12.1,11.8C163.5,130.5,168.5,135.3,175.3,135.4L175.3,135.4z"/>
</svg>
