<?xml version="1.0" encoding="utf-8"?>
<!-- Generator: Adobe Illustrator 27.3.1, SVG Export Plug-In . SVG Version: 6.00 Build 0)  -->
<svg version="1.1" id="Layer_1" xmlns="http://www.w3.org/2000/svg" xmlns:xlink="http://www.w3.org/1999/xlink" x="0px" y="0px"
	 viewBox="0 0 350 350" style="enable-background:new 0 0 350 350;" xml:space="preserve">
<path d="M82.8,297.5c-8.7,0-17.1,0.1-25.5,0c-9.6-0.2-16.2-8.1-14.9-17.4c1-7.4,7.2-12.8,15.3-12.9c8.3-0.1,16.6,0,25.2,0V164.6
	c-6.2,0-12.4,0.1-18.6,0c-4.2-0.1-7.5,0.9-10.8,4c-9.9,9.2-26.2,8.1-35.2-1.9c-9.4-10.4-8.9-26.1,1.1-35.6
	c9.9-9.5,25.7-9.5,35.3,0.2c2.3,2.4,4.6,3.1,7.7,3c6.7-0.2,13.5,0,20.8,0c0-1.9,0-3.4,0-4.8c0.2-9.5,6.5-15.6,16.2-15.7
	c19.8-0.1,39.6,0,59.5,0c8.3,0,16.6,0,24.9,0c4.2,0,6.5,1.8,6.6,4.8c0.1,3.2-2.2,5-6.7,5c-27.4,0-54.7,0-82.1,0
	c-7.1,0-8.4,1.4-8.4,8.6c0,55.9,0,111.7,0,167.6c0,7,1.3,8.3,8.3,8.3c66.4,0,132.7,0,199.1,0c6.5,0,7.8-1.3,7.8-7.9
	c0-36.1,0-72.1-0.1-108.2c0-5.2,0-10.5,0.1-15.7c0.1-3.9,1.8-6.1,4.8-6.2c3.1-0.1,5.2,2.2,5.2,6.2c0,42.1,0.1,84.1,0,126.2
	c0,9.8-6.7,15.6-17,15.6c-46.2,0-92.3,0-138.5,0c-20.2,0-40.4,0-60.6,0c-13.3,0-18.4-5-18.9-18.4C83.1,299.2,83,298.7,82.8,297.5
	L82.8,297.5z M37,134c-8.5,0-15.4,6.7-15.6,15.1c-0.1,8.5,6.9,15.7,15.4,15.8c8.5,0,15.3-6.7,15.5-15.2C52.4,140.9,45.7,134,37,134
	L37,134z M82.9,277.1c-8.9,0-17.3-0.1-25.7,0.1c-3,0.1-5,2-5,5.2c0,3.4,2.2,5.1,5.4,5.3c4.5,0.2,8.9,0.1,13.4,0.1
	c3.9,0,7.8,0,11.9,0L82.9,277.1L82.9,277.1z M82.8,154.4v-10H62.4v10H82.8z"/>
<path d="M267.1,31.9c39.6,0,71.4,31.8,71.4,71.4c0,39.6-31.8,71.4-71.3,71.5c-39.5,0-71.4-31.9-71.4-71.4
	C195.7,63.8,227.5,31.9,267.1,31.9z M328.6,103.7c0.2-34-27.2-61.6-61.1-61.8c-34-0.2-61.7,27.1-62,60.9
	c-0.2,32.3,24.8,61.1,59.8,62C300.5,165.6,328.5,138.1,328.6,103.7L328.6,103.7z"/>
<path d="M103.6,216c0-22.2-0.1-44.4,0-66.7c0-7.1,4.3-12.6,10.9-14.5c6.2-1.8,13.2,0.3,16.5,5.9c1.7,2.8,2.8,6.4,2.8,9.7
	c0.2,43.7,0.2,87.4,0.1,131.1c0,9.5-6.6,16.2-15.4,16.1c-8.7-0.1-14.9-6.7-15-16C103.6,259.7,103.6,237.8,103.6,216L103.6,216z
	 M123.9,215.9c0.1,0,0.1,0,0.2,0c0-16.5,0-33,0-49.4c0-5.8,0-11.5-0.2-17.2c-0.1-3.1-2-5.1-5.1-5c-3.1,0-4.9,1.9-5.2,5.1
	c-0.1,0.9,0,1.8,0,2.7c0,42.3,0,84.6,0,126.9c0,1.4-0.4,3,0.2,4.2c0.8,1.6,2,3.4,3.5,4.1c1.3,0.6,3.8,0.1,4.8-0.9
	c1.2-1.3,1.9-3.6,1.9-5.5C124,259.1,123.9,237.5,123.9,215.9L123.9,215.9z"/>
<path d="M144.5,216c0-22.1-0.1-44.2,0-66.3c0.1-11.8,12-19.1,22.2-13.7c5.8,3,8.2,8.1,8.2,14.5c0,23.2,0,46.5,0,69.8
	c0,20.6,0.1,41.1,0,61.7c-0.1,11.4-10.7,18.8-20.9,14.5c-6.5-2.7-9.4-7.9-9.4-14.9C144.5,259.7,144.5,237.8,144.5,216L144.5,216z
	 M154.4,215.4c0,21.2,0,42.4,0,63.7c0,1.1-0.1,2.3,0.1,3.4c0.4,3.1,2.1,5.1,5.3,5c3.1,0,4.9-2,5.2-5.1c0.1-1.1,0.1-2.3,0.1-3.5
	c0-42.4,0-84.9,0-127.3c0-0.8,0-1.5,0-2.3c-0.3-3.1-1.9-5-5.1-5.2c-2.9-0.2-5.1,2-5.4,5.3c-0.1,1.1-0.1,2.3-0.1,3.4
	C154.4,173.7,154.4,194.6,154.4,215.4L154.4,215.4z"/>
<path d="M185.4,216.1c0-21.2,0-42.4,0-63.7c0-0.9,0-1.8,0-2.7c0.1-3.1,1.6-5.1,4.9-5.3c2.9-0.2,4.9,2.1,5.1,5.5
	c0.1,2.9,0.1,5.9,0.1,8.8c0,40.1-0.1,80.3-0.1,120.4c0,5.7,1.6,8.3,5,8.4c3.7,0.1,5.4-2.6,5.4-8.4c0-35.5,0-71.1,0-106.6
	c0-1.3-0.1-2.6,0.2-3.8c0.6-2.5,2.4-4,5-3.8c2.6,0.2,4.2,1.6,4.6,4.3c0.1,0.6,0.1,1.3,0.1,1.9c0,36.9,0,73.9,0,110.9
	c0,6.5-2.9,11.3-8.8,14.1c-5.6,2.6-11,1.8-15.9-1.9c-4.3-3.3-5.7-8-5.7-13.2C185.4,259.3,185.4,237.7,185.4,216.1L185.4,216.1
	L185.4,216.1z"/>
<path d="M226.4,231.9c0-16.4,0-32.7,0-49.1c0-0.4,0-0.8,0-1.1c0.1-4.3,1.6-6.4,4.9-6.4c3.2-0.1,5,2.1,5,6.3c0,8.8,0,17.6,0,26.5
	c0,23.8,0,47.6,0,71.3c0,1.4-0.1,2.9,0.2,4.2c0.6,2.7,2.7,4.6,5.2,4c1.8-0.5,3.6-2.4,4.7-4.1c0.8-1.2,0.3-3.2,0.3-4.9
	c0-29.8,0-59.6-0.1-89.4c0-1,0-2.1,0-3.1c0.1-3.2,1.3-5.5,4.9-5.6c3.1-0.1,5.1,2,5.2,5.8c0.1,6.4,0,12.8,0,19.2
	c0,25.2,0,50.4,0,75.6c0,11.7-9.3,19.1-19.7,16c-6.5-2-10.6-7.5-10.6-14.7C226.3,265.4,226.4,248.6,226.4,231.9L226.4,231.9z"/>
<path d="M297.6,237.4c0,15,0.1,29.9,0,44.9c-0.1,7.5-4.8,13.2-12,14.9c-6.6,1.5-13.8-1.8-16.6-8c-1-2.2-1.6-4.9-1.7-7.4
	c-0.1-30-0.1-60.1-0.1-90.1c0-4,1.9-6.4,5.1-6.3c3.2,0.1,4.9,2.3,4.9,6.4c0,29.1,0,58.3,0,87.4c0,5.6,1.6,8.2,5.1,8.3
	c3.7,0.1,5.5-2.6,5.5-8.4c0-28,0-56,0-84c0-1.3,0-2.6,0-3.8c0.2-3.9,1.9-6,5-5.9c3.3,0.1,5,2.2,5,6.4c0,3.6-0.1,7.2-0.1,10.7
	C297.7,214.2,297.7,225.8,297.6,237.4L297.6,237.4L297.6,237.4z"/>
<path d="M236.5,113.9c0.2-10.1,2.6-18.3,7.4-25.9c7.1-11.3,16.9-19.8,28.6-26c1.6-0.8,4.6-1,5.9,0c1.4,1,2,3.7,2,5.6
	c-0.1,3.8-0.8,7.6-1.3,11.4c-0.6,4.9,1,9,4.8,12.3c1.3,1.2,2.7,2.4,4.1,3.5c15.9,12.3,10.5,34.4-2.4,43.5c-4.8,3.4-9.9,6.3-14.8,9.5
	c-2.5,1.6-4.7,1.5-7.1-0.1c-4.8-3.2-9.8-6-14.5-9.3C240.2,132.2,236.5,123.3,236.5,113.9L236.5,113.9z M269.3,75.8
	c-6.3,4.1-11,8.8-15,14.4c-6.1,8.5-9.3,17.9-7.3,28.5c0.8,4.4,3.2,7.9,6.1,9.4c-2.2-11.2,1-20.5,9.7-27.8c3-2.5,5.6-2.4,8.5,0.1
	c7.9,6.6,11.4,14.9,10.1,25.1c-0.1,0.9-0.2,1.8-0.3,3c8.6-7.6,8.8-19.1,0.2-25.9C272.9,95.9,267.4,87.9,269.3,75.8L269.3,75.8z
	 M267.1,110.4c-6.4,6.6-6.3,18,0.1,24.5C273.4,126.4,273.4,117,267.1,110.4z"/>
</svg>
