<?xml version="1.0" encoding="utf-8"?>
<!-- Generator: Adobe Illustrator 27.3.1, SVG Export Plug-In . SVG Version: 6.00 Build 0)  -->
<svg version="1.1" id="Layer_1" xmlns="http://www.w3.org/2000/svg" xmlns:xlink="http://www.w3.org/1999/xlink" x="0px" y="0px"
	 viewBox="0 0 350 350" style="enable-background:new 0 0 350 350;" xml:space="preserve">
<path d="M311.3,224.4v1.8c0,30.2,0,60.4,0,90.6c0,0.7,0,1.5-0.2,2.2c-0.5,1.8-2.1,3-3.9,3.1c-0.3,0-0.7,0-1,0
	c-87.5,0-174.9,0-262.4,0c-3.6,0-5.2-1.6-5.2-5.2c0-30.2,0-60.4,0-90.6v-1.8c-1.2,0-2.3,0-3.5,0c-1,0-1.9,0-2.9,0
	c-2.5-0.1-4.3-1.9-4.3-4.3c0-5.7,0-11.5,0-17.2c0-2.3,1.7-4.1,4-4.3c0.4,0,0.8,0,1.3,0c51,0,102,0,153,0h1.6c0-0.5,0-0.9,0-1.4
	c0-3.7,0-7.4,0-11.1c0-2.9,1.8-4.7,4.7-4.7c9.3,0,18.5,0,27.8,0c3.1,0,4.9,1.8,4.9,4.9c0,3.6,0,7.3,0,10.9v1.3h37.2
	c0-0.5,0-0.9,0-1.3c0-3.7,0-7.4,0-11c0-3.1,1.8-4.9,4.8-4.9c9.2,0,18.4,0,27.7,0c3.2,0,4.9,1.7,4.9,4.9c0,3.6,0,7.3,0,10.9v1.4
	c0.6,0,1,0,1.5,0c5.2,0,10.4,0,15.6,0c3.4,0,5,1.6,5,5c0,5.4,0,10.9,0,16.3c0,2.8-1.8,4.6-4.6,4.6
	C315.4,224.4,313.5,224.4,311.3,224.4L311.3,224.4z M107.4,313.2v-71.5h-60v71.5H107.4L107.4,313.2z M116.3,313.2h60.1v-71.5h-60.1
	C116.3,241.7,116.3,313.2,116.3,313.2z M302.6,313.2v-65.8H185.2v65.8H302.6z M313.2,207.3H36.8v8.4h276.4L313.2,207.3L313.2,207.3z
	 M302.6,238.7v-14.2H185.2v14.2H302.6z M47.4,232.8h128.9v-8.4H47.4L47.4,232.8L47.4,232.8z M271.2,198.4h19.9v-8.3h-19.9
	L271.2,198.4L271.2,198.4z M216.5,198.5v-8.4h-19.8v8.4H216.5z"/>
<path d="M157.2,117.1c0,3.4,0,6.6,0,9.8c0,1.3-0.4,2.5-1.4,3.4c-1.4,1.2-2.9,1.5-4.6,0.8c-1.7-0.7-2.6-2.1-2.6-4
	c-0.1-2.9,0-5.7,0-8.6c0-0.4,0-0.8,0-1.3h-14.2c0,0.4-0.1,0.8-0.1,1.2c0,2.9,0,5.7,0,8.6c0,2.3-1.6,4.1-3.7,4.4
	c-2.2,0.3-4.2-1.1-4.8-3.2c-0.1-0.5-0.1-1.1-0.1-1.6c0-3.1,0-6.2,0-9.4h-14.3c0,0.4-0.1,0.8-0.1,1.2c0,2.8,0,5.6,0,8.4
	c0,2.7-1.8,4.6-4.3,4.6c-2.5,0-4.3-1.9-4.3-4.6c0-2.8,0-5.5,0-8.3c0-0.4,0-0.8,0-1.3h-8.6c0,0.5,0,0.9,0,1.4c0,10.3,0,20.7,0,31
	c0,7.8-5.6,13.4-13.4,13.4c-13.1,0-26.2,0-39.3,0c-7.8,0-13.4-5.6-13.4-13.4c0-36.2,0-72.5,0-108.7c0-7.1,5.8-12.9,12.9-12.9
	c39.9,0,79.9,0.1,119.8-0.1c6.9,0,13.8,4.9,13.8,13.8c-0.1,20.7,0,41.4,0,62.1c0,2.7,0,5.4,0,8.2c0,3.3-1.8,5-5.1,5
	c-3.6,0-7.2,0-10.8,0C158.2,117.1,157.8,117.1,157.2,117.1L157.2,117.1z M96.9,36.8c-0.4,0-0.8-0.1-1.1-0.1c-18.2,0-36.3,0-54.5,0
	c-2.8,0-4.5,1.8-4.5,4.6c0,14.3,0,28.5,0,42.8c0,0.4,0,0.8,0.1,1.2h60.1V36.8z M165.7,85.5c0-0.4,0.1-0.6,0.1-0.9
	c0-14.4,0-28.8,0-43.3c0-2.8-1.9-4.5-4.7-4.5c-18.1,0-36.2,0-54.3,0c-1.1,0-1.3,0.4-1.3,1.4c0,15.3,0,30.7,0,46
	c0,1.1,0.3,1.4,1.4,1.4c19.2,0,38.3,0,57.5,0H165.7L165.7,85.5z M36.7,94.2v1.3c0,18.1,0,36.1,0,54.2c0,3,1.7,4.7,4.7,4.7
	c13.1,0,26.2,0,39.2,0c3,0,4.7-1.8,4.7-4.7c0-18.1,0-36.1,0-54.2c0-0.4,0-0.8,0-1.3H36.7z M94.2,108.3h71.6V94.2H94.2V108.3z"/>
<path d="M262.5,36.8V38c0,14,0,27.9,0,41.9c0,1,0.3,1.5,1.2,1.9c8.8,4,17.6,8.1,26.4,12.1c5.7,2.6,9,7,9.7,13.2
	c0.1,0.5,0.1,1,0.1,1.5c0,5.2,0,10.4,0,15.6c0,0.4,0,0.8,0,1.4c2.1,0,4.1,0.1,6.1,0c3.7-0.2,5.5,2.2,5.4,5.4c-0.1,5.2,0,10.4,0,15.6
	c0,3.2-1.7,4.9-4.9,4.9c-41.7,0-83.4,0-125.1,0c-3.2,0-4.9-1.7-4.9-4.9c0-5.4,0-10.8,0-16.2c0-3.1,1.7-4.8,4.8-4.8
	c2.2,0,4.3,0,6.7,0c0-0.6,0-1,0-1.5c0-5.1,0-10.1,0-15.2c0.1-7,3.3-12,9.6-14.9c8.9-4.2,17.8-8.2,26.7-12.3c0.8-0.4,1.1-0.8,1.1-1.7
	c0-14,0-28,0-42c0-0.4,0-0.8,0-1.2c-0.5,0-1-0.1-1.4-0.1c-8.3,0-16.6,0-24.9,0c-0.5,0-1.1,0-1.6-0.1c-2.3-0.4-3.8-2.3-3.7-4.6
	c0.2-2.3,2-4,4.4-4c12.7,0,25.3,0,38,0c17.9,0,35.7,0,53.6,0c2.2,0,3.9,1.3,4.4,3.3c0.5,1.9-0.4,4-2.2,4.8c-0.8,0.4-1.9,0.5-2.8,0.5
	c-8.3,0-16.7,0-25,0C263.5,36.8,263.1,36.8,262.5,36.8L262.5,36.8z M196.6,125.5h94.6v-1.3c0-5,0-10,0-15c0-3.4-1.5-5.8-4.6-7.2
	c-9.5-4.4-19-8.8-28.4-13.1c-0.6-0.3-1.2-0.4-1.9-0.4c-8.3,0-16.5,0-24.8,0c-0.5,0-1.1,0.1-1.6,0.3c-9.8,4.5-19.5,9-29.3,13.5
	c-2.7,1.3-4.1,3.5-4.1,6.5c0,5.2,0,10.5,0,15.7C196.6,124.8,196.6,125.1,196.6,125.5L196.6,125.5z M185.1,142.8h117.5v-8.4H185.1
	V142.8z M234,79.7h19.8V36.8H234C234,36.8,234,79.7,234,79.7z"/>
<path d="M99,277.6c0,3.7,0,7.3,0,11c0,2.7-1.8,4.7-4.3,4.7c-2.5,0-4.4-1.9-4.4-4.6c0-7.5,0-14.9,0-22.4c0-2.7,1.9-4.6,4.4-4.6
	s4.3,2,4.3,4.7C99,270.1,99,273.9,99,277.6L99,277.6z"/>
<path d="M133.4,277.5c0,3.8,0,7.5,0,11.2c0,2.2-1.2,3.7-3.1,4.3c-1.7,0.5-3.7,0-4.7-1.6c-0.5-0.8-0.9-1.9-0.9-2.9
	c-0.1-7.5-0.1-14.9,0-22.4c0-2.7,1.9-4.6,4.4-4.6c2.5,0,4.3,2,4.3,4.7C133.5,270.1,133.4,273.8,133.4,277.5L133.4,277.5z"/>
<path d="M243.8,258.8c14,0,28,0.1,42,0c3.2,0,5.5,1.7,5.4,5.4c-0.1,11,0,22,0,32.9c0,3.1-1.7,4.9-4.8,4.9c-28.4,0-56.7,0-85.1,0
	c-3.2,0-4.9-1.8-4.9-4.9c0-11.1,0-22.1,0-33.2c0-3.4,1.6-5,5-5C215.6,258.8,229.7,258.8,243.8,258.8L243.8,258.8z M282.5,267.5
	h-77.3v25.6h77.3V267.5L282.5,267.5z"/>
<path d="M79.7,61.1c0-1.9,0-3.8,0-5.6c0-2.5,1.8-4.4,4.3-4.4c2.4,0,4.3,1.8,4.3,4.3c0.1,3.9,0.1,7.7,0,11.6c-0.1,2.5-2,4.3-4.3,4.3
	c-2.4,0-4.3-1.9-4.3-4.5C79.7,64.8,79.7,63,79.7,61.1z"/>
<path d="M114.1,61.2c0-1.9,0-3.8,0-5.6c0-2.6,1.9-4.5,4.3-4.5c2.4,0,4.2,1.8,4.3,4.4c0,3.8,0,7.5,0,11.2c0,2.6-1.8,4.4-4.3,4.5
	c-2.5,0-4.3-1.9-4.3-4.5C114.1,64.8,114.2,63,114.1,61.2L114.1,61.2z"/>
<path d="M68.2,124.2c0-2.8,0-5.5,0-8.3c0-2.7,1.9-4.7,4.3-4.6c2.4,0,4.3,2,4.3,4.6c0,5.6,0,11.2,0,16.8c0,1.9-0.8,3.3-2.5,4.2
	c-1.7,0.8-3.3,0.5-4.7-0.7c-1-0.9-1.4-2.1-1.4-3.4C68.2,129.8,68.2,127,68.2,124.2L68.2,124.2z"/>
<path d="M243.9,108.4c7.5,0,15,0,22.5,0c2.8,0,4.8,1.8,4.8,4.3c0,2.5-2,4.3-4.7,4.3c-15.1,0-30.1,0-45.2,0c-2.7,0-4.7-1.9-4.7-4.3
	c0-2.5,2-4.3,4.8-4.3C228.9,108.4,236.4,108.4,243.9,108.4L243.9,108.4z"/>
<path d="M243.9,276c4.6,0,9.2,0,13.9,0c2.8,0,4.7,1.7,4.7,4.2c0,2.5-1.8,4.4-4.5,4.4c-9.4,0-18.8,0-28.2,0c-2.7,0-4.6-1.9-4.5-4.4
	c0-2.5,1.9-4.2,4.7-4.2C234.6,276,239.3,276,243.9,276L243.9,276z"/>
</svg>
