<?xml version="1.0" encoding="utf-8"?>
<!-- Generator: Adobe Illustrator 27.3.1, SVG Export Plug-In . SVG Version: 6.00 Build 0)  -->
<svg version="1.1" id="Layer_1" xmlns="http://www.w3.org/2000/svg" xmlns:xlink="http://www.w3.org/1999/xlink" x="0px" y="0px"
	 viewBox="0 0 350 350" style="enable-background:new 0 0 350 350;" xml:space="preserve">
<style type="text/css">
	.st0{fill:none;stroke:#000000;stroke-width:12;stroke-miterlimit:10;}
	.st1{fill:none;stroke:#000000;stroke-width:10;stroke-miterlimit:10;}
</style>
<path class="st0" d="M208.6,201.9c-0.6-18.7,12.6-39,31.8-46.2c6.5-2.4,13.2-4.2,20.2-3.6c19.9,1.8,34.6,11.4,43.4,29.5
	c5,10.3,6.1,21.1,2.9,32.1c-2,6.7-4.3,13.4-7,19.9c-9.4,22.8-20.9,44.7-33.2,66.1c-1.5,2.6-3.3,5.1-5.2,7.4
	c-1.9,2.2-4.2,2.2-6.1-0.1c-2.2-2.7-4.1-5.7-5.8-8.7c-7.4-13.7-14.9-27.3-21.9-41.2c-6.7-13.5-13.1-27.3-17.2-41.9
	C209.4,210.8,208.3,206.3,208.6,201.9L208.6,201.9z M286.5,202.6c0.9-14.7-11.5-28.6-28.9-28.4c-14,0.1-27,12.1-27.1,27.5
	c-0.1,17.3,13.5,28.8,28.2,28.8C276,230.4,287.4,215.4,286.5,202.6L286.5,202.6z"/>
<path class="st1" d="M78.8,40.2c16.5-0.6,33.1,11.1,37.8,28.1c2.4,8.5,1.4,16.7-1.6,24.8c-3.7,9.9-8.6,19.3-14,28.4
	c-5.6,9.2-11.4,18.3-17.2,27.4c-1.3,2-3,3.3-5.4,2.6c-1.3-0.4-2.7-1.3-3.4-2.4c-4-5.7-7.9-11.5-11.5-17.4
	c-5.7-9.2-11.2-18.5-15.7-28.4C45.1,97.7,42.8,92,41.3,86c-2.4-9.8-0.5-18.9,4.8-27.2c6.1-9.7,15-15.8,26.3-18.1
	C74.5,40.2,76.7,40.4,78.8,40.2z M79.2,62.5c-9.3,0-16.6,7-16.8,15.7c-0.2,8.9,5.5,17.7,17,17.8c9.1,0.2,16.6-7.7,16.8-17
	C96.2,70.1,88.3,61.5,79.2,62.5z"/>
<path d="M231.6,309.1c-6-0.8-12.1-1.5-18-2.5c-3.9-0.7-5.8-4.2-4.5-7.4c0.9-2.2,3-3.4,5.5-3.2c7.2,0.7,14.5,1.4,21.7,2.2
	c3.6,0.4,5.4,2.3,5.2,5.5c-0.1,2.6-3.1,5.3-5.8,5.1c-1.3-0.1-2.7-0.2-4-0.2C231.7,308.7,231.6,308.9,231.6,309.1L231.6,309.1z"/>
<path d="M198.6,292.7c-0.1,5-4.1,7.4-8.1,4.9c-2.6-1.6-5.1-3.6-7.4-5.8c-3.8-3.7-7.4-7.5-9.7-12.4c-0.9-2.1-0.5-3.8,0.8-5.4
	c1.3-1.6,3.1-2.5,5.1-2c1.1,0.3,2.5,1.1,3.1,2c3.6,5.7,8.3,10.5,13.6,14.6C197.4,289.7,198.8,290.9,198.6,292.7L198.6,292.7z"/>
<path d="M176.2,256.5c0.1,2.1-2.1,4.4-4.6,4.9c-2.3,0.5-4.8-0.7-5.5-3.1c-0.8-2.4-1.3-5-1.6-7.6c-0.7-5.6-1.3-11.2-1.9-16.9
	c-0.2-2,1.3-2.8,2.5-3.9c1.8-1.6,3.7-1.9,5.6-0.5c1,0.7,1.9,2,2.1,3.2c0.7,3.8,1.1,7.6,1.6,11.3s1.1,7.6,1.7,11.3
	C176.1,255.7,176.2,256.1,176.2,256.5L176.2,256.5z"/>
<path d="M171.9,210.8c-0.1,3.3-1.8,5.6-4.7,6.1c-2.9,0.5-5.5-1.2-6-4.5c-0.8-5-1.3-10.1-2-15.2c-0.3-2.3-0.8-4.6-1.1-6.9
	c-0.3-2.7,0.8-4.6,3.1-5.8c1.3-0.7,2.6-0.7,3.8,0.1c1.9,1.2,3.1,2.8,3.5,5C169.7,196.7,170.8,203.7,171.9,210.8L171.9,210.8z"/>
<path d="M138.5,148.3c1.5,0.5,2.6,0.7,3.6,1.2c6.9,3.9,12.7,8.9,16.9,15.6c0.8,1.3,1.2,3,1.2,4.5c0,2.2-1.6,3.5-3.7,4.2
	c-1.9,0.7-3.4-0.2-4.8-1.4c-0.2-0.2-0.4-0.4-0.6-0.6c-4.1-5.4-9.2-9.8-14.8-13.6c-3.3-2.2-3.6-5.2-1.1-8
	C136.1,149.4,137.5,148.9,138.5,148.3L138.5,148.3z"/>
<path d="M106.8,140.8c3.6,0.5,7.8,0.9,11.9,1.7c4,0.7,5.6,4.5,3.5,7.9c-0.5,0.8-1.7,1.6-2.6,1.8c-1.8,0.3-3.7,0.2-5.5,0.1
	c-4.6-0.3-9.2-0.6-13.8-1c-2.4-0.2-3.6-1.8-3.7-4.5c-0.1-2.5,1.3-4.8,3.4-5.2C102.1,141.1,104.2,141.1,106.8,140.8L106.8,140.8z"/>
</svg>
