<?xml version="1.0" encoding="UTF-8"?>
<svg id="Layer_1" data-name="Layer 1" xmlns="http://www.w3.org/2000/svg" viewBox="0 0 205.83 205.56">
  <defs>
    <style>
      .cls-1 {
        fill: #498d50;
      }
    </style>
  </defs>
  <path class="cls-1" d="m175.82,48.62v16.55c0,.54.05,1.08.09,1.61.03.4.26.87-.19,1.14-.48.28-.9-.05-1.23-.35-1.5-1.33-3.23-2.33-4.96-3.32-1.3-.74-2.6-1.49-4.03-1.94-1.09-.34-1.49-.97-1.48-2.1.05-5.52.05-11.04.06-16.55,0-1.95,0-1.98-2.01-1.98-8.27,0-16.54-.18-24.8.08-5.31.17-10.59.96-15.25,3.96-7.88,5.08-12.39,12.13-13.08,21.58-.32,4.44.37,8.66,2.08,12.75.45,1.07.98,1.34,2.1.89,12.83-5.1,20-19.15,16.46-32.39-.3-1.14.08-1.6,1.12-1.87,1.9-.49,3.86-.57,5.79-.78,1.11-.12,2.23-.16,3.35-.25.88-.08,1.4.22,1.58,1.16.98,5.35,1.17,10.71.14,16.07-.22,1.12.11,1.34,1.11,1.17,2.37-.4,4.75-.75,7.17-.75,10.02-.03,18.84,3.26,26.37,9.81,5.92,5.15,11.2,10.99,16.79,16.49,4.02,3.96,8.01,7.96,12.01,11.94,1.08,1.08,1.12,1.3,0,2.42-3.22,3.18-6.54,6.26-9.67,9.52-4.54,4.73-9.38,9.15-13.86,13.95-1.5,1.6-3.14,3.08-4.77,4.56-.68.62-.92,1.28-.91,2.18.03,13.11.02,26.22.03,39.33,0,2.04-.09,2.13-2.07,2.13-10.93,0-21.86,0-32.78,0h-1.37c-.38,0-.79,0-1-.38-.25-.46.12-.78.38-1.09,2.2-2.64,3.81-5.62,5.1-8.79.67-1.64.95-1.68,2.73-1.6,2.65.12,5.32.09,7.97.1,2.66,0,5.32-.02,7.98,0,.86,0,1.31-.23,1.31-1.19-.03-9.13.14-18.26-.1-27.38-.18-6.95-2.67-13.22-7.6-18.2-6.24-6.3-13.9-9.15-22.83-8.3-2.84.27-5.54,1.05-8.18,2.08-.98.39-1.21.88-.76,1.89,4.56,10.31,12.35,16.13,23.65,17.27,2.91.29,5.71,0,8.51-.63,1.77-.4,1.94-.3,2.37,1.51.64,2.71.93,5.47,1.01,8.25.03,1.22-.48,1.85-1.65,2.07-5.07.95-10.14,1.15-15.22.15-.24-.05-.49-.08-.73-.14-.93-.24-1.2.07-1.01,1.01.51,2.44.6,4.92.68,7.42.31,9.83-3.24,18.24-9.26,25.77-2.49,3.12-5.5,5.75-8.3,8.58-4.64,4.69-9.22,9.44-13.97,14.01-2.42,2.33-4.63,4.87-7.17,7.08-.53.47-.95.64-1.45.02-2.3-2.8-5.1-5.1-7.63-7.66-3.64-3.69-7.27-7.39-10.92-11.07-1.96-1.97-3.92-3.94-5.92-5.88-.7-.68-.71-1.09.31-1.31,3.62-.78,7.2-1.68,10.64-3.07.82-.33,1.52,0,2.11.66,3.55,3.96,7.5,7.52,11.15,11.39.82.87,1.41.73,2.16-.04,3.64-3.76,7.27-7.51,11.03-11.15,2.86-2.77,5.69-5.58,8.27-8.62,3.37-3.98,6.04-8.3,6.84-13.6,1.63-10.83-2.47-21.75-12.52-28.08-1.45-.91-3.02-1.56-4.5-2.39-1.02-.57-1.55-.18-1.93.74-1.03,2.46-1.73,5.02-2.08,7.66-1.01,7.6,1.12,14.37,5.67,20.42,2.01,2.68,4.55,4.82,7.41,6.57,1.76,1.08,1.75,1.16.56,2.79-1.64,2.25-3.45,4.36-5.27,6.46-.79.91-1.44,1-2.43.32-4.52-3.12-8.5-6.77-11.43-11.47-.61-.98-.99-.34-1.35.18-1.24,1.77-2.55,3.49-4.03,5.06-6.44,6.81-14.34,10.76-23.61,12.04-2.18.3-4.37.5-6.57.5-12.09,0-24.18,0-36.27,0-1.69,0-1.82-.12-1.82-1.85,0-9.83.02-19.67,0-29.5,0-1.95.14-3.9-.13-5.84-.05-.33-.01-.69.29-.91.34-.25.64-.02.9.18,2.94,2.27,6.11,4.15,9.59,5.49.91.35,1.11,1.16,1.12,2.04.03,1.83-.15,3.65-.19,5.47-.08,3.9,0,7.8-.05,11.7-.01,1.05.33,1.48,1.44,1.48,7.48-.04,14.96.06,22.43-.07,3.98-.06,7.93-.53,11.85-1.4,5.01-1.11,8.96-3.82,12.4-7.44,5.23-5.5,7.46-12.15,7.4-19.62-.03-3.57-.96-6.97-2.33-10.25-.33-.79-.83-1.22-1.75-.81-7.27,3.19-12.76,8.17-15.68,15.67-2.12,5.45-2.41,11.06-1.11,16.75.39,1.72.36,1.79-1.4,2.07-2.71.44-5.42.8-8.16.9-1.75.07-2.08-.14-2.37-1.83-.7-4.05-1.16-8.13-.47-12.24.2-1.18.37-2.37.61-3.55.13-.64-.1-.88-.7-.79-.94.13-1.88.34-2.83.46-11.34,1.35-21.49-1.47-30.4-8.64-3.86-3.11-7.11-6.85-10.62-10.32-5.84-5.78-11.63-11.6-17.45-17.4-.53-.53-1.09-1.02-1.66-1.5-.88-.75-.9-1.38,0-2.24,7.15-6.88,13.94-14.12,21.18-20.91,2.51-2.36,4.67-5.06,7.27-7.34.8-.7.84-1.65.84-2.63-.01-10.5,0-20.99-.02-31.49,0-2.69.14-5.39-.11-8.08-.09-.98.4-1.47,1.4-1.45,2.37.06,4.73.17,7.1.17,8.88,0,17.77-.03,26.65,0,.72,0,1.71-.58,2.09.1.39.7-.48,1.42-.91,2.03-1.88,2.66-3.48,5.46-4.58,8.52-.35.96-1.04,1.2-1.96,1.12-5.1-.44-10.21-.1-15.32-.22h-.75c-1.66.08-1.83.25-1.82,1.91,0,8.42-.07,16.85.04,25.27.08,5.65,1.45,11,4.6,15.8,3.74,5.7,9.04,9.29,15.51,11.21,6.3,1.86,12.47,1.3,18.53-1.13,1.07-.43,1.22-.98.78-2.01-4.22-9.75-11.65-15.45-22.08-17.1-3.39-.54-6.9-.35-10.26.64-1.12.33-1.75.08-2.03-1.07-.76-3.11-1.28-6.25-1.15-9.48.04-1.04.69-1.19,1.46-1.34,5.06-1.03,10.14-1.1,15.23-.24,2.14.36,2.11.37,1.74-1.77-1.71-10.01.16-19.28,5.68-27.83,2.56-3.97,5.68-7.43,9.15-10.63,2.19-2.03,4.2-4.24,6.32-6.35,3.35-3.34,6.73-6.64,10.07-9.98,2.2-2.2,4.37-4.44,6.5-6.7.82-.87,1.41-.84,2.25.01,8.07,8.08,16.17,16.12,24.26,24.18.28.28.73.57.62,1.01-.12.48-.67.47-1.05.51-3.59.38-7,1.36-10.27,2.87-.86.4-1.54.09-2.13-.51-3.8-3.83-7.61-7.65-11.35-11.53-.79-.82-1.25-.93-2.07-.09-5.2,5.25-10.47,10.44-15.64,15.71-2.65,2.7-5.06,5.61-7.14,8.77-3.69,5.6-4.6,11.79-3.49,18.25,1.7,9.91,7.38,16.83,16.56,20.91,1.74.77,1.95.7,2.61-1.13,3.77-10.4,2.42-19.96-4.78-28.54-1.95-2.32-4.36-4.08-6.92-5.63-.93-.56-1.01-1.04-.53-1.88,1.08-1.89,2.62-3.42,3.96-5.11.62-.78,1.35-1.46,1.99-2.23.59-.7,1.1-.75,1.9-.21,4.57,3.07,8.48,6.78,11.56,11.36.77,1.15.8,1.1,1.58-.03,6.78-9.77,16.03-15.56,27.86-17.16,1.15-.16,2.31-.27,3.47-.28,8.02-.05,16.03-.14,24.05-.17,5.02-.02,10.04.16,15.06,0,1.58-.05,1.7.09,1.7,1.69v17.18h.01l-.07.03Zm-25.21,26.64c-4.9-.13-9.4.95-13.54,3.27-5.71,3.21-9.98,7.76-12.44,13.93-.42,1.06-.34,1.56.72,2,4.7,1.97,9.61,2.75,14.64,2.04,8.63-1.22,15.35-5.53,19.98-12.97.78-1.25,1.13-1.32,2.41-.51,2.47,1.56,4.53,3.63,6.79,5.45,1.03.83.73,1.69.08,2.6-3.05,4.25-6.55,8.05-10.96,10.92-1.04.68-.78,1.02.04,1.53,1.66,1.04,3.2,2.23,4.62,3.57,3.59,3.39,6.7,7.14,8.79,11.65.48,1.04.89.95,1.56.19.74-.84,1.56-1.61,2.35-2.4,4.36-4.33,8.72-8.66,13.1-12.97.55-.54.66-.96.07-1.55-6.43-6.36-12.75-12.86-19.31-19.08-5.27-5-11.59-7.83-18.89-7.67h0Zm-94.75,55c.38-.04,1.12-.13,1.86-.21,11.22-1.17,19.03-6.91,23.39-17.32.4-.95.19-1.43-.77-1.79-2.72-1.04-5.47-1.86-8.41-2.14-5.92-.56-11.42.61-16.5,3.63-4.13,2.46-7.58,5.65-9.91,9.92-.36.65-.72,1.09-1.55.54-2.79-1.83-5.25-4.05-7.69-6.31-.59-.54-.62-1.11-.12-1.75.64-.82,1.25-1.65,1.87-2.49,2.62-3.55,5.88-6.41,9.47-8.93.69-.48.84-.79.04-1.34-5.81-4.01-10.44-9.08-13.55-15.45-.38-.78-.7-.89-1.35-.25-5.2,5.13-10.41,10.25-15.63,15.35-.57.56-.5,1-.03,1.6.83,1.05,1.88,1.87,2.82,2.81,5.44,5.42,10.86,10.86,16.32,16.26,5.35,5.3,11.94,7.62,19.73,7.86h.01Zm47.15-16.14c6.17.29,11.38-5.31,11.41-11.37.03-6.43-5.19-11.51-11.83-11.52-6.02,0-11.29,5.27-11.29,11.31,0,6.63,5,11.57,11.71,11.58Z"/>
</svg>